SplineFontDB: 3.2
FontName: Kinnari-Italic
FullName: Kinnari Italic
FamilyName: Kinnari
Weight: Regular
Copyright: Kinnari Italic by TLWG, based on Kinnari Normal and Norasi Italic.\nCopyright (C) 1999 Db Type. All Rights Reserved.\nCopyright (C) 2007 National Electronics and Computer Technology Center. All Rights Reserved.
Version: 003.003
ItalicAngle: -15.5
UnderlinePosition: -70
UnderlineWidth: 25
Ascent: 800
Descent: 200
InvalidEm: 0
LayerCount: 3
Layer: 0 0 "Back" 1
Layer: 1 0 "Fore" 0
Layer: 2 1 "Quad" 0
FSType: 0
OS2Version: 4
OS2_WeightWidthSlopeOnly: 0
OS2_UseTypoMetrics: 1
CreationTime: 1136287438
ModificationTime: 1782060264
PfmFamily: 17
TTFWeight: 400
TTFWidth: 5
LineGap: 0
VLineGap: 0
Panose: 0 0 0 0 0 0 0 0 0 0
OS2TypoAscent: 1286
OS2TypoAOffset: 0
OS2TypoDescent: -496
OS2TypoDOffset: 0
OS2TypoLinegap: 0
OS2WinAscent: 1286
OS2WinAOffset: 0
OS2WinDescent: 496
OS2WinDOffset: 0
HheadAscent: 1286
HheadAOffset: 0
HheadDescent: -496
HheadDOffset: 0
OS2Vendor: 'PfEd'
Lookup: 4 0 1 "'liga' Standard Ligatures in Latin lookup 2" { "'liga' Standard Ligatures in Latin lookup 2 subtable"  } ['liga' ('latn' <'dflt' > ) ]
Lookup: 6 0 0 "'ccmp' Thai Tone Tilde Reordering" { "'ccmp' Thai Tone Tilde Reordering"  } ['ccmp' ('DFLT' <'dflt' > 'latn' <'dflt' > 'thai' <'KUY ' 'MLY ' 'PAL ' 'SAN ' 'THA ' 'dflt' > ) ]
Lookup: 6 0 0 "'ccmp' Thai Tone Macron Reordering" { "'ccmp' Thai Tone Macron Reordering"  } ['ccmp' ('DFLT' <'dflt' > 'latn' <'dflt' > 'thai' <'KUY ' 'MLY ' 'PAL ' 'SAN ' 'THA ' 'dflt' > ) ]
Lookup: 6 0 0 "'ccmp' Thai Below Vowel Macron Reordering" { "'ccmp' Thai Below Vowel Macron Reordering"  } ['ccmp' ('DFLT' <'dflt' > 'latn' <'dflt' > 'thai' <'KUY ' 'MLY ' 'PAL ' 'SAN ' 'THA ' 'dflt' > ) ]
Lookup: 4 0 0 "'ccmp' Patani Malay Ligatures" { "'ccmp' Patani Malay Ligatures"  } ['ccmp' ('DFLT' <'dflt' > 'thai' <'KUY ' 'MLY ' 'PAL ' 'SAN ' 'THA ' 'dflt' > ) ]

StartChar: .notdef
Encoding: 0 0 0
Width: 384
Flags: W
HStem: 0 23<28 366> 568 23<144 482>
DStem2: 0 0 28 23 0.208512 0.97802<28.3328 585.541> 366 23 384 0 0.208512 0.97802<0 557.208>
LayerCount: 3
Fore
SplineSet
144 568 m 1
 28 23 l 1
 366 23 l 1
 482 568 l 1
 144 568 l 1
384 0 m 1
 0 0 l 1
 126 591 l 1
 510 591 l 1
 384 0 l 1
EndSplineSet
Validated: 1
Layer: 2
SplineSet
144 568 m 1,0,-1
 28 23 l 1,1,-1
 366 23 l 1,2,-1
 482 568 l 1,3,-1
 144 568 l 1,0,-1
384 0 m 1,4,-1
 0 0 l 1,5,-1
 126 591 l 1,6,-1
 510 591 l 1,7,-1
 384 0 l 1,4,-1
EndSplineSet
EndChar

StartChar: exclam
Encoding: 33 33 2
Width: 332
Flags: W
HStem: -12 107<50.7086 133.609> 646 20G<248.5 282>
VStem: 40 105<-0.609375 84.0273> 120 18<180.056 201.219> 219 83<576.667 660.724>
LayerCount: 3
Fore
SplineSet
138 177 m 1
 120 182 l 1
 161 371 168 407 192 551 c 1
 207 634 226 666 262 666 c 0
 289 666 302 649 302 617 c 0
 302 545 258 518 138 177 c 1
91 95 m 0
 120 95 145 70 145 41 c 0
 145 13 120 -12 89 -12 c 0
 62 -12 40 12 40 42 c 0
 40 70 64 95 91 95 c 0
EndSplineSet
Validated: 1
Layer: 2
SplineSet
138 177 m 1,0,-1
 120 182 l 1,1,2
 165 391 165 391 192 551 c 0,3,4
 203 613 203 613 219 639.5 c 128,-1,5
 235 666 235 666 262 666 c 0,6,7
 302 666 302 666 302 617 c 0,8,9
 302 592 302 592 292.5 563.5 c 128,-1,10
 283 535 283 535 266 500.5 c 128,-1,11
 249 466 249 466 213 377.5 c 128,-1,12
 177 289 177 289 138 177 c 1,0,-1
91 95 m 0,13,14
 113 95 113 95 129 79 c 128,-1,15
 145 63 145 63 145 41 c 0,16,17
 145 20 145 20 128.5 4 c 128,-1,18
 112 -12 112 -12 89 -12 c 0,19,20
 69 -12 69 -12 54.5 4 c 128,-1,21
 40 20 40 20 40 42 c 0,22,23
 40 63 40 63 55.5 79 c 128,-1,24
 71 95 71 95 91 95 c 0,13,14
EndSplineSet
EndChar

StartChar: numbersign
Encoding: 35 35 4
Width: 499
Flags: W
HStem: 0 21G<18 86.4528 208 277.453> 212 55<13 97 179 289 371 454> 410 54<86 171 253 363 444 529> 657 20G<264.488 333 455.394 524>
DStem2: 18 0 79 0 0.351275 0.936272<21.4278 226.24 306.54 437.617 516.98 723.08> 208 0 270 0 0.352486 0.935817<21.8542 226.945 307.318 438.32 517.406 723.432>
LayerCount: 3
Fore
SplineSet
464 267 m 1
 454 212 l 1
 349 212 l 1
 270 0 l 1
 208 0 l 1
 289 212 l 1
 158 212 l 1
 79 0 l 1
 18 0 l 1
 97 212 l 1
 1 212 l 1
 13 267 l 1
 119 267 l 1
 171 410 l 1
 76 410 l 1
 86 464 l 1
 192 464 l 1
 272 677 l 1
 333 677 l 1
 253 464 l 1
 382 464 l 1
 463 677 l 1
 524 677 l 1
 444 464 l 1
 541 464 l 1
 529 410 l 1
 423 410 l 1
 371 267 l 1
 464 267 l 1
363 410 m 1
 233 410 l 1
 179 267 l 1
 309 267 l 1
 363 410 l 1
EndSplineSet
Validated: 1
Layer: 2
SplineSet
464 267 m 1,0,-1
 454 212 l 1,1,-1
 349 212 l 1,2,-1
 270 0 l 1,3,-1
 208 0 l 1,4,-1
 289 212 l 1,5,-1
 158 212 l 1,6,-1
 79 0 l 1,7,-1
 18 0 l 1,8,-1
 97 212 l 1,9,-1
 1 212 l 1,10,-1
 13 267 l 1,11,-1
 119 267 l 1,12,-1
 171 410 l 1,13,-1
 76 410 l 1,14,-1
 86 464 l 1,15,-1
 192 464 l 1,16,-1
 272 677 l 1,17,-1
 333 677 l 1,18,-1
 253 464 l 1,19,-1
 382 464 l 1,20,-1
 463 677 l 1,21,-1
 524 677 l 1,22,-1
 444 464 l 1,23,-1
 541 464 l 1,24,-1
 529 410 l 1,25,-1
 423 410 l 1,26,-1
 371 267 l 1,27,-1
 464 267 l 1,0,-1
363 410 m 1,28,-1
 233 410 l 1,29,-1
 179 267 l 1,30,-1
 309 267 l 1,31,-1
 363 410 l 1,28,-1
EndSplineSet
EndChar

StartChar: dollar
Encoding: 36 36 5
Width: 499
Flags: W
HStem: 0 25<221 286.383> 642 26<259.887 335>
VStem: 59 16<159.25 190> 123 78<473.018 588.271> 160 33<-89 -56> 357 36<695 731> 379 77<101.66 238.595> 454 15<499 526.5>
DStem2: 160 -89 193 -89 0.236956 0.97152<7.81955 92.6499 125.208 414.318 523.649 750.962 782.388 843.327>
LayerCount: 3
Fore
SplineSet
497 612 m 1x7c
 469 498 l 1
 454 499 l 1x7a
 453 574 431 609 369 633 c 1
 313 395 l 1
 431 305 456 270 456 190 c 0
 456 120 420 60 360 29 c 0
 322 10 289 3 215 0 c 1xbc
 193 -89 l 1
 160 -89 l 1
 182 1 l 1
 119 15 67 37 31 67 c 1
 59 190 l 1
 75 193 l 1
 85 88 111 51 189 32 c 1
 258 330 l 1
 207 366 186 382 166 410 c 1
 135 445 123 476 123 513 c 0
 123 565 151 612 198 639 c 1
 239 664 267 668 341 668 c 1
 357 731 l 1
 393 731 l 1
 376 664 l 1
 423 652 464 636 497 612 c 1x7c
283 420 m 1
 335 642 l 1
 296 642 287 640 268 633 c 0
 226 618 201 583 201 538 c 0
 201 494 220 464 283 420 c 1
289 306 m 1
 221 25 l 1
 327 34 379 79 379 163 c 0xbc
 379 215 363 245 294 300 c 1
 289 306 l 1
EndSplineSet
Validated: 1
Layer: 2
SplineSet
497 612 m 1,0,-1
 469 498 l 1,1,-1
 454 499 l 1,2,3
 453 555 453 555 434 585 c 128,-1,4
 415 615 415 615 369 633 c 1,5,-1
 313 395 l 1,6,7
 402 327 402 327 429 288.5 c 128,-1,8
 456 250 456 250 456 190 c 0,9,10
 456 138 456 138 430.5 95 c 128,-1,11
 405 52 405 52 360 29 c 0,12,13
 310 4 310 4 215 0 c 1,14,-1
 193 -89 l 1,15,-1
 160 -89 l 1,16,-1
 182 1 l 1,17,18
 84 23 84 23 31 67 c 1,19,-1
 59 190 l 1,20,-1
 75 193 l 1,21,22
 83 114 83 114 107 80 c 128,-1,23
 131 46 131 46 189 32 c 1,24,-1
 258 330 l 1,25,26
 217 359 217 359 198.5 374.5 c 128,-1,27
 180 390 180 390 166 410 c 0,28,29
 123 459 123 459 123 513 c 0,30,31
 123 552 123 552 143 585.5 c 128,-1,32
 163 619 163 619 198 639 c 0,33,34
 228 657 228 657 256 662.5 c 128,-1,35
 284 668 284 668 341 668 c 1,36,-1
 357 731 l 1,37,-1
 393 731 l 1,38,-1
 376 664 l 1,39,40
 452 645 452 645 497 612 c 1,0,-1
283 420 m 1,41,-1
 335 642 l 1,42,43
 292 642 292 642 268 633 c 0,44,45
 201 609 201 609 201 538 c 0,46,47
 201 504 201 504 218.5 478.5 c 128,-1,48
 236 453 236 453 283 420 c 1,41,-1
289 306 m 1,49,-1
 221 25 l 1,50,51
 379 38 379 38 379 163 c 0,52,53
 379 203 379 203 362 231.5 c 128,-1,54
 345 260 345 260 294 300 c 1,55,-1
 289 306 l 1,49,-1
EndSplineSet
EndChar

StartChar: percent
Encoding: 37 37 6
Width: 832
Flags: W
HStem: -13 21G<220 278.188> 0 29<562.37 653.225> 289 35<171.08 268.993> 338 33<646.427 737.172> 583 25<395.713 529.63> 631 31<259.466 328.099> 657 20G<593 653>
VStem: 79 76<342.266 493.275> 376 27<468.375 592.347> 469 74<48.6724 196.488> 765 25<186.782 303.652>
DStem2: 220 -13 267 -13 0.488218 0.872722<22.9463 716.327 731.025 793.559>
LayerCount: 3
Fore
SplineSet
683 371 m 0x79e0
 750 371 790 330 790 264 c 0
 790 187 757 108 705 51 c 1
 672 18 631 0 587 0 c 0
 513 0 469 50 469 136 c 0
 469 252 577 371 683 371 c 0x79e0
694 338 m 0
 662 338 634 319 606 280 c 1
 573 231 543 149 543 101 c 0
 543 54 564 29 605 29 c 0
 634 29 664 44 686 67 c 1
 732 119 765 196 765 259 c 0
 765 303 732 338 694 338 c 0
653 677 m 1x3be0
 267 -13 l 1
 220 -13 l 1
 570 612 l 1
 527 590 504 583 458 583 c 0
 431 583 416 584 395 593 c 1
 397 590 397 590 397 587 c 0
 401 570 403 554 403 541 c 0
 403 489 374 413 335 363 c 0
 297 315 249 289 198 289 c 0
 130 289 79 346 79 419 c 0
 79 542 187 662 297 662 c 0xbde0
 324 662 352 653 365 642 c 1
 382 625 l 1
 395 614 420 608 453 608 c 0
 519 608 562 627 612 677 c 1
 653 677 l 1x3be0
368 601 m 1
 341 606 333 611 316 624 c 0
 309 630 305 631 300 631 c 0
 237 631 155 494 155 387 c 0
 155 347 179 324 214 324 c 0
 296 324 376 437 376 549 c 0
 376 565 375 579 368 601 c 1
EndSplineSet
Validated: 1
Layer: 2
SplineSet
683 371 m 0,0,1
 733 371 733 371 761.5 342.5 c 128,-1,2
 790 314 790 314 790 264 c 0,3,4
 790 144 790 144 705 51 c 0,5,6
 654 0 654 0 587 0 c 0,7,8
 531 0 531 0 500 36 c 128,-1,9
 469 72 469 72 469 136 c 0,10,11
 469 223 469 223 536.5 297 c 128,-1,12
 604 371 604 371 683 371 c 0,0,1
694 338 m 0,13,14
 648 338 648 338 606 280 c 0,15,16
 581 243 581 243 562 189.5 c 128,-1,17
 543 136 543 136 543 101 c 0,18,19
 543 29 543 29 605 29 c 0,20,21
 650 29 650 29 686 67 c 0,22,23
 721 107 721 107 743 159.5 c 128,-1,24
 765 212 765 212 765 259 c 0,25,26
 765 292 765 292 744 315 c 128,-1,27
 723 338 723 338 694 338 c 0,13,14
653 677 m 1,28,-1
 267 -13 l 1,29,-1
 220 -13 l 1,30,-1
 570 612 l 1,31,32
 513 583 513 583 458 583 c 0,33,34
 418 583 418 583 395 593 c 1,35,36
 397 590 397 590 397 587 c 0,37,38
 403 562 403 562 403 541 c 0,39,40
 403 502 403 502 383.5 451 c 128,-1,41
 364 400 364 400 335 363 c 0,42,43
 276 289 276 289 198 289 c 0,44,45
 147 289 147 289 113 326.5 c 128,-1,46
 79 364 79 364 79 419 c 0,47,48
 79 511 79 511 146.5 586.5 c 128,-1,49
 214 662 214 662 297 662 c 0,50,51
 341 662 341 662 365 642 c 2,52,-1
 382 625 l 2,53,54
 402 608 402 608 453 608 c 0,55,56
 502 608 502 608 538 623.5 c 128,-1,57
 574 639 574 639 612 677 c 1,58,-1
 653 677 l 1,28,-1
368 601 m 1,59,60
 339 606 339 606 316 624 c 0,61,62
 308 631 308 631 300 631 c 0,63,64
 253 631 253 631 204 549 c 128,-1,65
 155 467 155 467 155 387 c 0,66,67
 155 357 155 357 171 340.5 c 128,-1,68
 187 324 187 324 214 324 c 0,69,70
 275 324 275 324 325.5 394.5 c 128,-1,71
 376 465 376 465 376 549 c 0,72,73
 376 576 376 576 368 601 c 1,59,60
EndSplineSet
EndChar

StartChar: ampersand
Encoding: 38 38 7
Width: 777
Flags: W
HStem: -18 49<230.269 356.402 578.621 671.784> 331 19<530 569.167 668.688 715> 634 32<433.686 507.008>
VStem: 76 94<89.9846 221.754> 324 80<428 569.291> 517 69<506.326 624.719>
LayerCount: 3
Fore
SplineSet
586 573 m 0
 586 503 518 449 415 397 c 1
 438 294 469 209 501 160 c 1
 564 236 580 265 580 299 c 0
 580 321 568 328 530 331 c 1
 530 350 l 1
 715 350 l 1
 715 333 l 1
 643 326 658 314 520 125 c 1
 560 59 595 31 642 31 c 0
 665 31 683 40 712 62 c 1
 724 50 l 1
 680 1 645 -18 595 -18 c 0
 541 -18 502 4 457 62 c 1
 354 -4 321 -18 258 -18 c 0
 146 -18 76 42 76 141 c 0
 76 275 232 334 331 378 c 1
 328 416 324 435 324 460 c 0
 324 582 390 666 483 666 c 0
 542 666 586 625 586 573 c 0
333 346 m 1
 233 308 170 236 170 164 c 0
 170 91 226 34 297 34 c 0
 349 34 391 51 438 89 c 1
 404 133 369 218 333 346 c 1
410 428 m 1
 466 464 517 493 517 577 c 0
 517 617 504 634 472 634 c 0
 428 634 404 592 404 504 c 0
 404 478 406 458 410 428 c 1
EndSplineSet
Validated: 1
Layer: 2
SplineSet
586 573 m 0,0,1
 586 523 586 523 542.5 481 c 128,-1,2
 499 439 499 439 415 397 c 1,3,4
 451 237 451 237 501 160 c 1,5,6
 548 217 548 217 564 245 c 128,-1,7
 580 273 580 273 580 299 c 0,8,9
 580 315 580 315 569.5 322 c 128,-1,10
 559 329 559 329 530 331 c 1,11,-1
 530 350 l 1,12,-1
 715 350 l 1,13,-1
 715 333 l 1,14,15
 696 331 696 331 684.5 327.5 c 128,-1,16
 673 324 673 324 663.5 319 c 128,-1,17
 654 314 654 314 641.5 296.5 c 128,-1,18
 629 279 629 279 617 262 c 128,-1,19
 605 245 605 245 577 204.5 c 128,-1,20
 549 164 549 164 520 125 c 1,21,22
 550 75 550 75 578.5 53 c 128,-1,23
 607 31 607 31 642 31 c 0,24,25
 671 31 671 31 712 62 c 1,26,-1
 724 50 l 1,27,28
 691 13 691 13 661.5 -2.5 c 128,-1,29
 632 -18 632 -18 595 -18 c 0,30,31
 554 -18 554 -18 522.5 0.5 c 128,-1,32
 491 19 491 19 457 62 c 1,33,34
 379 12 379 12 342 -3 c 128,-1,35
 305 -18 305 -18 258 -18 c 0,36,37
 174 -18 174 -18 125 24.5 c 128,-1,38
 76 67 76 67 76 141 c 0,39,40
 76 167 76 167 85 191.5 c 128,-1,41
 94 216 94 216 104 233 c 128,-1,42
 114 250 114 250 139 270.5 c 128,-1,43
 164 291 164 291 176 300.5 c 128,-1,44
 188 310 188 310 222.5 327.5 c 128,-1,45
 257 345 257 345 265.5 349 c 128,-1,46
 274 353 274 353 311.035490062 369.215354912 c 0,47,48
 314 371 314 371 316 371.5 c 128,-1,49
 318 372 318 372 321 373.5 c 128,-1,50
 324 375 324 375 326.5 376 c 128,-1,51
 329 377 329 377 331 378 c 0,52,53
 330 390 330 390 327 418 c 128,-1,54
 324 446 324 446 324 460 c 0,55,56
 324 551 324 551 368.5 608.5 c 128,-1,57
 413 666 413 666 483 666 c 0,58,59
 527 666 527 666 556.5 639 c 128,-1,60
 586 612 586 612 586 573 c 0,0,1
333 346 m 1,61,62
 258 318 258 318 214 268 c 128,-1,63
 170 218 170 218 170 164 c 0,64,65
 170 109 170 109 207 71.5 c 128,-1,66
 244 34 244 34 297 34 c 0,67,68
 370 34 370 34 438 89 c 1,69,70
 387 156 387 156 333 346 c 1,61,62
410 428 m 1,71,72
 436 445 436 445 444 450 c 128,-1,73
 452 455 452 455 471 471 c 128,-1,74
 490 487 490 487 496.5 499 c 128,-1,75
 503 511 503 511 510 532 c 128,-1,76
 517 553 517 553 517 577 c 0,77,78
 517 607 517 607 506.5 620.5 c 128,-1,79
 496 634 496 634 472 634 c 0,80,81
 404 634 404 634 404 504 c 0,82,83
 404 473 404 473 410 428 c 1,71,72
EndSplineSet
EndChar

StartChar: quotesingle
Encoding: 39 39 8
Width: 213
Flags: W
HStem: 420 246
LayerCount: 3
Fore
SplineSet
152 420 m 1
 132 420 l 1
 138 476 146 593 155 625 c 0
 163 650 187 666 208 666 c 0
 230 666 242 652 242 636 c 0
 242 618 193 510 152 420 c 1
EndSplineSet
Validated: 1
Layer: 2
SplineSet
152 420 m 1,0,-1
 132 420 l 1,1,2
 134 435 134 435 138.5 486.5 c 128,-1,3
 143 538 143 538 147 574.5 c 128,-1,4
 151 611 151 611 155 625 c 0,5,6
 161 643 161 643 176.5 654.5 c 128,-1,7
 192 666 192 666 208 666 c 128,-1,8
 224 666 224 666 233 657.5 c 128,-1,9
 242 649 242 649 242 636 c 0,10,11
 242 618 242 618 152 420 c 1,0,-1
EndSplineSet
EndChar

StartChar: parenleft
Encoding: 40 40 9
Width: 332
Flags: W
VStem: 42 69<0.710557 287.175>
LayerCount: 3
Fore
SplineSet
141 -182 m 1
 114 -133 42 -17 42 180 c 0
 42 256 53 318 79 381 c 0
 122 485 171 551 302 669 c 1
 315 653 l 1
 250 586 218 539 186 460 c 0
 141 349 111 205 111 85 c 0
 111 -12 123 -75 160 -174 c 1
 141 -182 l 1
EndSplineSet
Validated: 1
Layer: 2
SplineSet
141 -182 m 1,0,1
 90.3685137818 -90.1132287152 90.3685137818 -90.1132287152 70.4352756512 -23.0649761094 c 0,2,3
 42 72.5810765929 42 72.5810765929 42 180 c 0,4,5
 42 291 42 291 79 381 c 0,6,7
 112 460 112 460 158.5 521 c 128,-1,8
 205 582 205 582 302 669 c 1,9,-1
 315 653 l 1,10,11
 266 602 266 602 238 560.5 c 128,-1,12
 210 519 210 519 186 460 c 0,13,14
 111 275 111 275 111 85 c 0,15,16
 111 12 111 12 121.5 -44 c 128,-1,17
 132 -100 132 -100 160 -174 c 1,18,-1
 141 -182 l 1,0,1
EndSplineSet
EndChar

StartChar: parenright
Encoding: 41 41 10
Width: 332
Flags: W
VStem: 220 69<205.835 485.128>
LayerCount: 3
Fore
SplineSet
190 669 m 1
 211 630 289 509 289 305 c 0
 289 230 277 167 249 101 c 0
 204 -7 152 -72 29 -180 c 1
 16 -166 l 1
 78 -101 107 -59 136 6 c 1
 186 113 220 275 220 401 c 0
 220 502 205 583 171 664 c 1
 190 669 l 1
EndSplineSet
Validated: 1
Layer: 2
SplineSet
190 669 m 1,0,1
 190 669 190 669 200 651 c 2,2,3
 210 633 210 633 214.5 624 c 128,-1,4
 219 615 219 615 230 591 c 128,-1,5
 241 567 241 567 247.5 548.5 c 128,-1,6
 254 530 254 530 263 500 c 128,-1,7
 272 470 272 470 277 442 c 128,-1,8
 282 414 282 414 285.5 378 c 128,-1,9
 289 342 289 342 289 305 c 0,10,11
 289 195 289 195 249 101 c 0,12,13
 216 21 216 21 169 -38.5 c 128,-1,14
 122 -98 122 -98 29 -180 c 1,15,-1
 16 -166 l 1,16,17
 62 -117 62 -117 88 -80 c 128,-1,18
 114 -43 114 -43 136 6 c 0,19,20
 173 86 173 86 196.5 196 c 128,-1,21
 220 306 220 306 220 401 c 0,22,23
 220 547 220 547 171 664 c 1,24,-1
 190 669 l 1,0,1
EndSplineSet
EndChar

StartChar: asterisk
Encoding: 42 42 11
Width: 499
Flags: W
HStem: 338 82<135.438 200.266 419.06 477.558> 501 81<141.442 200.24 416.982 479.105> 646 20G<303 318.5>
VStem: 272 75<266.345 365.293 545.609 654.654> 302 17<368.854 444.501 476 545.609>
LayerCount: 3
Fore
SplineSet
319 499 m 2xe8
 319 473 l 1
 362 502 368 505 417 561 c 0
 434 579 441 582 454 582 c 0
 476 582 492 567 492 545 c 0
 492 519 478 508 435 501 c 0
 388 494 371 486 328 458 c 1
 365 439 l 2
 379 432 403 425 431 420 c 0
 475 413 492 401 492 378 c 0
 492 356 475 338 454 338 c 0
 439 338 428 347 409 371 c 0
 382 403 359 423 327 442 c 1
 319 445 l 1xe8
 319 393 324 371 338 330 c 1
 346 311 347 303 347 294 c 0
 347 272 331 255 308 255 c 0
 289 255 272 271 272 293 c 0xf0
 272 302 275 313 283 334 c 0
 297 371 302 395 302 417 c 0
 302 422 302 429 300 445 c 1
 297 442 294 441 286 437 c 0
 253 417 240 404 212 371 c 0
 196 352 180 340 163 340 c 0
 144 340 127 357 127 376 c 0
 127 400 145 413 187 420 c 0
 233 428 250 435 294 461 c 1
 283 469 l 1
 258 483 226 494 189 499 c 1
 144 508 127 519 127 546 c 0
 127 565 144 582 163 582 c 0
 179 582 190 574 209 551 c 1
 242 516 262 498 300 476 c 1
 300 519 297 542 284 587 c 0
 277 608 275 617 275 625 c 0
 275 650 289 666 311 666 c 0
 331 666 346 650 346 627 c 0
 346 617 343 603 335 577 c 0
 324 543 319 521 319 499 c 2xe8
EndSplineSet
Validated: 1
Layer: 2
SplineSet
319 499 m 2,0,-1
 319 473 l 1,1,2
 345 491 345 491 354 497.5 c 128,-1,3
 363 504 363 504 377.5 518.5 c 128,-1,4
 392 533 392 533 417 561 c 0,5,6
 437 582 437 582 454 582 c 128,-1,7
 471 582 471 582 481.5 571.5 c 128,-1,8
 492 561 492 561 492 545 c 0,9,10
 492 525 492 525 479.5 515.5 c 128,-1,11
 467 506 467 506 435 501 c 0,12,13
 401 496 401 496 381 488 c 128,-1,14
 361 480 361 480 328 458 c 1,15,-1
 365 439 l 2,16,17
 387 428 387 428 431 420 c 0,18,19
 464 415 464 415 478 405 c 128,-1,20
 492 395 492 395 492 378 c 128,-1,21
 492 361 492 361 481 349.5 c 128,-1,22
 470 338 470 338 454 338 c 0,23,24
 435 338 435 338 409 371 c 0,25,26
 371 416 371 416 327 442 c 1,27,-1
 319 445 l 1,28,29
 319 386 319 386 338 330 c 0,30,31
 347 309 347 309 347 294 c 0,32,33
 347 277 347 277 336 266 c 128,-1,34
 325 255 325 255 308 255 c 0,35,36
 293 255 293 255 282.5 266 c 128,-1,37
 272 277 272 277 272 293 c 0,38,39
 272 305 272 305 283 334 c 0,40,41
 302 384 302 384 302 417 c 0,42,43
 302 429 302 429 300 445 c 1,44,45
 298 443 298 443 286 437 c 0,46,47
 249 415 249 415 212 371 c 0,48,49
 186 340 186 340 163 340 c 0,50,51
 149 340 149 340 138 351 c 128,-1,52
 127 362 127 362 127 376 c 0,53,54
 127 410 127 410 187 420 c 0,55,56
 240 429 240 429 294 461 c 1,57,-1
 283 469 l 1,58,59
 242 492 242 492 189 499 c 0,60,61
 155 506 155 506 141 516 c 128,-1,62
 127 526 127 526 127 546 c 0,63,64
 127 560 127 560 138 571 c 128,-1,65
 149 582 149 582 163 582 c 0,66,67
 183 582 183 582 209 551 c 0,68,69
 255 502 255 502 300 476 c 1,70,71
 300 532 300 532 284 587 c 0,72,73
 275 614 275 614 275 625 c 0,74,75
 275 644 275 644 285 655 c 128,-1,76
 295 666 295 666 311 666 c 0,77,78
 326 666 326 666 336 655 c 128,-1,79
 346 644 346 644 346 627 c 0,80,81
 346 613 346 613 335 577 c 0,82,83
 319 528 319 528 319 499 c 2,0,-1
EndSplineSet
EndChar

StartChar: plus
Encoding: 43 43 12
Width: 673
Flags: W
HStem: 0 21G<305 371> 220 66<86 305 371 590>
VStem: 305 66<0 220 286 505>
LayerCount: 3
Fore
SplineSet
305 286 m 1
 305 505 l 1
 371 505 l 1
 371 286 l 1
 590 286 l 1
 590 220 l 1
 371 220 l 1
 371 0 l 1
 305 0 l 1
 305 220 l 1
 86 220 l 1
 86 286 l 1
 305 286 l 1
EndSplineSet
Validated: 1
Layer: 2
SplineSet
305 286 m 1,0,-1
 305 505 l 1,1,-1
 371 505 l 1,2,-1
 371 286 l 1,3,-1
 590 286 l 1,4,-1
 590 220 l 1,5,-1
 371 220 l 1,6,-1
 371 0 l 1,7,-1
 305 0 l 1,8,-1
 305 220 l 1,9,-1
 86 220 l 1,10,-1
 86 286 l 1,11,-1
 305 286 l 1,0,-1
EndSplineSet
EndChar

StartChar: comma
Encoding: 44 44 13
Width: 249
Flags: W
HStem: -129 230
VStem: 70 65<-38.5752 44.5>
LayerCount: 3
Fore
SplineSet
4 -129 m 1
 -4 -111 l 1
 48 -78 70 -50 70 -23 c 0
 70 -13 66 -4 51 9 c 0
 32 26 26 37 26 54 c 0
 26 81 48 101 78 101 c 0
 110 101 135 70 135 29 c 0
 135 -26 89 -82 4 -129 c 1
EndSplineSet
Validated: 1
Layer: 2
SplineSet
4 -129 m 1,0,-1
 -4 -111 l 1,1,2
 70 -64 70 -64 70 -23 c 0,3,4
 70 -7 70 -7 51 9 c 0,5,6
 26 31 26 31 26 54 c 0,7,8
 26 74 26 74 41 87.5 c 128,-1,9
 56 101 56 101 78 101 c 0,10,11
 102 101 102 101 118.5 80.5 c 128,-1,12
 135 60 135 60 135 29 c 0,13,14
 135 -57 135 -57 4 -129 c 1,0,-1
EndSplineSet
EndChar

StartChar: hyphen
Encoding: 45 45 14
Width: 332
Flags: W
HStem: 192 63<63 270>
VStem: 48 235
LayerCount: 3
Fore
SplineSet
283 255 m 1
 270 192 l 1
 48 192 l 1
 63 255 l 1
 283 255 l 1
EndSplineSet
Validated: 1
Layer: 2
SplineSet
283 255 m 1,0,-1
 270 192 l 1,1,-1
 48 192 l 1,2,-1
 63 255 l 1,3,-1
 283 255 l 1,0,-1
EndSplineSet
EndChar

StartChar: period
Encoding: 46 46 15
Width: 249
Flags: W
HStem: -12 112<38.5549 125.445>
VStem: 26 112<0.691406 87.4451>
LayerCount: 3
Fore
SplineSet
82 100 m 0
 111 100 138 75 138 42 c 0
 138 13 111 -12 81 -12 c 0
 53 -12 26 15 26 42 c 0
 26 75 53 100 82 100 c 0
EndSplineSet
Validated: 1
Layer: 2
SplineSet
82 100 m 128,-1,1
 104 100 104 100 121 83 c 128,-1,2
 138 66 138 66 138 42 c 0,3,4
 138 20 138 20 121 4 c 128,-1,5
 104 -12 104 -12 81 -12 c 0,6,7
 60 -12 60 -12 43 5 c 128,-1,8
 26 22 26 22 26 42 c 0,9,10
 26 66 26 66 43 83 c 128,-1,0
 60 100 60 100 82 100 c 128,-1,1
EndSplineSet
EndChar

StartChar: slash
Encoding: 47 47 16
Width: 276
Flags: W
HStem: -18 21G<-64 18.1111> 646 20G<301.977 387>
DStem2: -64 -18 7 -18 0.485643 0.874157<34.4806 781.011>
LayerCount: 3
Fore
SplineSet
313 666 m 1
 387 666 l 1
 7 -18 l 1
 -64 -18 l 1
 313 666 l 1
EndSplineSet
Validated: 1
Layer: 2
SplineSet
313 666 m 1,0,-1
 387 666 l 1,1,-1
 7 -18 l 1,2,-1
 -64 -18 l 1,3,-1
 313 666 l 1,0,-1
EndSplineSet
EndChar

StartChar: zero
Encoding: 48 48 17
Width: 499
Flags: W
HStem: -7 28<154.088 243.797> 647 30<284.254 380.413>
VStem: 32 79<94.0918 314.983> 417 80<330.418 567.223>
LayerCount: 3
Fore
SplineSet
341 677 m 0
 438 677 497 582 497 423 c 0
 497 278 420 113 319 40 c 1
 278 7 236 -7 193 -7 c 0
 97 -7 32 81 32 212 c 0
 32 448 185 677 341 677 c 0
334 647 m 0
 290 647 250 617 215 554 c 0
 163 461 111 262 111 157 c 0
 111 70 144 21 196 21 c 0
 242 21 283 56 321 122 c 0
 378 223 417 388 417 521 c 0
 417 602 388 647 334 647 c 0
EndSplineSet
Validated: 1
Layer: 2
SplineSet
341 677 m 0,0,1
 414 677 414 677 455.5 609.5 c 128,-1,2
 497 542 497 542 497 423 c 0,3,4
 497 314 497 314 446 204.5 c 128,-1,5
 395 95 395 95 319 40 c 1,6,7
 261 -7 261 -7 193 -7 c 0,8,9
 121 -7 121 -7 76.5 53.5 c 128,-1,10
 32 114 32 114 32 212 c 0,11,12
 32 327 32 327 76.5 435.5 c 128,-1,13
 121 544 121 544 193 610.5 c 128,-1,14
 265 677 265 677 341 677 c 0,0,1
334 647 m 0,15,16
 267 647 267 647 215 554 c 0,17,18
 176 484 176 484 143.5 360 c 128,-1,19
 111 236 111 236 111 157 c 0,20,21
 111 92 111 92 134 56.5 c 128,-1,22
 157 21 157 21 196 21 c 0,23,24
 263 21 263 21 321 122 c 0,25,26
 364 197 364 197 390.5 309 c 128,-1,27
 417 421 417 421 417 521 c 0,28,29
 417 647 417 647 334 647 c 0,15,16
EndSplineSet
EndChar

StartChar: one
Encoding: 49 49 18
Width: 499
Flags: W
HStem: 0 15<48 104.019 261.756 328> 625 14<211 249.484> 657 20G<401 406.5>
VStem: 306 103<588.451 673>
DStem2: 161 67 253 100 0.267644 0.963518<2.83693 547.152>
LayerCount: 3
Fore
SplineSet
48 0 m 1
 48 15 l 1
 127 21 149 31 161 67 c 1
 299 560 l 2
 305 579 306 587 306 595 c 0
 306 614 291 625 268 625 c 2
 211 623 l 1
 211 639 l 1
 223 640 230 642 231 642 c 2
 322 661 l 1
 401 675 l 1
 401 677 404 677 404 677 c 1
 407 677 409 672 409 669 c 0
 409 664 407 655 403 640 c 2
 261 122 l 2
 258 114 258 111 253 100 c 1
 246 75 242 56 242 47 c 0
 242 25 264 15 312 15 c 2
 328 15 l 1
 328 0 l 1
 48 0 l 1
EndSplineSet
Validated: 1
Layer: 2
SplineSet
48 0 m 1,0,-1
 48 15 l 1,1,2
 107 20 107 20 129.5 30 c 128,-1,3
 152 40 152 40 161 67 c 2,4,-1
 299 560 l 2,5,6
 306 582 306 582 306 595 c 0,7,8
 306 625 306 625 268 625 c 2,9,-1
 211 623 l 1,10,-1
 211 639 l 1,11,12
 216 639 216 639 221 640 c 128,-1,13
 226 641 226 641 228.5 641.5 c 2,14,-1
 231 642 l 1,15,-1
 322 661 l 1,16,-1
 401 675 l 1,17,-1
 404 677 l 2,18,19
 409 677 409 677 409 669 c 0,20,21
 409 662 409 662 403 640 c 2,22,-1
 261 122 l 2,23,24
 260 120 260 120 258 113 c 128,-1,25
 256 106 256 106 253 100 c 0,26,27
 242 61 242 61 242 47 c 0,28,29
 242 15 242 15 312 15 c 2,30,-1
 328 15 l 1,31,-1
 328 0 l 1,32,-1
 48 0 l 1,0,-1
EndSplineSet
EndChar

StartChar: two
Encoding: 50 50 19
Width: 499
Flags: W
HStem: 0 76<111 360.854> 603 74<197.944 314.455>
VStem: 366 87<424.345 551.101>
DStem2: 12 18 111 81 0.685669 0.727914<113.74 495.464>
LayerCount: 3
Fore
SplineSet
400 139 m 1
 417 132 l 1
 368 0 l 1
 12 0 l 1
 12 18 l 1
 223 242 l 2
 289 311 333 374 357 428 c 0
 363 441 366 460 366 480 c 0
 366 551 312 603 242 603 c 0
 182 603 138 574 101 508 c 1
 81 516 l 1
 108 587 136 623 187 650 c 0
 217 666 255 677 290 677 c 0
 381 677 453 602 453 505 c 0
 453 439 420 390 303 272 c 1
 111 81 l 1
 111 76 l 1
 300 76 l 2
 354 76 376 89 400 139 c 1
EndSplineSet
Validated: 1
Layer: 2
SplineSet
400 139 m 1,0,-1
 417 132 l 1,1,-1
 368 0 l 1,2,-1
 12 0 l 1,3,-1
 12 18 l 1,4,-1
 223 242 l 2,5,6
 319 342 319 342 357 428 c 0,7,8
 366 448 366 448 366 480 c 0,9,10
 366 533 366 533 330.5 568 c 128,-1,11
 295 603 295 603 242 603 c 0,12,13
 154 603 154 603 101 508 c 1,14,-1
 81 516 l 1,15,16
 101 569 101 569 125 599.5 c 128,-1,17
 149 630 149 630 187 650 c 0,18,19
 238 677 238 677 290 677 c 0,20,21
 358 677 358 677 405.5 627.5 c 128,-1,22
 453 578 453 578 453 505 c 0,23,24
 453 456 453 456 422.5 408.5 c 128,-1,25
 392 361 392 361 303 272 c 2,26,-1
 111 81 l 1,27,-1
 111 76 l 1,28,-1
 300 76 l 2,29,30
 341 76 341 76 361.5 89 c 128,-1,31
 382 102 382 102 400 139 c 1,0,-1
EndSplineSet
EndChar

StartChar: three
Encoding: 51 51 20
Width: 499
Flags: W
HStem: -7 38<100.5 240.315> 360 16<141 176.84> 634 43<241.647 350.381>
VStem: 327 79<149.225 289.252> 379 87<478.666 605.417>
LayerCount: 3
Fore
SplineSet
179 567 m 1xe8
 163 573 l 1
 195 636 256 677 327 677 c 0xf0
 406 677 466 623 466 549 c 0xe8
 466 480 431 448 311 401 c 1
 311 398 l 1
 376 368 406 321 406 249 c 0
 406 160 356 76 277 29 c 0
 234 4 185 -7 127 -7 c 0
 56 -7 15 15 15 53 c 0
 15 78 31 91 59 91 c 0
 78 91 94 83 123 63 c 1
 152 41 176 31 195 31 c 0
 234 31 281 59 305 100 c 0
 318 123 327 160 327 195 c 0xf0
 327 274 293 330 231 350 c 1
 207 360 193 360 141 360 c 1
 141 376 l 1
 229 393 272 407 313 437 c 1
 357 464 379 501 379 543 c 0
 379 598 343 634 290 634 c 0
 248 634 212 612 179 567 c 1xe8
EndSplineSet
Validated: 1
Layer: 2
SplineSet
179 567 m 1,0,-1
 163 573 l 1,1,2
 187 621 187 621 230.5 649 c 128,-1,3
 274 677 274 677 327 677 c 0,4,5
 386 677 386 677 426 640.5 c 128,-1,6
 466 604 466 604 466 549 c 0,7,8
 466 498 466 498 434 467 c 128,-1,9
 402 436 402 436 311 401 c 1,10,-1
 311 398 l 1,11,12
 406 354 406 354 406 249 c 0,13,14
 406 182 406 182 371 123 c 128,-1,15
 336 64 336 64 277 29 c 0,16,17
 215 -7 215 -7 127 -7 c 0,18,19
 74 -7 74 -7 44.5 8.5 c 128,-1,20
 15 24 15 24 15 53 c 0,21,22
 15 91 15 91 59 91 c 0,23,24
 82 91 82 91 123 63 c 0,25,26
 165 31 165 31 195 31 c 128,-1,27
 225 31 225 31 256 50.5 c 128,-1,28
 287 70 287 70 305 100 c 0,29,30
 327 139 327 139 327 195 c 0,31,32
 327 254 327 254 302 294.5 c 128,-1,33
 277 335 277 335 231 350 c 0,34,35
 207 360 207 360 141 360 c 1,36,-1
 141 376 l 1,37,38
 261 399 261 399 313 437 c 1,39,40
 379 478 379 478 379 543 c 0,41,42
 379 584 379 584 354.5 609 c 128,-1,43
 330 634 330 634 290 634 c 0,44,45
 228 634 228 634 179 567 c 1,0,-1
EndSplineSet
EndChar

StartChar: four
Encoding: 52 52 21
Width: 499
Flags: W
HStem: 0 21G<214 298.114> 179 63<64 264 357 439> 657 20G<418.694 479>
VStem: 214 79<0 79>
DStem2: 21 245 64 245 0.694505 0.719488<29.8637 469.765> 214 0 293 0 0.264925 0.964269<20.9291 185.85 271.237 584.307>
LayerCount: 3
Fore
SplineSet
453 242 m 1
 439 176 l 1
 338 176 l 1
 293 0 l 1
 214 0 l 1
 264 179 l 1
 1 179 l 1
 21 245 l 1
 438 677 l 1
 479 677 l 1
 357 242 l 1
 453 242 l 1
277 242 m 1
 374 562 l 1
 369 562 l 1
 64 245 l 1
 64 242 l 1
 277 242 l 1
EndSplineSet
Validated: 1
Layer: 2
SplineSet
453 242 m 1,0,-1
 439 176 l 1,1,-1
 338 176 l 1,2,-1
 293 0 l 1,3,-1
 214 0 l 1,4,-1
 264 179 l 1,5,-1
 1 179 l 1,6,-1
 21 245 l 1,7,-1
 438 677 l 1,8,-1
 479 677 l 1,9,-1
 357 242 l 1,10,-1
 453 242 l 1,0,-1
277 242 m 1,11,-1
 374 562 l 1,12,-1
 369 562 l 1,13,-1
 64 245 l 1,14,-1
 64 242 l 1,15,-1
 277 242 l 1,11,-1
EndSplineSet
EndChar

StartChar: five
Encoding: 53 53 22
Width: 499
Flags: W
HStem: -7 42<97.5 235.671> 595 71<237 469>
VStem: 350 69<169.58 332.504>
DStem2: 130 448 199 507 0.430576 0.902554<82.9605 178.747>
LayerCount: 3
Fore
SplineSet
237 595 m 1
 199 507 l 1
 280 486 316 472 353 437 c 1
 395 395 419 341 419 280 c 0
 419 122 286 -7 122 -7 c 0
 56 -7 15 15 15 50 c 0
 15 75 32 89 56 89 c 0
 70 89 86 83 111 64 c 0
 141 42 158 35 179 35 c 0
 270 35 350 133 350 242 c 0
 350 294 330 346 297 371 c 1
 261 400 229 412 130 434 c 1
 130 448 l 1
 234 666 l 1
 491 666 l 1
 469 595 l 1
 237 595 l 1
EndSplineSet
Validated: 1
Layer: 2
SplineSet
237 595 m 1,0,-1
 199 507 l 1,1,2
 262 491 262 491 294 476.5 c 128,-1,3
 326 462 326 462 353 437 c 0,4,5
 419 371 419 371 419 280 c 0,6,7
 419 161 419 161 332 77 c 128,-1,8
 245 -7 245 -7 122 -7 c 0,9,10
 73 -7 73 -7 44 8.5 c 128,-1,11
 15 24 15 24 15 50 c 0,12,13
 15 68 15 68 26.5 78.5 c 128,-1,14
 38 89 38 89 56 89 c 0,15,16
 78 89 78 89 111 64 c 0,17,18
 151 35 151 35 179 35 c 0,19,20
 247 35 247 35 298.5 97.5 c 128,-1,21
 350 160 350 160 350 242 c 0,22,23
 350 282 350 282 335.5 317.5 c 128,-1,24
 321 353 321 353 297 371 c 0,25,26
 270 393 270 393 237 405 c 128,-1,27
 204 417 204 417 130 434 c 1,28,-1
 130 448 l 1,29,-1
 234 666 l 1,30,-1
 491 666 l 1,31,-1
 469 595 l 1,32,-1
 237 595 l 1,0,-1
EndSplineSet
EndChar

StartChar: six
Encoding: 54 54 23
Width: 499
Flags: W
HStem: -7 26<154.723 254.853> 412 35<212.628 322.576> 669 17<479.613 521>
VStem: 29 76<94.6028 284.087> 374 87<162.177 362.561>
LayerCount: 3
Fore
SplineSet
521 686 m 1
 521 669 l 1
 403 656 270 555 199 428 c 1
 204 426 l 1
 231 439 264 447 291 447 c 0
 391 447 461 374 461 271 c 0
 461 120 349 -7 212 -7 c 0
 103 -7 29 76 29 204 c 0
 29 347 107 489 234 583 c 0
 319 646 387 671 521 686 c 1
204 19 m 0
 311 19 374 177 374 284 c 0
 374 360 330 412 259 412 c 0
 212 412 180 391 152 346 c 1
 126 300 105 217 105 149 c 0
 105 67 142 19 204 19 c 0
EndSplineSet
Validated: 1
Layer: 2
SplineSet
521 686 m 1,0,-1
 521 669 l 1,1,2
 433 659 433 659 342.5 591.5 c 128,-1,3
 252 524 252 524 199 428 c 1,4,-1
 204 426 l 1,5,6
 248 447 248 447 291 447 c 0,7,8
 366 447 366 447 413.5 397.5 c 128,-1,9
 461 348 461 348 461 271 c 0,10,11
 461 157 461 157 387.5 75 c 128,-1,12
 314 -7 314 -7 212 -7 c 0,13,14
 130 -7 130 -7 79.5 50.5 c 128,-1,15
 29 108 29 108 29 204 c 0,16,17
 29 311 29 311 83.5 411.5 c 128,-1,18
 138 512 138 512 234 583 c 0,19,20
 298 630 298 630 359.5 652.5 c 128,-1,21
 421 675 421 675 521 686 c 1,0,-1
204 19 m 0,22,23
 254 19 254 19 294.5 63.5 c 128,-1,24
 335 108 335 108 354.5 168 c 128,-1,25
 374 228 374 228 374 284 c 0,26,27
 374 342 374 342 343 377 c 128,-1,28
 312 412 312 412 259 412 c 0,29,30
 193 412 193 412 152 346 c 0,31,32
 132 311 132 311 118.5 255 c 128,-1,33
 105 199 105 199 105 149 c 0,34,35
 105 88 105 88 131 53.5 c 128,-1,36
 157 19 157 19 204 19 c 0,22,23
EndSplineSet
EndChar

StartChar: seven
Encoding: 55 55 24
Width: 499
Flags: W
HStem: -7 21G<79 160.735> 593 73<157 444>
VStem: 79 70<-7 63>
LayerCount: 3
Fore
SplineSet
538 656 m 1
 149 -7 l 1
 79 -7 l 1
 445 590 l 1
 444 593 l 1
 223 593 l 2
 164 593 138 579 89 521 c 1
 75 530 l 1
 157 666 l 1
 532 666 l 1
 538 656 l 1
EndSplineSet
Validated: 1
Layer: 2
SplineSet
538 656 m 1,0,-1
 149 -7 l 1,1,-1
 79 -7 l 1,2,-1
 445 590 l 1,3,-1
 444 593 l 1,4,-1
 223 593 l 2,5,6
 179 593 179 593 152.5 579 c 128,-1,7
 126 565 126 565 89 521 c 1,8,-1
 75 530 l 1,9,-1
 157 666 l 1,10,-1
 532 666 l 1,11,-1
 538 656 l 1,0,-1
EndSplineSet
EndChar

StartChar: eight
Encoding: 56 56 25
Width: 499
Flags: W
HStem: -7 22<177.626 286.926> 653 24<266.608 368.873>
VStem: 29 69<83.0789 239.054> 138 77<477.018 603.447> 369 75<90.6765 229.79> 425 69<465.531 606.676>
DStem2: 311 398 248 344 0.680451 -0.732793<-163.665 -29.9922 -11.133 5.37847 24.6533 193.773>
LayerCount: 3
Fore
SplineSet
330 382 m 1xf4
 415 294 444 240 444 173 c 0xf8
 444 70 352 -7 229 -7 c 0
 146 -7 86 22 53 79 c 0
 38 104 29 133 29 161 c 0
 29 249 100 319 226 360 c 1
 160 434 138 472 138 526 c 0
 138 615 211 677 318 677 c 0
 420 677 494 617 494 535 c 0
 494 464 447 420 330 382 c 1xf4
248 344 m 1
 160 312 98 239 98 155 c 0
 98 75 154 15 233 15 c 0
 311 15 369 75 369 155 c 0
 369 211 357 229 248 344 c 1
311 398 m 1
 335 412 335 412 344 415 c 1
 400 444 425 482 425 535 c 0xf4
 425 605 382 653 318 653 c 0
 255 653 215 609 215 541 c 0
 215 498 233 472 311 398 c 1
EndSplineSet
Validated: 1
Layer: 2
SplineSet
330 382 m 1,0,1
 394 316 394 316 419 269.5 c 128,-1,2
 444 223 444 223 444 173 c 0,3,4
 444 96 444 96 382.5 44.5 c 128,-1,5
 321 -7 321 -7 229 -7 c 0,6,7
 103 -7 103 -7 53 79 c 0,8,9
 29 119 29 119 29 161 c 0,10,11
 29 227 29 227 80 278 c 128,-1,12
 131 329 131 329 226 360 c 1,13,14
 176 417 176 417 157 451.5 c 128,-1,15
 138 486 138 486 138 526 c 0,16,17
 138 593 138 593 188 635 c 128,-1,18
 238 677 238 677 318 677 c 0,19,20
 394 677 394 677 444 637 c 128,-1,21
 494 597 494 597 494 535 c 0,22,23
 494 482 494 482 456 446 c 128,-1,24
 418 410 418 410 330 382 c 1,0,1
248 344 m 1,25,26
 181 320 181 320 139.5 268.5 c 128,-1,27
 98 217 98 217 98 155 c 0,28,29
 98 95 98 95 136 55 c 128,-1,30
 174 15 174 15 233 15 c 0,31,32
 291 15 291 15 330 55 c 128,-1,33
 369 95 369 95 369 155 c 0,34,35
 369 197 369 197 349.5 227 c 128,-1,36
 330 257 330 257 248 344 c 1,25,26
311 398 m 1,37,38
 335 412 335 412 344 415 c 0,39,40
 425 457 425 457 425 535 c 0,41,42
 425 588 425 588 395.5 620.5 c 128,-1,43
 366 653 366 653 318 653 c 0,44,45
 271 653 271 653 243 622.5 c 128,-1,46
 215 592 215 592 215 541 c 0,47,48
 215 509 215 509 233.5 481.5 c 128,-1,49
 252 454 252 454 311 398 c 1,37,38
EndSplineSet
EndChar

StartChar: nine
Encoding: 57 57 26
Width: 499
Flags: W
HStem: -18 19<23 58.8887> 229 46<197.024 304.886> 650 27<261.765 366.281>
VStem: 69 88<319.335 513.784> 417 75<379.835 571.234>
LayerCount: 3
Fore
SplineSet
23 -18 m 1
 23 1 l 1
 103 18 152 44 224 105 c 1
 286 163 335 227 352 272 c 1
 349 274 l 1
 296 242 261 229 220 229 c 0
 130 229 69 305 69 409 c 0
 69 548 185 677 311 677 c 0
 420 677 492 589 492 458 c 0
 492 324 423 189 308 98 c 0
 226 34 158 6 23 -18 c 1
318 650 m 0
 284 650 253 637 229 612 c 0
 186 568 157 488 157 415 c 0
 157 327 193 275 256 275 c 0
 294 275 335 291 362 318 c 1
 393 347 417 439 417 519 c 0
 417 601 379 650 318 650 c 0
EndSplineSet
Validated: 1
Layer: 2
SplineSet
23 -18 m 1,0,-1
 23 1 l 1,1,2
 83 14 83 14 126.5 36.5 c 128,-1,3
 170 59 170 59 224 105 c 0,4,5
 324 199 324 199 352 272 c 1,6,-1
 349 274 l 1,7,8
 274 229 274 229 220 229 c 0,9,10
 153 229 153 229 111 279.5 c 128,-1,11
 69 330 69 330 69 409 c 0,12,13
 69 513 69 513 143 595 c 128,-1,14
 217 677 217 677 311 677 c 0,15,16
 393 677 393 677 442.5 616.5 c 128,-1,17
 492 556 492 556 492 458 c 0,18,19
 492 358 492 358 443 262 c 128,-1,20
 394 166 394 166 308 98 c 0,21,22
 246 50 246 50 185 25 c 128,-1,23
 124 -0 124 -0 23 -18 c 1,0,-1
318 650 m 0,24,25
 265 650 265 650 229 612 c 0,26,27
 197 579 197 579 177 524.5 c 128,-1,28
 157 470 157 470 157 415 c 0,29,30
 157 349 157 349 183 312 c 128,-1,31
 209 275 209 275 256 275 c 0,32,33
 319 275 319 275 362 318 c 0,34,35
 385 339 385 339 401 398.5 c 128,-1,36
 417 458 417 458 417 519 c 128,-1,37
 417 580 417 580 390.5 615 c 128,-1,38
 364 650 364 650 318 650 c 0,24,25
EndSplineSet
EndChar

StartChar: colon
Encoding: 58 58 27
Width: 332
Flags: W
HStem: -12 112<66.5017 143.983> 330 111<166.017 243.983>
VStem: 50 111<4.50146 82.9823> 149 112<346.501 423.983>
LayerCount: 3
Fore
SplineSet
105 100 m 0xe0
 136 100 161 75 161 42 c 0
 161 13 136 -12 104 -12 c 0
 75 -12 50 15 50 42 c 0
 50 75 75 100 105 100 c 0xe0
205 441 m 0
 236 441 261 416 261 384 c 0
 261 354 236 330 204 330 c 0
 174 330 149 354 149 384 c 0xd0
 149 416 174 441 205 441 c 0
EndSplineSet
Validated: 1
Layer: 2
SplineSet
105 100 m 128,-1,1
 128 100 128 100 144.5 83.5 c 128,-1,2
 161 67 161 67 161 42 c 0,3,4
 161 20 161 20 144.5 4 c 128,-1,5
 128 -12 128 -12 104 -12 c 0,6,7
 83 -12 83 -12 66.5 4.5 c 128,-1,8
 50 21 50 21 50 42 c 0,9,10
 50 67 50 67 66 83.5 c 128,-1,0
 82 100 82 100 105 100 c 128,-1,1
205 441 m 128,-1,12
 228 441 228 441 244.5 424.5 c 128,-1,13
 261 408 261 408 261 384 c 0,14,15
 261 361 261 361 244.5 345.5 c 128,-1,16
 228 330 228 330 204 330 c 0,17,18
 181 330 181 330 165 346 c 128,-1,19
 149 362 149 362 149 384 c 0,20,21
 149 408 149 408 165.5 424.5 c 128,-1,11
 182 441 182 441 205 441 c 128,-1,12
EndSplineSet
EndChar

StartChar: semicolon
Encoding: 59 59 28
Width: 332
Flags: W
HStem: 330 111<166.017 243.983>
VStem: 103 63<-38.1816 44.5> 149 112<346.501 423.983>
LayerCount: 3
Fore
SplineSet
37 -129 m 1xc0
 26 -111 l 1
 79 -78 103 -50 103 -23 c 0
 103 -13 97 -4 82 9 c 0
 63 26 57 37 57 54 c 0
 57 81 79 101 108 101 c 0
 141 101 166 70 166 29 c 0
 166 -26 120 -82 37 -129 c 1xc0
205 441 m 0
 236 441 261 416 261 384 c 0
 261 354 236 330 204 330 c 0
 174 330 149 354 149 384 c 0xa0
 149 416 174 441 205 441 c 0
EndSplineSet
Validated: 1
Layer: 2
SplineSet
37 -129 m 1,0,-1
 26 -111 l 1,1,2
 103 -63 103 -63 103 -23 c 0,3,4
 103 -9 103 -9 82 9 c 0,5,6
 57 31 57 31 57 54 c 0,7,8
 57 74 57 74 71.5 87.5 c 128,-1,9
 86 101 86 101 108 101 c 0,10,11
 133 101 133 101 149.5 80.5 c 128,-1,12
 166 60 166 60 166 29 c 0,13,14
 166 -56 166 -56 37 -129 c 1,0,-1
205 441 m 128,-1,16
 228 441 228 441 244.5 424.5 c 128,-1,17
 261 408 261 408 261 384 c 0,18,19
 261 361 261 361 244.5 345.5 c 128,-1,20
 228 330 228 330 204 330 c 0,21,22
 181 330 181 330 165 346 c 128,-1,23
 149 362 149 362 149 384 c 0,24,25
 149 408 149 408 165.5 424.5 c 128,-1,15
 182 441 182 441 205 441 c 128,-1,16
EndSplineSet
EndChar

StartChar: less
Encoding: 60 60 29
Width: 673
Flags: W
HStem: -10 21G<547.739 592>
VStem: 83 88<176 330>
DStem2: 83 286 171 253 0.911284 0.411779<66.6043 528.905> 171 253 83 220 0.911284 -0.411779<0 462.3>
LayerCount: 3
Fore
SplineSet
592 -10 m 1
 83 220 l 1
 83 286 l 1
 592 516 l 1
 592 444 l 1
 171 253 l 1
 592 62 l 1
 592 -10 l 1
EndSplineSet
Validated: 1
Layer: 2
SplineSet
592 -10 m 1,0,-1
 83 220 l 1,1,-1
 83 286 l 1,2,-1
 592 516 l 1,3,-1
 592 444 l 1,4,-1
 171 253 l 1,5,-1
 592 62 l 1,6,-1
 592 -10 l 1,0,-1
EndSplineSet
EndChar

StartChar: equal
Encoding: 61 61 30
Width: 673
Flags: W
HStem: 120 66<86 590> 319 68<86 590>
LayerCount: 3
Fore
SplineSet
590 387 m 1
 590 319 l 1
 86 319 l 1
 86 387 l 1
 590 387 l 1
590 186 m 1
 590 120 l 1
 86 120 l 1
 86 186 l 1
 590 186 l 1
EndSplineSet
Validated: 1
Layer: 2
SplineSet
590 387 m 1,0,-1
 590 319 l 1,1,-1
 86 319 l 1,2,-1
 86 387 l 1,3,-1
 590 387 l 1,0,-1
590 186 m 1,4,-1
 590 120 l 1,5,-1
 86 120 l 1,6,-1
 86 186 l 1,7,-1
 590 186 l 1,4,-1
EndSplineSet
EndChar

StartChar: greater
Encoding: 62 62 31
Width: 673
Flags: W
HStem: -10 21G<83 127.261>
VStem: 504 88<176 330>
DStem2: 83 516 83 444 0.911284 -0.411779<29.6481 491.948> 83 62 83 -10 0.911284 0.411779<0 462.3>
LayerCount: 3
Fore
SplineSet
83 -10 m 1
 83 62 l 1
 504 253 l 1
 83 444 l 1
 83 516 l 1
 592 286 l 1
 592 220 l 1
 83 -10 l 1
EndSplineSet
Validated: 1
Layer: 2
SplineSet
83 -10 m 1,0,-1
 83 62 l 1,1,-1
 504 253 l 1,2,-1
 83 444 l 1,3,-1
 83 516 l 1,4,-1
 592 286 l 1,5,-1
 592 220 l 1,6,-1
 83 -10 l 1,0,-1
EndSplineSet
EndChar

StartChar: question
Encoding: 63 63 32
Width: 499
Flags: W
HStem: -12 104<147.986 225.965> 642 22<269.438 362.239>
VStem: 132 105<3.98572 76.5295> 185 63<526.095 617.794> 199 16<175.125 200.25> 398 74<476.808 607.933>
LayerCount: 3
Fore
SplineSet
215 174 m 1xd8
 199 176 l 1
 215 275 229 297 311 393 c 1
 376 463 398 505 398 557 c 0
 398 611 369 642 318 642 c 0
 275 642 248 624 248 595 c 0
 248 586 250 580 256 567 c 0
 261 555 264 549 264 542 c 0
 264 521 246 507 223 507 c 0
 199 507 185 524 185 555 c 0
 185 620 242 664 324 664 c 0
 413 664 472 612 472 535 c 0
 472 475 453 447 338 354 c 0
 267 297 237 259 223 204 c 2
 215 174 l 1xd8
185 92 m 0
 212 92 237 69 237 40 c 0xe8
 237 13 212 -12 185 -12 c 0xd8
 155 -12 132 12 132 40 c 0xe8
 132 69 155 92 185 92 c 0
EndSplineSet
Validated: 1
Layer: 2
SplineSet
215 174 m 1,0,-1
 199 176 l 1,1,2
 211 249 211 249 229.5 284 c 128,-1,3
 248 319 248 319 311 393 c 0,4,5
 360 445 360 445 379 481.5 c 128,-1,6
 398 518 398 518 398 557 c 0,7,8
 398 598 398 598 377 620 c 128,-1,9
 356 642 356 642 318 642 c 0,10,11
 286 642 286 642 267 629.5 c 128,-1,12
 248 617 248 617 248 595 c 0,13,14
 248 584 248 584 256 567 c 0,15,16
 264 548 264 548 264 542 c 0,17,18
 264 526 264 526 252.5 516.5 c 128,-1,19
 241 507 241 507 223 507 c 0,20,21
 185 507 185 507 185 555 c 0,22,23
 185 604 185 604 223.5 634 c 128,-1,24
 262 664 262 664 324 664 c 0,25,26
 391 664 391 664 431.5 628.5 c 128,-1,27
 472 593 472 593 472 535 c 0,28,29
 472 489 472 489 447.5 456 c 128,-1,30
 423 423 423 423 338 354 c 0,31,32
 284 311 284 311 258.5 278 c 128,-1,33
 233 245 233 245 223 204 c 2,34,-1
 215 174 l 1,0,-1
185 92 m 0,35,36
 206 92 206 92 221.5 76.5 c 128,-1,37
 237 61 237 61 237 40 c 0,38,39
 237 20 237 20 221 4 c 128,-1,40
 205 -12 205 -12 185 -12 c 0,41,42
 163 -12 163 -12 147.5 3.5 c 128,-1,43
 132 19 132 19 132 40 c 0,44,45
 132 62 132 62 147.5 77 c 128,-1,46
 163 92 163 92 185 92 c 0,35,36
EndSplineSet
EndChar

StartChar: at
Encoding: 64 64 33
Width: 919
Flags: W
HStem: -18 39<381.58 602.534> 138 33<603.704 686.43> 139 43<390.494 478.593> 456 43<468.939 560.256> 636 30<390.997 573.22>
VStem: 119 82<199.621 441.423> 321 72<200.901 357.901> 570 28<212 403> 766 40<270.798 466.093>
LayerCount: 3
Fore
SplineSet
321 250 m 0xbf80
 321 357 396 499 516 499 c 0
 551 499 565 491 587 450 c 1
 598 486 l 1
 666 486 l 1
 601 234 l 2
 599 227 598 218 598 212 c 0
 598 186 611 171 636 171 c 0
 709 171 766 274 766 368 c 0
 766 513 637 636 480 636 c 0
 318 636 201 499 201 313 c 0
 201 142 324 21 494 21 c 0
 560 21 608 34 686 67 c 1
 699 40 l 1
 603 -4 554 -18 482 -18 c 0
 278 -18 119 130 119 319 c 0
 119 513 278 666 480 666 c 0
 664 666 806 539 806 376 c 0
 806 248 721 138 623 138 c 0xdf80
 576 138 539 167 533 209 c 1
 497 166 453 139 410 139 c 0
 360 139 321 187 321 250 c 0xbf80
570 403 m 0
 570 436 555 456 527 456 c 0
 451 456 393 346 393 265 c 0
 393 212 415 182 451 182 c 0xbf80
 506 182 570 287 570 403 c 0
EndSplineSet
Validated: 1
Layer: 2
SplineSet
321 250 m 0,0,1
 321 339 321 339 376.5 419 c 128,-1,2
 432 499 432 499 516 499 c 0,3,4
 543 499 543 499 557 489.5 c 128,-1,5
 571 480 571 480 587 450 c 1,6,-1
 598 486 l 1,7,-1
 666 486 l 1,8,-1
 601 234 l 2,9,10
 598 224 598 224 598 212 c 0,11,12
 598 171 598 171 636 171 c 0,13,14
 689 171 689 171 727.5 233 c 128,-1,15
 766 295 766 295 766 368 c 0,16,17
 766 477 766 477 681.5 556.5 c 128,-1,18
 597 636 597 636 480 636 c 0,19,20
 359 636 359 636 280 544.5 c 128,-1,21
 201 453 201 453 201 313 c 0,22,23
 201 185 201 185 283.5 103 c 128,-1,24
 366 21 366 21 494 21 c 0,25,26
 577 21 577 21 686 67 c 1,27,-1
 699 40 l 1,28,29
 626 7 626 7 580.5 -5.5 c 128,-1,30
 535 -18 535 -18 482 -18 c 0,31,32
 329 -18 329 -18 224 79.5 c 128,-1,33
 119 177 119 177 119 319 c 0,34,35
 119 465 119 465 224 565.5 c 128,-1,36
 329 666 329 666 480 666 c 0,37,38
 618 666 618 666 712 582 c 128,-1,39
 806 498 806 498 806 376 c 0,40,41
 806 280 806 280 751.5 209 c 128,-1,42
 697 138 697 138 623 138 c 0,43,44
 588 138 588 138 562.5 158 c 128,-1,45
 537 178 537 178 533 209 c 1,46,47
 474 139 474 139 410 139 c 0,48,49
 372 139 372 139 346.5 171 c 128,-1,50
 321 203 321 203 321 250 c 0,0,1
570 403 m 0,51,52
 570 456 570 456 527 456 c 0,53,54
 473 456 473 456 433 393.5 c 128,-1,55
 393 331 393 331 393 265 c 0,56,57
 393 226 393 226 408.5 204 c 128,-1,58
 424 182 424 182 451 182 c 0,59,60
 494 182 494 182 532 250 c 128,-1,61
 570 318 570 318 570 403 c 0,51,52
EndSplineSet
EndChar

StartChar: A
Encoding: 65 65 34
Width: 610
Flags: W
HStem: 0 16<-51 -28.0441 92.2646 136 318 366.573 524.809 564> 226 36<174 369>
DStem2: 78 168 174 262 0.501718 0.865031<129.478 429.28> 394 668 325 521 0.164116 -0.986441<133.683 396.392 432.725 590.52>
LayerCount: 3
Fore
SplineSet
564 16 m 1
 564 0 l 1
 318 0 l 1
 318 16 l 1
 382 22 395 31 395 69 c 0
 395 78 395 86 394 95 c 2
 374 226 l 1
 154 226 l 1
 97 113 l 1
 81 79 78 70 78 51 c 0
 78 26 85 21 136 16 c 1
 136 0 l 1
 -51 0 l 1
 -51 16 l 1
 -12 23 -1 35 78 168 c 1
 368 668 l 1
 394 668 l 1
 488 103 l 2
 501 29 507 21 564 16 c 1
174 262 m 1
 369 262 l 1
 325 521 l 1
 174 262 l 1
EndSplineSet
Validated: 1
Layer: 2
SplineSet
564 16 m 1,0,-1
 564 0 l 1,1,-1
 318 0 l 1,2,-1
 318 16 l 1,3,4
 366 20 366 20 380.5 30 c 128,-1,5
 395 40 395 40 395 69 c 0,6,7
 395 86 395 86 394 95 c 2,8,-1
 374 226 l 1,9,-1
 154 226 l 1,10,-1
 97 113 l 2,11,12
 78 73 78 73 78 51 c 0,13,14
 78 32 78 32 88 26 c 128,-1,15
 98 20 98 20 136 16 c 1,16,-1
 136 0 l 1,17,-1
 -51 0 l 1,18,-1
 -51 16 l 1,19,20
 -22 21 -22 21 -1.5 45 c 128,-1,21
 19 69 19 69 78 168 c 2,22,-1
 368 668 l 1,23,-1
 394 668 l 1,24,-1
 488 103 l 2,25,26
 498 47 498 47 509.5 33.5 c 128,-1,27
 521 20 521 20 564 16 c 1,0,-1
174 262 m 1,28,-1
 369 262 l 1,29,-1
 325 521 l 1,30,-1
 174 262 l 1,28,-1
EndSplineSet
EndChar

StartChar: B
Encoding: 66 66 35
Width: 610
Flags: W
HStem: 0 29<182.213 322.812> 0 16<-7 25.0055> 331 32<248 364.077> 623 30<329.864 441.54> 637 16<130 178.711>
VStem: 431 108<113.849 279.605> 486 101<432.169 584.547>
DStem2: 73 89 209 219.5 0.267532 0.963549<10.2058 283.202 310.83 523.464>
LayerCount: 3
Fore
SplineSet
413 352 m 1x32
 474 326 539 292 539 201 c 0
 539 82 431 0 274 0 c 2xb4
 -7 0 l 1
 -7 16 l 1
 48 26 56 32 73 89 c 1
 196 532 l 1
 204 557 207 582 207 596 c 0
 207 624 192 631 130 637 c 1
 130 653 l 1x6c
 388 653 l 2
 517 653 587 601 587 505 c 0
 587 383 450 360 413 352 c 1x32
237 331 m 1
 211 209 171 101 171 72 c 0
 171 45 193 29 234 29 c 0
 357 29 431 97 431 204 c 0
 431 258 406 302 365 319 c 0
 346 327 303 331 237 331 c 1
313 595 m 2
 248 363 l 1
 338 363 387 371 420 390 c 0
 463 415 486 458 486 516 c 0x32
 486 589 450 623 371 623 c 0
 331 623 319 617 313 595 c 2
EndSplineSet
Validated: 1
Layer: 2
SplineSet
413 352 m 1,0,1
 441 340 441 340 459.5 329.5 c 128,-1,2
 478 319 478 319 498 301.5 c 128,-1,3
 518 284 518 284 528.5 258.5 c 128,-1,4
 539 233 539 233 539 201 c 0,5,6
 539 112 539 112 465.5 56 c 128,-1,7
 392 0 392 0 274 0 c 2,8,-1
 -7 0 l 1,9,-1
 -7 16 l 1,10,11
 35 24 35 24 47.5 35.5 c 128,-1,12
 60 47 60 47 73 89 c 2,13,-1
 196 532 l 2,14,15
 207 566 207 566 207 596 c 0,16,17
 207 617 207 617 192 624.5 c 128,-1,18
 177 632 177 632 130 637 c 1,19,-1
 130 653 l 1,20,-1
 388 653 l 2,21,22
 485 653 485 653 536 615 c 128,-1,23
 587 577 587 577 587 505 c 0,24,25
 587 388 587 388 418.482325781 353.158163014 c 0,26,27
 415 352 415 352 413 352 c 1,0,1
237 331 m 1,28,29
 226 280 226 280 209 219.5 c 128,-1,30
 192 159 192 159 181.5 121.5 c 128,-1,31
 171 84 171 84 171 72 c 0,32,33
 171 29 171 29 234 29 c 0,34,35
 326 29 326 29 378.5 76 c 128,-1,36
 431 123 431 123 431 204 c 0,37,38
 431 245 431 245 413.5 275.5 c 128,-1,39
 396 306 396 306 365 319 c 0,40,41
 336 331 336 331 237 331 c 1,28,29
313 595 m 2,42,-1
 248 363 l 1,43,44
 373 363 373 363 420 390 c 0,45,46
 486 428 486 428 486 516 c 0,47,48
 486 571 486 571 458 597 c 128,-1,49
 430 623 430 623 371 623 c 0,50,51
 341 623 341 623 329.5 617.5 c 128,-1,52
 318 612 318 612 313 595 c 2,42,-1
EndSplineSet
EndChar

StartChar: C
Encoding: 67 67 36
Width: 666
Flags: W
HStem: -18 44<263.159 440.285> 630 36<391.837 558.215>
VStem: 66 113<130.376 372.161> 634 18<469 502.889>
LayerCount: 3
Fore
SplineSet
472 666 m 0
 547 666 602 642 630 642 c 0
 650 642 661 647 668 664 c 1
 688 664 l 1
 652 464 l 1
 634 469 l 1
 624 576 573 630 480 630 c 0
 288 630 179 407 179 231 c 0
 179 103 242 26 353 26 c 0
 435 26 494 57 583 145 c 1
 601 130 l 1
 510 26 431 -18 327 -18 c 0
 174 -18 66 89 66 243 c 0
 66 464 259 666 472 666 c 0
EndSplineSet
Validated: 1
Layer: 2
SplineSet
472 666 m 0,0,1
 515 666 515 666 568.5 654 c 128,-1,2
 622 642 622 642 630 642 c 0,3,4
 659 642 659 642 668 664 c 1,5,-1
 688 664 l 1,6,-1
 652 464 l 1,7,-1
 634 469 l 1,8,9
 619 630 619 630 480 630 c 0,10,11
 389 630 389 630 318 566 c 128,-1,12
 247 502 247 502 213 412.5 c 128,-1,13
 179 323 179 323 179 231 c 0,14,15
 179 134 179 134 224.5 80 c 128,-1,16
 270 26 270 26 353 26 c 0,17,18
 414 26 414 26 465 52.5 c 128,-1,19
 516 79 516 79 583 145 c 1,20,-1
 601 130 l 1,21,22
 532 52 532 52 468.5 17 c 128,-1,23
 405 -18 405 -18 327 -18 c 0,24,25
 212 -18 212 -18 139 55 c 128,-1,26
 66 128 66 128 66 243 c 0,27,28
 66 351 66 351 122.5 449.5 c 128,-1,29
 179 548 179 548 273.5 607 c 128,-1,30
 368 666 368 666 472 666 c 0,0,1
EndSplineSet
EndChar

StartChar: D
Encoding: 68 68 37
Width: 720
Flags: W
HStem: 0 29<179.766 345.652> 0 16<-7 25.0055> 623 30<330.926 468.377> 637 16<130 179.609>
VStem: 589 111<273.295 498.294>
DStem2: 196 532 313 595 0.267532 0.963549<-454.3 63.705>
LayerCount: 3
Fore
SplineSet
130 637 m 1x58
 130 653 l 1x58
 409 653 l 2
 586 653 700 548 700 384 c 0
 700 268 643 158 546 86 c 1
 469 31 362 0 245 0 c 2xa8
 -7 0 l 1
 -7 16 l 1
 48 26 56 32 73 89 c 1
 196 532 l 1
 204 557 207 582 207 596 c 0
 207 623 192 631 130 637 c 1x58
313 595 m 2
 192 163 l 1
 174 103 170 81 170 67 c 0
 170 41 189 29 234 29 c 0
 338 29 420 60 479 120 c 0
 546 187 589 300 589 409 c 0
 589 486 562 549 513 586 c 1
 480 609 431 623 374 623 c 0xa8
 334 623 319 617 313 595 c 2
EndSplineSet
Validated: 1
Layer: 2
SplineSet
130 637 m 1,0,-1
 130 653 l 1,1,-1
 409 653 l 2,2,3
 542 653 542 653 621 580 c 128,-1,4
 700 507 700 507 700 384 c 0,5,6
 700 297 700 297 659.5 218.5 c 128,-1,7
 619 140 619 140 546 86 c 0,8,9
 426 0 426 0 245 0 c 2,10,-1
 -7 0 l 1,11,-1
 -7 16 l 1,12,13
 35 24 35 24 47.5 35.5 c 128,-1,14
 60 47 60 47 73 89 c 2,15,-1
 196 532 l 2,16,17
 207 566 207 566 207 596 c 0,18,19
 207 616 207 616 191.5 624.5 c 128,-1,20
 176 633 176 633 130 637 c 1,0,-1
313 595 m 2,21,-1
 192 163 l 2,22,23
 170 90 170 90 170 67 c 0,24,25
 170 29 170 29 234 29 c 0,26,27
 390 29 390 29 479 120 c 0,28,29
 529 170 529 170 559 248.5 c 128,-1,30
 589 327 589 327 589 409 c 0,31,32
 589 529 589 529 513 586 c 0,33,34
 460 623 460 623 374 623 c 0,35,36
 344 623 344 623 330.5 617 c 128,-1,37
 317 611 317 611 313 595 c 2,21,-1
EndSplineSet
EndChar

StartChar: E
Encoding: 69 69 38
Width: 610
Flags: W
HStem: 0 34<195.599 411.646> 0 16<-1 32.8835> 328 32<253 388.43> 620 33<336.414 551.48> 637 16<138 185.024>
VStem: 400 20<225.6 246.779> 582 21<501 533.774>
DStem2: 81 89 185 105 0.263784 0.964582<3.99653 279.426 306.772 523.458>
LayerCount: 3
Back
SplineSet
256 34 m 0xb7
 437 34 479 69 552 170 c 1
 568 163 l 1
 505 0 l 1
 -1 0 l 1
 -1 16 l 1
 56 26 63 34 81 89 c 1
 204 532 l 2
 208 549 214 584 214 596 c 0
 214 623 199 631 138 637 c 1
 138 653 l 1
 634 653 l 1x6f
 603 499 l 1
 582 502 l 1
 583 519 584 535 584 546 c 0
 584 606 549 620 393 620 c 0
 335 620 325 617 319 595 c 2
 253 360 l 1
 289 362 319 363 333 363 c 0
 423 368 432 374 470 458 c 1
 488 454 l 1
 420 223 l 1
 400 227 l 1
 404 249 407 262 407 278 c 0
 407 296 404 305 400 311 c 1
 390 319 360 327 322 325 c 4
 311 325 278 327 245 328 c 1
 185 105 l 2
 179 83 176 78 176 67 c 0
 176 42 201 34 256 34 c 0xb7
EndSplineSet
Fore
SplineSet
256 34 m 0xb7
 437 34 479 69 552 170 c 1
 568 163 l 1
 505 0 l 1
 -1 0 l 1
 -1 16 l 1
 56 26 63 34 81 89 c 1
 204 532 l 2
 208 549 214 584 214 596 c 0
 214 623 199 631 138 637 c 1
 138 653 l 1
 634 653 l 1x6f
 603 499 l 1
 582 502 l 1
 583 519 584 535 584 546 c 0
 584 606 549 620 393 620 c 0
 335 620 325 617 319 595 c 2
 253 360 l 1
 289 362 319 363 333 363 c 0
 423 368 432 374 470 458 c 1
 488 454 l 1
 420 223 l 1
 400 227 l 1
 404 249 407 262 407 278 c 0
 407 323 380 325 322 325 c 0
 311 325 278 327 245 328 c 1
 185 105 l 2
 179 83 176 78 176 67 c 0
 176 42 201 34 256 34 c 0xb7
EndSplineSet
Validated: 1
Layer: 2
SplineSet
256 34 m 0,0,1
 324 34 324 34 368 40.5 c 128,-1,2
 412 47 412 47 445 65 c 128,-1,3
 478 83 478 83 499.5 105.5 c 128,-1,4
 521 128 521 128 552 170 c 1,5,-1
 568 163 l 1,6,-1
 505 0 l 1,7,-1
 -1 0 l 1,8,-1
 -1 16 l 1,9,10
 41 23 41 23 54 35 c 128,-1,11
 67 47 67 47 81 89 c 2,12,-1
 204 532 l 2,13,14
 214 574 214 574 214 596 c 0,15,16
 214 616 214 616 199 624 c 128,-1,17
 184 632 184 632 138 637 c 1,18,-1
 138 653 l 1,19,-1
 634 653 l 1,20,-1
 603 499 l 1,21,-1
 582 502 l 1,22,23
 584 536 584 536 584 546 c 0,24,25
 584 591 584 591 547 605.5 c 128,-1,26
 510 620 510 620 393 620 c 0,27,28
 349 620 349 620 336 615.5 c 128,-1,29
 323 611 323 611 319 595 c 2,30,-1
 253 360 l 1,31,32
 307 363 307 363 333 363 c 0,33,34
 401 367 401 367 421.5 381 c 128,-1,35
 442 395 442 395 470 458 c 1,36,-1
 488 454 l 1,37,-1
 420 223 l 1,38,-1
 400 227 l 1,39,40
 407 265 407 265 407 278 c 0,41,42
 407 309 407 309 389 317 c 128,-1,43
 371 325 371 325 322 325 c 0,44,45
 317 325 317 325 305.5 325.5 c 128,-1,46
 294 326 294 326 276.5 327 c 128,-1,47
 259 328 259 328 245 328 c 1,48,-1
 185 105 l 2,49,50
 176 72 176 72 176 67 c 0,51,52
 176 49 176 49 195 41.5 c 128,-1,53
 214 34 214 34 256 34 c 0,0,1
EndSplineSet
EndChar

StartChar: F
Encoding: 70 70 39
Width: 610
Flags: W
HStem: 0 16<7 46.6919 208.655 261> 325 36<264 398.038> 620 33<347.411 560.723> 637 16<146 197.734>
VStem: 404 18<218.056 236.645> 592 20<500.95 531.667>
DStem2: 89 89 193 105 0.269265 0.963066<-1.59432 280.427 308.112 523.839>
LayerCount: 3
Fore
SplineSet
413 278 m 0xee
 413 312 404 325 335 325 c 0
 313 325 291 327 255 328 c 1
 193 105 l 2
 187 83 185 67 185 60 c 0
 185 29 202 19 261 16 c 1
 261 0 l 1
 7 0 l 1
 7 16 l 1
 64 23 72 29 89 89 c 2
 212 532 l 1
 220 557 224 582 224 596 c 0
 224 625 212 631 146 637 c 1
 146 653 l 1
 645 653 l 1xde
 612 499 l 1
 592 502 l 1
 593 514 593 516 595 521 c 1
 595 545 l 2
 595 606 560 620 391 620 c 0
 350 620 335 614 330 595 c 2
 264 360 l 1
 432 363 435 365 480 454 c 1
 498 450 l 1
 422 215 l 1
 404 220 l 1
 412 250 413 264 413 278 c 0xee
EndSplineSet
Validated: 1
Layer: 2
SplineSet
413 278 m 0,0,1
 413 305 413 305 398.5 315 c 128,-1,2
 384 325 384 325 335 325 c 0,3,4
 323 325 323 325 297 326.5 c 128,-1,5
 271 328 271 328 255 328 c 1,6,-1
 193 105 l 2,7,8
 185 76 185 76 185 60 c 0,9,10
 185 37 185 37 201 27.5 c 128,-1,11
 217 18 217 18 261 16 c 1,12,-1
 261 0 l 1,13,-1
 7 0 l 1,14,-1
 7 16 l 1,15,16
 50 21 50 21 63 32.5 c 128,-1,17
 76 44 76 44 89 89 c 2,18,-1
 212 532 l 2,19,20
 224 570 224 570 224 596 c 0,21,22
 224 618 224 618 210 625 c 128,-1,23
 196 632 196 632 146 637 c 1,24,-1
 146 653 l 1,25,-1
 645 653 l 1,26,-1
 612 499 l 1,27,-1
 592 502 l 1,28,29
 593 517 593 517 595 521 c 2,30,-1
 595 545 l 2,31,32
 595 591 595 591 556 605.5 c 128,-1,33
 517 620 517 620 391 620 c 0,34,35
 360 620 360 620 347 614.5 c 128,-1,36
 334 609 334 609 330 595 c 2,37,-1
 264 360 l 1,38,39
 301 361 301 361 320 361 c 128,-1,40
 339 361 339 361 362 363.5 c 128,-1,41
 385 366 385 366 394.5 367.5 c 128,-1,42
 404 369 404 369 418 375 c 128,-1,43
 432 381 432 381 436.5 385.5 c 128,-1,44
 441 390 441 390 450.5 402.5 c 128,-1,45
 460 415 460 415 465 424.5 c 128,-1,46
 470 434 470 434 480 454 c 1,47,-1
 498 450 l 1,48,-1
 422 215 l 1,49,-1
 404 220 l 1,50,51
 413 254 413 254 413 278 c 0,0,1
EndSplineSet
EndChar

StartChar: G
Encoding: 71 71 40
Width: 720
Flags: W
HStem: -18 37<267.704 447.23> 303 16<456 512.429 673.719 722> 631 35<372.764 547.168>
VStem: 53 110<141.319 369.59> 642 17<469 492.875>
LayerCount: 3
Fore
SplineSet
456 666 m 0
 540 666 610 631 633 631 c 0
 659 631 677 642 693 666 c 1
 707 662 l 1
 659 464 l 1
 642 469 l 1
 637 507 617 631 463 631 c 0
 397 631 335 605 290 558 c 0
 211 475 163 347 163 224 c 0
 163 92 234 19 365 19 c 0
 409 19 447 31 469 53 c 0
 480 64 483 73 505 145 c 0
 527 220 535 248 535 270 c 0
 535 287 519 297 485 300 c 0
 480 300 469 302 456 303 c 1
 456 319 l 1
 722 319 l 1
 722 303 l 1
 658 299 642 287 625 231 c 1
 576 44 l 1
 499 1 428 -18 338 -18 c 0
 252 -18 179 9 127 60 c 1
 81 108 53 179 53 246 c 0
 53 466 245 666 456 666 c 0
EndSplineSet
Validated: 1
Layer: 2
SplineSet
456 666 m 0,0,1
 506 666 506 666 567.5 648.5 c 128,-1,2
 629 631 629 631 633 631 c 0,3,4
 670 631 670 631 693 666 c 1,5,-1
 707 662 l 1,6,-1
 659 464 l 1,7,-1
 642 469 l 1,8,9
 640 486 640 486 636.5 501 c 128,-1,10
 633 516 633 516 621 542 c 128,-1,11
 609 568 609 568 591.5 585.5 c 128,-1,12
 574 603 574 603 540.5 617 c 128,-1,13
 507 631 507 631 463 631 c 0,14,15
 360 631 360 631 290 558 c 0,16,17
 231 496 231 496 197 406.5 c 128,-1,18
 163 317 163 317 163 224 c 0,19,20
 163 125 163 125 215 72 c 128,-1,21
 267 19 267 19 365 19 c 0,22,23
 435 19 435 19 469 53 c 0,24,25
 477 61 477 61 482.5 75.5 c 128,-1,26
 488 90 488 90 505 145 c 0,27,28
 535 247 535 247 535 270 c 0,29,30
 535 296 535 296 485 300 c 0,31,32
 482 300 482 300 472 301 c 128,-1,33
 462 302 462 302 456 303 c 1,34,-1
 456 319 l 1,35,-1
 722 319 l 1,36,-1
 722 303 l 1,37,38
 674 300 674 300 656 286.5 c 128,-1,39
 638 273 638 273 625 231 c 2,40,-1
 576 44 l 1,41,42
 465 -18 465 -18 338 -18 c 0,43,44
 207 -18 207 -18 127 60 c 0,45,46
 93 96 93 96 73 146 c 128,-1,47
 53 196 53 196 53 246 c 0,48,49
 53 411 53 411 175.5 538.5 c 128,-1,50
 298 666 298 666 456 666 c 0,0,1
EndSplineSet
EndChar

StartChar: H
Encoding: 72 72 41
Width: 720
Flags: W
HStem: 0 16<-7 25.0055 194.013 237 354 397.878 578.33 628> 327 41<248 521> 637 16<130 177.906 358.322 403 520 564.399 734.49 768>
DStem2: 73 89 170 82 0.265156 0.964205<-2.70561 272.701 315.416 522.543> 456 89 554 82 0.265156 0.964205<-3.9346 246.716 289.43 522.692>
LayerCount: 3
Fore
SplineSet
768 653 m 1
 768 637 l 1
 710 627 702 621 686 562 c 2
 554 82 l 1
 551 75 549 67 549 59 c 0
 549 29 564 22 628 16 c 1
 628 0 l 1
 354 0 l 1
 354 16 l 1
 420 23 439 38 456 89 c 1
 521 327 l 1
 236 327 l 1
 170 82 l 2
 168 75 167 67 167 60 c 0
 167 31 179 23 237 16 c 1
 237 0 l 1
 -7 0 l 1
 -7 16 l 1
 48 26 56 32 73 89 c 1
 196 532 l 1
 204 557 207 580 207 595 c 0
 207 623 192 631 130 637 c 1
 130 653 l 1
 403 653 l 1
 403 637 l 1
 343 633 316 614 302 562 c 2
 248 368 l 1
 533 368 l 1
 579 532 l 2
 586 557 590 580 590 595 c 0
 590 623 579 630 520 637 c 1
 520 653 l 1
 768 653 l 1
EndSplineSet
Validated: 1
Layer: 2
SplineSet
768 653 m 1,0,-1
 768 637 l 1,1,2
 724 629 724 629 711 617.5 c 128,-1,3
 698 606 698 606 686 562 c 2,4,-1
 554 82 l 2,5,6
 549 70 549 70 549 59 c 0,7,8
 549 37 549 37 564 29 c 128,-1,9
 579 21 579 21 628 16 c 1,10,-1
 628 0 l 1,11,-1
 354 0 l 1,12,-1
 354 16 l 1,13,14
 403 21 403 21 423 35.5 c 128,-1,15
 443 50 443 50 456 89 c 2,16,-1
 521 327 l 1,17,-1
 236 327 l 1,18,-1
 170 82 l 2,19,20
 167 71 167 71 167 60 c 0,21,22
 167 38 167 38 180.5 29.5 c 128,-1,23
 194 21 194 21 237 16 c 1,24,-1
 237 0 l 1,25,-1
 -7 0 l 1,26,-1
 -7 16 l 1,27,28
 35 24 35 24 47.5 35.5 c 128,-1,29
 60 47 60 47 73 89 c 2,30,-1
 196 532 l 2,31,32
 207 566 207 566 207 595 c 0,33,34
 207 616 207 616 192 624 c 128,-1,35
 177 632 177 632 130 637 c 1,36,-1
 130 653 l 1,37,-1
 403 653 l 1,38,-1
 403 637 l 1,39,40
 358 634 358 634 335 617.5 c 128,-1,41
 312 601 312 601 302 562 c 2,42,-1
 248 368 l 1,43,-1
 533 368 l 1,44,-1
 579 532 l 2,45,46
 590 571 590 571 590 595 c 0,47,48
 590 616 590 616 577 624 c 128,-1,49
 564 632 564 632 520 637 c 1,50,-1
 520 653 l 1,51,-1
 768 653 l 1,0,-1
EndSplineSet
EndChar

StartChar: I
Encoding: 73 73 42
Width: 332
Flags: W
HStem: 0 16<-7 25.0055 191.987 236> 637 16<138 181.518 351.191 384>
DStem2: 196 532 302 562 0.267532 0.963549<-464.45 62.7713>
LayerCount: 3
Fore
SplineSet
-7 0 m 1
 -7 16 l 1
 48 26 56 32 73 89 c 1
 196 532 l 1
 204 557 207 580 207 595 c 0
 207 623 195 630 138 637 c 1
 138 653 l 1
 384 653 l 1
 384 637 l 1
 327 627 319 621 302 562 c 2
 179 120 l 2
 170 88 168 76 168 57 c 0
 168 29 179 23 236 16 c 1
 236 0 l 1
 -7 0 l 1
EndSplineSet
Validated: 1
Layer: 2
SplineSet
-7 0 m 1,0,-1
 -7 16 l 1,1,2
 35 24 35 24 47.5 35.5 c 128,-1,3
 60 47 60 47 73 89 c 2,4,-1
 196 532 l 2,5,6
 207 566 207 566 207 595 c 0,7,8
 207 616 207 616 194 624 c 128,-1,9
 181 632 181 632 138 637 c 1,10,-1
 138 653 l 1,11,-1
 384 653 l 1,12,-1
 384 637 l 1,13,14
 341 629 341 629 328 617.5 c 128,-1,15
 315 606 315 606 302 562 c 2,16,-1
 179 120 l 2,17,18
 168 81 168 81 168 57 c 0,19,20
 168 36 168 36 180.5 28.5 c 128,-1,21
 193 21 193 21 236 16 c 1,22,-1
 236 0 l 1,23,-1
 -7 0 l 1,0,-1
EndSplineSet
EndChar

StartChar: J
Encoding: 74 74 43
Width: 443
Flags: W
HStem: -18 31<91.8394 152.127> 637 16<237 287.026 455.625 491>
VStem: -6 94<16.1973 109.529>
DStem2: 171 67 306 192 0.271165 0.962533<-1.32554 546.781>
LayerCount: 3
Fore
SplineSet
491 653 m 1
 491 637 l 1
 434 628 428 623 409 562 c 1
 306 192 l 1
 286 116 265 70 237 40 c 1
 207 1 163 -18 111 -18 c 0
 41 -18 -6 18 -6 70 c 0
 -6 103 13 125 40 125 c 0
 64 125 88 103 88 78 c 2
 88 67 l 1
 86 62 86 59 86 53 c 0
 86 26 98 13 122 13 c 0
 146 13 160 28 171 67 c 2
 302 532 l 1
 311 560 313 582 313 596 c 0
 313 623 300 631 237 637 c 1
 237 653 l 1
 491 653 l 1
EndSplineSet
Validated: 1
Layer: 2
SplineSet
491 653 m 1,0,-1
 491 637 l 1,1,2
 448 630 448 630 435.5 619 c 128,-1,3
 423 608 423 608 409 562 c 2,4,-1
 306 192 l 2,5,6
 277 83 277 83 237 40 c 1,7,8
 192 -18 192 -18 111 -18 c 0,9,10
 59 -18 59 -18 26.5 6.5 c 128,-1,11
 -6 31 -6 31 -6 70 c 0,12,13
 -6 95 -6 95 7 110 c 128,-1,14
 20 125 20 125 40 125 c 0,15,16
 58 125 58 125 73 110.5 c 128,-1,17
 88 96 88 96 88 78 c 2,18,-1
 88 67 l 2,19,20
 86 62 86 62 86 53 c 0,21,22
 86 13 86 13 122 13 c 0,23,24
 156 13 156 13 171 67 c 2,25,-1
 302 532 l 2,26,27
 313 566 313 566 313 596 c 0,28,29
 313 616 313 616 298.5 624.5 c 128,-1,30
 284 633 284 633 237 637 c 1,31,-1
 237 653 l 1,32,-1
 491 653 l 1,0,-1
EndSplineSet
EndChar

StartChar: K
Encoding: 75 75 44
Width: 666
Flags: W
HStem: 0 16<7 43 208.17 255 343 397.62 570.309 618> 637 16<146 193.906 376.145 419 499 548.375 695.277 722>
DStem2: 89 89 190 100 0.266998 0.963697<-2.51341 295.951 316.827 522.533> 347 375 259 349 0.497987 -0.867184<0 320.098> 265 369 347 375 0.79872 0.601703<69.1053 383.707>
LayerCount: 3
Fore
SplineSet
722 653 m 1
 722 637 l 1
 699 633 675 623 647 601 c 2
 347 375 l 1
 521 72 l 2
 549 25 555 22 618 16 c 1
 618 0 l 1
 343 0 l 1
 343 16 l 1
 356 18 368 19 372 19 c 0
 404 22 417 29 417 45 c 0
 417 64 404 100 379 141 c 1
 259 349 l 1
 190 100 l 2
 185 79 183 70 183 60 c 0
 183 29 192 23 255 16 c 1
 255 0 l 1
 7 0 l 1
 7 16 l 1
 66 25 70 29 89 89 c 1
 212 532 l 1
 220 557 223 580 223 595 c 0
 223 623 208 631 146 637 c 1
 146 653 l 1
 419 653 l 1
 419 637 l 1
 360 633 333 612 318 562 c 1
 265 369 l 1
 417 475 l 1
 505 538 561 590 561 615 c 0
 561 625 551 631 527 634 c 0
 523 634 513 636 499 637 c 1
 499 653 l 1
 722 653 l 1
EndSplineSet
Validated: 1
Layer: 2
SplineSet
722 653 m 1,0,-1
 722 637 l 1,1,2
 685 630 685 630 647 601 c 2,3,-1
 347 375 l 1,4,-1
 521 72 l 2,5,6
 542 37 542 37 556.5 29 c 128,-1,7
 571 21 571 21 618 16 c 1,8,-1
 618 0 l 1,9,-1
 343 0 l 1,10,-1
 343 16 l 1,11,12
 362 19 362 19 372 19 c 0,13,14
 417 23 417 23 417 45 c 0,15,16
 417 79 417 79 379 141 c 2,17,-1
 259 349 l 1,18,-1
 190 100 l 2,19,20
 183 71 183 71 183 60 c 0,21,22
 183 37 183 37 195.5 29 c 128,-1,23
 208 21 208 21 255 16 c 1,24,-1
 255 0 l 1,25,-1
 7 0 l 1,26,-1
 7 16 l 1,27,28
 51 23 51 23 63 33.5 c 128,-1,29
 75 44 75 44 89 89 c 2,30,-1
 212 532 l 2,31,32
 223 566 223 566 223 595 c 0,33,34
 223 616 223 616 208 624 c 128,-1,35
 193 632 193 632 146 637 c 1,36,-1
 146 653 l 1,37,-1
 419 653 l 1,38,-1
 419 637 l 1,39,40
 375 634 375 634 352 617 c 128,-1,41
 329 600 329 600 318 562 c 2,42,-1
 265 369 l 1,43,-1
 417 475 l 2,44,45
 561 578 561 578 561 615 c 0,46,47
 561 630 561 630 527 634 c 0,48,49
 525 634 525 634 516 635 c 128,-1,50
 507 636 507 636 499 637 c 1,51,-1
 499 653 l 1,52,-1
 722 653 l 1,0,-1
EndSplineSet
EndChar

StartChar: L
Encoding: 76 76 45
Width: 555
Flags: W
HStem: 0 37<190.696 424.617> 0 16<-7 25.0055> 637 16<130 177.906 358.322 403>
DStem2: 73 89 179 120 0.267532 0.963549<7.35768 522.53>
LayerCount: 3
Fore
SplineSet
270 37 m 0xb0
 426 37 474 52 539 185 c 1
 560 179 l 1
 501 0 l 1
 -7 0 l 1
 -7 16 l 1x70
 48 26 56 32 73 89 c 1
 196 532 l 1
 204 557 207 580 207 595 c 0
 207 623 192 631 130 637 c 1
 130 653 l 1
 403 653 l 1
 403 637 l 1
 343 633 316 614 302 562 c 2
 179 120 l 2
 174 101 168 78 168 70 c 0
 168 44 193 37 270 37 c 0xb0
EndSplineSet
Validated: 1
Layer: 2
SplineSet
270 37 m 0,0,1
 392 37 392 37 442 62.5 c 128,-1,2
 492 88 492 88 539 185 c 1,3,-1
 560 179 l 1,4,-1
 501 0 l 1,5,-1
 -7 0 l 1,6,-1
 -7 16 l 1,7,8
 35 24 35 24 47.5 35.5 c 128,-1,9
 60 47 60 47 73 89 c 2,10,-1
 196 532 l 2,11,12
 207 566 207 566 207 595 c 0,13,14
 207 616 207 616 192 624 c 128,-1,15
 177 632 177 632 130 637 c 1,16,-1
 130 653 l 1,17,-1
 403 653 l 1,18,-1
 403 637 l 1,19,20
 358 634 358 634 335 617.5 c 128,-1,21
 312 601 312 601 302 562 c 2,22,-1
 179 120 l 2,23,24
 168 78 168 78 168 70 c 0,25,26
 168 51 168 51 190 44 c 128,-1,27
 212 37 212 37 270 37 c 0,0,1
EndSplineSet
EndChar

StartChar: M
Encoding: 77 77 46
Width: 832
Flags: W
HStem: 0 16<-18 12.9293 137.751 180 461 503.821 679.812 734> 637 16<133 181.56 837 873>
DStem2: 186 519 119 113 0.260853 0.965379<-462.729 38.0903> 315 653 236 546 0.111031 -0.993817<97.567 496.169> 371 160 313 0 0.558787 0.829311<0 511.366> 562 91 668 120 0.26468 0.964336<-4.63357 487.382>
LayerCount: 3
Fore
SplineSet
873 653 m 1
 873 637 l 1
 814 628 809 623 791 562 c 2
 668 120 l 2
 659 89 658 76 658 59 c 0
 658 28 666 22 734 16 c 1
 734 0 l 1
 461 0 l 1
 461 16 l 1
 526 23 546 38 562 91 c 1
 691 561 l 1
 313 0 l 1
 297 0 l 1
 236 546 l 1
 119 113 l 1
 113 97 108 70 108 60 c 0
 108 32 129 21 180 16 c 1
 180 0 l 1
 -18 0 l 1
 -18 16 l 1
 34 22 48 42 81 146 c 1
 186 519 l 1
 186 519 208 589 208 601 c 0
 208 623 185 634 133 637 c 1
 133 653 l 1
 315 653 l 1
 371 160 l 1
 706 653 l 1
 873 653 l 1
EndSplineSet
Validated: 1
Layer: 2
SplineSet
873 653 m 1,0,-1
 873 637 l 1,1,2
 829 630 829 630 817 619 c 128,-1,3
 805 608 805 608 791 562 c 2,4,-1
 668 120 l 2,5,6
 658 86 658 86 658 59 c 0,7,8
 658 35 658 35 671 27.5 c 128,-1,9
 684 20 684 20 734 16 c 1,10,-1
 734 0 l 1,11,-1
 461 0 l 1,12,-1
 461 16 l 1,13,14
 510 21 510 21 530 36 c 128,-1,15
 550 51 550 51 562 91 c 2,16,-1
 691 561 l 1,17,-1
 313 0 l 1,18,-1
 297 0 l 1,19,-1
 236 546 l 1,20,-1
 119 113 l 2,21,22
 108 84 108 84 108 60 c 0,23,24
 108 39 108 39 124.5 29.5 c 128,-1,25
 141 20 141 20 180 16 c 1,26,-1
 180 0 l 1,27,-1
 -18 0 l 1,28,-1
 -18 16 l 1,29,30
 21 20 21 20 38.5 43.5 c 128,-1,31
 56 67 56 67 81 146 c 2,32,-1
 186 519 l 2,33,34
 208 589 208 589 208 601 c 0,35,36
 208 633 208 633 133 637 c 1,37,-1
 133 653 l 1,38,-1
 315 653 l 1,39,-1
 371 160 l 1,40,-1
 706 653 l 1,41,-1
 873 653 l 1,0,-1
EndSplineSet
EndChar

StartChar: N
Encoding: 78 78 47
Width: 666
Flags: W
HStem: -15 21G<452.636 484.726> 0 16<-21 11.457 135.58 179> 637 16<116 155.713 527 568.637 699.709 727>
DStem2: 202 582 117 113 0.260794 0.965395<-528.749 -37.8105> 277 653 231 535 0.385806 -0.92258<91.1173 540.615> 485 154 479 -15 0.275226 0.96138<0 446.049>
LayerCount: 3
Fore
SplineSet
587 535 m 2x60
 589 542 598 560 598 586 c 0
 598 623 584 631 527 637 c 1
 527 653 l 1
 727 653 l 1
 727 637 l 1
 664 623 661 617 623 488 c 1
 479 -15 l 1
 461 -15 l 1xa0
 231 535 l 1
 117 113 l 2
 111 92 108 72 108 59 c 0
 108 31 127 21 179 16 c 1
 179 0 l 1
 -21 0 l 1
 -21 16 l 1
 37 23 45 37 83 164 c 1
 202 582 l 1
 185 620 163 633 116 637 c 1
 116 653 l 1
 277 653 l 1
 485 154 l 1
 587 535 l 2x60
EndSplineSet
Validated: 1
Layer: 2
SplineSet
587 535 m 2,0,1
 598 574 598 574 598 586 c 0,2,3
 598 613 598 613 584 622.5 c 128,-1,4
 570 632 570 632 527 637 c 1,5,-1
 527 653 l 1,6,-1
 727 653 l 1,7,-1
 727 637 l 1,8,9
 680 627 680 627 666 606 c 128,-1,10
 652 585 652 585 623 488 c 2,11,-1
 479 -15 l 1,12,-1
 461 -15 l 1,13,-1
 231 535 l 1,14,-1
 117 113 l 2,15,16
 108 81 108 81 108 59 c 0,17,18
 108 38 108 38 123.5 29 c 128,-1,19
 139 20 139 20 179 16 c 1,20,-1
 179 0 l 1,21,-1
 -21 0 l 1,22,-1
 -21 16 l 1,23,24
 22 21 22 21 38 44.5 c 128,-1,25
 54 68 54 68 83 164 c 2,26,-1
 202 582 l 1,27,28
 189 610 189 610 170.5 622 c 128,-1,29
 152 634 152 634 116 637 c 1,30,-1
 116 653 l 1,31,-1
 277 653 l 1,32,-1
 485 154 l 1,33,-1
 587 535 l 2,0,1
EndSplineSet
EndChar

StartChar: O
Encoding: 79 79 48
Width: 720
Flags: W
HStem: -18 33<229.551 366.924> 633 33<392.091 529.535>
VStem: 60 106<110.125 323.861> 595 104<335.183 537.628>
LayerCount: 3
Fore
SplineSet
475 666 m 0
 604 666 699 567 699 431 c 0
 699 197 486 -18 278 -18 c 0
 151 -18 60 81 60 221 c 0
 60 430 261 666 475 666 c 0
464 633 m 0
 289 633 166 352 166 185 c 0
 166 76 211 15 294 15 c 0
 476 15 595 307 595 480 c 0
 595 576 543 633 464 633 c 0
EndSplineSet
Validated: 1
Layer: 2
SplineSet
475 666 m 0,0,1
 572 666 572 666 635.5 599.5 c 128,-1,2
 699 533 699 533 699 431 c 0,3,4
 699 346 699 346 662 262.5 c 128,-1,5
 625 179 625 179 566.5 118 c 128,-1,6
 508 57 508 57 431.5 19.5 c 128,-1,7
 355 -18 355 -18 278 -18 c 0,8,9
 183 -18 183 -18 121.5 49 c 128,-1,10
 60 116 60 116 60 221 c 0,11,12
 60 324 60 324 118.5 427.5 c 128,-1,13
 177 531 177 531 274.5 598.5 c 128,-1,14
 372 666 372 666 475 666 c 0,0,1
464 633 m 0,15,16
 402 633 402 633 344.5 586.5 c 128,-1,17
 287 540 287 540 249 471.5 c 128,-1,18
 211 403 211 403 188.5 326 c 128,-1,19
 166 249 166 249 166 185 c 0,20,21
 166 103 166 103 199 59 c 128,-1,22
 232 15 232 15 294 15 c 0,23,24
 359 15 359 15 417.5 63 c 128,-1,25
 476 111 476 111 513.5 183 c 128,-1,26
 551 255 551 255 573 334.5 c 128,-1,27
 595 414 595 414 595 480 c 0,28,29
 595 551 595 551 559.5 592 c 128,-1,30
 524 633 524 633 464 633 c 0,15,16
EndSplineSet
EndChar

StartChar: P
Encoding: 80 80 49
Width: 610
Flags: W
HStem: 0 16<0 39.6919 203.674 245> 305 36<251.099 414.734> 623 30<336.831 447.443> 637 16<146 189.192>
VStem: 502 103<418.389 581.68>
DStem2: 82 89 189 120 0.26963 0.962964<0.043954 261.254 293.743 523.196>
LayerCount: 3
Fore
SplineSet
605 504 m 0xe8
 605 434 562 305 334 305 c 0
 293 305 267 308 242 313 c 1
 189 120 l 2
 179 83 177 75 177 62 c 0
 177 28 182 25 245 16 c 1
 245 0 l 1
 0 0 l 1
 0 16 l 1
 57 23 64 29 82 89 c 1
 201 516 l 1
 212 560 217 582 217 595 c 0
 217 621 204 630 146 637 c 1
 146 653 l 1xd8
 394 653 l 2
 530 653 605 601 605 504 c 0xe8
303 341 m 0
 415 341 502 374 502 504 c 0
 502 551 491 582 464 599 c 0
 445 612 407 623 368 623 c 0xe8
 340 623 328 617 322 595 c 2
 250 347 l 1
 278 343 286 341 303 341 c 0
EndSplineSet
Validated: 1
Layer: 2
SplineSet
605 504 m 0,0,1
 605 480 605 480 599 456 c 128,-1,2
 593 432 593 432 575 404 c 128,-1,3
 557 376 557 376 528.5 354.5 c 128,-1,4
 500 333 500 333 449.5 319 c 128,-1,5
 399 305 399 305 334 305 c 0,6,7
 282 305 282 305 242 313 c 1,8,-1
 189 120 l 2,9,10
 177 76 177 76 177 62 c 0,11,12
 177 37 177 37 187.5 30 c 128,-1,13
 198 23 198 23 245 16 c 1,14,-1
 245 0 l 1,15,-1
 0 0 l 1,16,-1
 0 16 l 1,17,18
 43 21 43 21 56 32.5 c 128,-1,19
 69 44 69 44 82 89 c 2,20,-1
 201 516 l 2,21,22
 217 580 217 580 217 595 c 0,23,24
 217 615 217 615 203 623.5 c 128,-1,25
 189 632 189 632 146 637 c 1,26,-1
 146 653 l 1,27,-1
 394 653 l 2,28,29
 496 653 496 653 550.5 615 c 128,-1,30
 605 577 605 577 605 504 c 0,0,1
303 341 m 0,31,32
 397 341 397 341 449.5 377 c 128,-1,33
 502 413 502 413 502 504 c 0,34,35
 502 575 502 575 464 599 c 0,36,37
 429 623 429 623 368 623 c 0,38,39
 347 623 347 623 336.5 617 c 128,-1,40
 326 611 326 611 322 595 c 2,41,-1
 250 347 l 1,42,43
 292 341 292 341 303 341 c 0,31,32
EndSplineSet
EndChar

StartChar: Q
Encoding: 81 81 50
Width: 720
Flags: W
HStem: -183 67<369.071 527.591> -138 65.5<226 286.18> 633 33<389.852 529.563>
VStem: 60 106<107.93 319.306> 595 104<337.338 538.849>
LayerCount: 3
Fore
SplineSet
278 -16 m 1x78
 226 -73 l 1
 253 -73 250 -72 256 -72 c 0x78
 270 -72 309 -81 360 -92 c 1
 437 -111 458 -116 483 -116 c 0
 557 -116 598 -97 653 -38 c 1
 668 -48 l 1
 642 -85 628 -100 605 -117 c 0
 554 -157 483 -183 429 -183 c 0xb8
 393 -183 338 -173 277 -157 c 1
 233 -144 204 -138 185 -138 c 0
 145 -138 107 -148 69 -168 c 1
 59 -154 l 1
 136 -100 145 -92 236 -12 c 1
 192 -1 170 7 144 29 c 1
 89 70 60 139 60 221 c 0
 60 338 119 458 220 554 c 0
 295 626 390 666 470 666 c 0
 603 666 699 568 699 434 c 0
 699 275 598 113 450 29 c 1
 394 -1 356 -12 278 -16 c 1x78
464 633 m 0
 393 633 331 595 275 514 c 1
 214 428 166 278 166 183 c 0
 166 78 212 18 293 18 c 0
 366 18 428 56 483 135 c 0
 546 227 595 374 595 480 c 0
 595 576 545 633 464 633 c 0
EndSplineSet
Validated: 1
Layer: 2
SplineSet
278 -16 m 1,0,-1
 226 -73 l 1,1,2
 242 -73 242 -73 249 -72.5 c 2,3,-1
 256 -72 l 2,4,5
 267 -72 267 -72 360 -92 c 0,6,7
 457 -116 457 -116 483 -116 c 0,8,9
 538 -116 538 -116 575 -99 c 128,-1,10
 612 -82 612 -82 653 -38 c 1,11,-1
 668 -48 l 1,12,13
 635 -95 635 -95 605 -117 c 0,14,15
 567 -147 567 -147 518.5 -165 c 128,-1,16
 470 -183 470 -183 429 -183 c 0,17,18
 376 -183 376 -183 277 -157 c 0,19,20
 213 -138 213 -138 185 -138 c 0,21,22
 126 -138 126 -138 69 -168 c 1,23,-1
 59 -154 l 1,24,25
 115 -115 115 -115 140 -94.5 c 128,-1,26
 165 -74 165 -74 236 -12 c 1,27,28
 174 3 174 3 144 29 c 0,29,30
 60 92 60 92 60 221 c 0,31,32
 60 308 60 308 102 395 c 128,-1,33
 144 482 144 482 220 554 c 0,34,35
 275 607 275 607 342 636.5 c 128,-1,36
 409 666 409 666 470 666 c 0,37,38
 570 666 570 666 634.5 600.5 c 128,-1,39
 699 535 699 535 699 434 c 0,40,41
 699 315 699 315 630 203.5 c 128,-1,42
 561 92 561 92 450 29 c 0,43,44
 407 6 407 6 371 -3.5 c 128,-1,45
 335 -13 335 -13 278 -16 c 1,0,-1
464 633 m 0,46,47
 357 633 357 633 275 514 c 0,48,49
 230 450 230 450 198 352.5 c 128,-1,50
 166 255 166 255 166 183 c 0,51,52
 166 104 166 104 199 61 c 128,-1,53
 232 18 232 18 293 18 c 0,54,55
 402 18 402 18 483 135 c 0,56,57
 531 205 531 205 563 303 c 128,-1,58
 595 401 595 401 595 480 c 0,59,60
 595 552 595 552 560 592.5 c 128,-1,61
 525 633 525 633 464 633 c 0,46,47
EndSplineSet
EndChar

StartChar: R
Encoding: 82 82 51
Width: 610
Flags: W
HStem: 0 16<-13 20.7662 186.365 231 531.414 567> 330 30<243 296> 623 30<323.347 432.055> 637 16<132 172.676>
VStem: 483 104<431.255 584.265>
DStem2: 67 89 174 120 0.271508 0.962436<0.38944 276.474 314.38 523.759> 391 333 296 324 0.354915 -0.934899<0 321.259>
LayerCount: 3
Fore
SplineSet
587 508 m 0xe8
 587 368 430 342 391 333 c 1
 483 88 l 2
 502 37 523 19 567 16 c 1
 567 0 l 1
 419 0 l 1
 296 324 l 1
 231 330 l 1
 174 120 l 1
 166 85 163 72 163 62 c 0
 163 29 170 23 231 16 c 1
 231 0 l 1
 -13 0 l 1
 -13 16 l 1
 42 25 50 31 67 89 c 2
 190 532 l 2
 198 560 204 583 204 595 c 0
 204 606 196 618 189 623 c 0xe8
 179 630 174 631 132 637 c 1
 132 653 l 1xd8
 379 653 l 2
 514 653 587 602 587 508 c 0xe8
308 595 m 1
 243 366 l 1
 267 362 278 360 294 360 c 0
 419 360 483 412 483 511 c 0
 483 584 442 623 359 623 c 0
 327 623 313 617 308 595 c 1
EndSplineSet
Validated: 1
Layer: 2
SplineSet
587 508 m 0,0,1
 587 376 587 376 398.575571915 334.680616452 c 0,2,3
 393 334 393 334 391 333 c 2,4,-1
 483 88 l 2,5,6
 497 50 497 50 515.5 34 c 128,-1,7
 534 18 534 18 567 16 c 1,8,-1
 567 0 l 1,9,-1
 419 0 l 1,10,-1
 296 324 l 1,11,-1
 231 330 l 1,12,-1
 174 120 l 2,13,14
 163 72 163 72 163 62 c 0,15,16
 163 37 163 37 174.5 29 c 128,-1,17
 186 21 186 21 231 16 c 1,18,-1
 231 0 l 1,19,-1
 -13 0 l 1,20,-1
 -13 16 l 1,21,22
 29 23 29 23 41.5 34.5 c 128,-1,23
 54 46 54 46 67 89 c 2,24,-1
 190 532 l 2,25,26
 204 581 204 581 204 595 c 0,27,28
 204 612 204 612 189 623 c 0,29,30
 178 630 178 630 132 637 c 1,31,-1
 132 653 l 1,32,-1
 379 653 l 2,33,34
 480 653 480 653 533.5 616 c 128,-1,35
 587 579 587 579 587 508 c 0,0,1
308 595 m 2,36,-1
 243 366 l 1,37,38
 279 360 279 360 294 360 c 0,39,40
 483 360 483 360 483 511 c 0,41,42
 483 623 483 623 359 623 c 0,43,44
 334 623 334 623 323 617 c 128,-1,45
 312 611 312 611 308 595 c 2,36,-1
EndSplineSet
EndChar

StartChar: S
Encoding: 83 83 52
Width: 499
Flags: W
HStem: -18 36<146.584 282.27> 633 33<262.862 392.971>
VStem: 51 19<183.095 207> 130 90<461.679 584.146> 344 87<88.82 222.477> 450 19<472 504.359>
LayerCount: 3
Fore
SplineSet
309 666 m 0
 382 666 405 642 439 642 c 0
 461 642 472 646 485 666 c 1
 508 666 l 1
 469 469 l 1
 450 472 l 1
 448 538 439 571 417 596 c 0
 397 620 366 633 330 633 c 0
 261 633 220 595 220 532 c 0
 220 482 229 469 318 376 c 1
 409 286 431 248 431 182 c 0
 431 69 344 -18 229 -18 c 0
 155 -18 110 18 73 18 c 0
 53 18 42 7 35 -15 c 1
 18 -15 l 1
 51 208 l 1
 70 207 l 1
 70 199 69 190 69 183 c 0
 69 88 132 18 215 18 c 0
 289 18 344 75 344 149 c 0
 344 193 331 220 284 268 c 1
 207 352 l 1
 146 416 130 445 130 499 c 0
 130 598 205 666 309 666 c 0
EndSplineSet
Validated: 1
Layer: 2
SplineSet
309 666 m 0,0,1
 350 666 350 666 388.5 654 c 128,-1,2
 427 642 427 642 439 642 c 0,3,4
 469 642 469 642 485 666 c 1,5,-1
 508 666 l 1,6,-1
 469 469 l 1,7,-1
 450 472 l 1,8,9
 447 562 447 562 417 596 c 0,10,11
 386 633 386 633 330 633 c 0,12,13
 278 633 278 633 249 606 c 128,-1,14
 220 579 220 579 220 532 c 0,15,16
 220 495 220 495 235.5 470.5 c 128,-1,17
 251 446 251 446 318 376 c 0,18,19
 386 309 386 309 408.5 270.5 c 128,-1,20
 431 232 431 232 431 182 c 0,21,22
 431 97 431 97 373 39.5 c 128,-1,23
 315 -18 315 -18 229 -18 c 0,24,25
 187 -18 187 -18 137 0 c 128,-1,26
 87 18 87 18 73 18 c 0,27,28
 46 18 46 18 35 -15 c 1,29,-1
 18 -15 l 1,30,-1
 51 208 l 1,31,-1
 70 207 l 2,32,33
 70 203 70 203 69.5 194.5 c 128,-1,34
 69 186 69 186 69 183 c 0,35,36
 69 112 69 112 111 65 c 128,-1,37
 153 18 153 18 215 18 c 0,38,39
 270 18 270 18 307 55.5 c 128,-1,40
 344 93 344 93 344 149 c 0,41,42
 344 182 344 182 331.5 207 c 128,-1,43
 319 232 319 232 284 268 c 2,44,-1
 207 352 l 2,45,46
 161 400 161 400 145.5 429.5 c 128,-1,47
 130 459 130 459 130 499 c 0,48,49
 130 573 130 573 180.5 619.5 c 128,-1,50
 231 666 231 666 309 666 c 0,0,1
EndSplineSet
EndChar

StartChar: T
Encoding: 84 84 53
Width: 555
Flags: W
HStem: 0 16<64 110.762 287.25 354> 618 35<168.917 315 416 544.896>
VStem: 573 16<492 516.773>
DStem2: 171 89 277 120 0.262654 0.96489<-0.962225 548.249>
LayerCount: 3
Fore
SplineSet
633 653 m 1
 589 491 l 1
 573 492 l 1
 574 508 576 524 576 538 c 0
 576 593 543 618 472 618 c 2
 416 618 l 1
 277 120 l 2
 268 86 265 75 265 62 c 0
 265 31 277 22 316 19 c 0
 324 19 338 18 354 16 c 1
 354 0 l 1
 64 0 l 1
 64 16 l 1
 130 21 157 37 171 89 c 2
 315 618 l 1
 163 618 130 603 78 495 c 1
 59 499 l 1
 101 653 l 1
 633 653 l 1
EndSplineSet
Validated: 1
Layer: 2
SplineSet
633 653 m 1,0,-1
 589 491 l 1,1,-1
 573 492 l 2,2,3
 573 494 573 494 574.5 512 c 128,-1,4
 576 530 576 530 576 538 c 0,5,6
 576 618 576 618 472 618 c 2,7,-1
 416 618 l 1,8,-1
 277 120 l 2,9,10
 265 75 265 75 265 62 c 0,11,12
 265 39 265 39 275.5 30 c 128,-1,13
 286 21 286 21 316 19 c 0,14,15
 330 19 330 19 354 16 c 1,16,-1
 354 0 l 1,17,-1
 64 0 l 1,18,-1
 64 16 l 1,19,20
 114 20 114 20 137.5 35.5 c 128,-1,21
 161 51 161 51 171 89 c 2,22,-1
 315 618 l 1,23,24
 235 618 235 618 195.5 609 c 128,-1,25
 156 600 156 600 130.5 575.5 c 128,-1,26
 105 551 105 551 78 495 c 1,27,-1
 59 499 l 1,28,-1
 101 653 l 1,29,-1
 633 653 l 1,0,-1
EndSplineSet
EndChar

StartChar: U
Encoding: 85 85 54
Width: 720
Flags: W
HStem: -18 41<248.641 419.2> 637 16<127 178.734 356.125 400 565 608.972 737.42 765>
VStem: 103 89<73.4541 249.612>
DStem2: 547.281 247.903 579 204 0.280528 0.959846<-166.431 266.442>
LayerCount: 3
Fore
SplineSet
637 590 m 0
 637 631 594 634 565 637 c 1
 565 653 l 1
 765 653 l 1
 765 637 l 1
 703 623 699 618 661 488 c 2
 579 204 l 2
 535 53 451 -18 319 -18 c 0
 193 -18 103 51 103 146 c 0
 103 187 116 250 145 359 c 1
 198 551 l 2
 202 568 205 584 205 596 c 0
 205 625 193 631 127 637 c 1
 127 653 l 1
 400 653 l 1
 400 637 l 1
 333 630 314 618 294 546 c 0
 290 532 192 200 192 141 c 0
 192 70 249 23 333 23 c 0
 504 23 541 224 549 255 c 1
 555 274 560 291 562 305 c 1
 611 473 637 576 637 590 c 0
EndSplineSet
Validated: 1
Layer: 2
SplineSet
637 590 m 0,0,1
 637 609 637 609 623 620 c 128,-1,2
 609 631 609 631 598 633 c 128,-1,3
 587 635 587 635 565 637 c 1,4,-1
 565 653 l 1,5,-1
 765 653 l 1,6,-1
 765 637 l 1,7,8
 744 632 744 632 733.5 627.5 c 128,-1,9
 723 623 723 623 713 616.5 c 128,-1,10
 703 610 703 610 695.5 592 c 128,-1,11
 688 574 688 574 681 553 c 128,-1,12
 674 532 674 532 661 488 c 2,13,-1
 579 204 l 2,14,15
 546 91 546 91 482 36.5 c 128,-1,16
 418 -18 418 -18 319 -18 c 0,17,18
 225 -18 225 -18 164 28.5 c 128,-1,19
 103 75 103 75 103 146 c 0,20,21
 103 201 103 201 145 359 c 2,22,-1
 198 551 l 2,23,24
 205 581 205 581 205 596 c 0,25,26
 205 618 205 618 191 625 c 128,-1,27
 177 632 177 632 127 637 c 1,28,-1
 127 653 l 1,29,-1
 400 653 l 1,30,-1
 400 637 l 1,31,32
 348 632 348 632 328.5 615.5 c 128,-1,33
 309 599 309 599 294 546 c 0,34,35
 192 189 192 189 192 141 c 0,36,37
 192 88 192 88 231 55.5 c 128,-1,38
 270 23 270 23 333 23 c 0,39,40
 494 23 494 23 547.280752662 247.903245355 c 0,41,42
 549 253 549 253 549 255 c 0,43,44
 560 289 560 289 562 305 c 0,45,46
 637 562 637 562 637 590 c 0,0,1
EndSplineSet
EndChar

StartChar: V
Encoding: 86 86 55
Width: 610
Flags: W
HStem: -18 21G<236.731 271.078> 637 16<76 109.18 270.787 316 502 539.533 661.832 688>
DStem2: 242 571 155 502 0.161321 -0.986902<-14.8189 448.832> 308 127 259 -18 0.516946 0.856018<0 508.725>
LayerCount: 3
Fore
SplineSet
688 653 m 1
 688 637 l 1
 665 636 649 624 631 598 c 1
 259 -18 l 1
 240 -18 l 1
 155 502 l 1
 133 627 132 630 76 637 c 1
 76 653 l 1
 316 653 l 1
 316 637 l 1
 253 630 240 620 240 586 c 0
 240 580 240 576 242 571 c 1
 308 127 l 1
 513 483 l 2
 546 541 565 584 565 603 c 0
 565 623 546 631 502 637 c 1
 502 653 l 1
 688 653 l 1
EndSplineSet
Validated: 1
Layer: 2
SplineSet
688 653 m 1,0,-1
 688 637 l 1,1,2
 657 636 657 636 631 598 c 2,3,-1
 259 -18 l 1,4,-1
 240 -18 l 1,5,-1
 155 502 l 2,6,7
 138 596 138 596 128 614 c 128,-1,8
 118 632 118 632 76 637 c 1,9,-1
 76 653 l 1,10,-1
 316 653 l 1,11,-1
 316 637 l 1,12,13
 269 632 269 632 254.5 622 c 128,-1,14
 240 612 240 612 240 586 c 0,15,16
 240 576 240 576 242 571 c 2,17,-1
 308 127 l 1,18,-1
 513 483 l 2,19,20
 565 574 565 574 565 603 c 0,21,22
 565 618 565 618 550.5 625 c 128,-1,23
 536 632 536 632 502 637 c 1,24,-1
 502 653 l 1,25,-1
 688 653 l 1,0,-1
EndSplineSet
EndChar

StartChar: W
Encoding: 87 87 56
Width: 832
Flags: W
HStem: -18 21G<209.563 240.758 505.802 537.429> 637 16<70 110.338 264.656 308 368 418.645 566.952 605 721 763.904 885.996 907>
DStem2: 278 163 231 -18 0.438501 0.89873<0 322.99> 579 163 527 -18 0.462358 0.886693<0 481.265>
LayerCount: 3
Fore
SplineSet
907 653 m 1
 907 637 l 1
 869 625 858 617 831 565 c 2
 527 -18 l 1
 508 -18 l 1
 458 437 l 1
 453 437 l 1
 231 -18 l 1
 212 -18 l 1
 149 499 l 2
 133 630 131 630 70 637 c 1
 70 653 l 1
 308 653 l 1
 308 637 l 1
 246 630 234 621 234 582 c 2
 234 568 l 1
 278 163 l 1
 451 510 l 1
 442 579 l 2
 435 628 425 636 368 637 c 1
 368 653 l 1
 605 653 l 1
 605 637 l 1
 551 631 538 620 538 579 c 2
 538 564 l 1
 579 163 l 1
 765 530 l 2
 778 557 787 582 787 598 c 0
 787 625 775 631 721 637 c 1
 721 653 l 1
 907 653 l 1
EndSplineSet
Validated: 1
Layer: 2
SplineSet
907 653 m 1,0,-1
 907 637 l 1,1,2
 878 628 878 628 864.5 615.5 c 128,-1,3
 851 603 851 603 831 565 c 2,4,-1
 527 -18 l 1,5,-1
 508 -18 l 1,6,-1
 458 437 l 1,7,-1
 453 437 l 1,8,-1
 231 -18 l 1,9,-1
 212 -18 l 1,10,-1
 149 499 l 2,11,12
 144 537 144 537 142 555 c 128,-1,13
 140 573 140 573 134.5 591 c 128,-1,14
 129 609 129 609 126.5 615 c 128,-1,15
 124 621 124 621 114 627 c 128,-1,16
 104 633 104 633 96.5 634 c 128,-1,17
 89 635 89 635 70 637 c 1,18,-1
 70 653 l 1,19,-1
 308 653 l 1,20,-1
 308 637 l 1,21,22
 262 632 262 632 248 621.5 c 128,-1,23
 234 611 234 611 234 582 c 2,24,-1
 234 568 l 1,25,-1
 278 163 l 1,26,-1
 451 510 l 1,27,-1
 442 579 l 2,28,29
 437 616 437 616 424 626 c 128,-1,30
 411 636 411 636 368 637 c 1,31,-1
 368 653 l 1,32,-1
 605 653 l 1,33,-1
 605 637 l 1,34,35
 564 632 564 632 551 621 c 128,-1,36
 538 610 538 610 538 579 c 2,37,-1
 538 564 l 1,38,-1
 579 163 l 1,39,-1
 765 530 l 2,40,41
 787 576 787 576 787 598 c 0,42,43
 787 618 787 618 774.5 625 c 128,-1,44
 762 632 762 632 721 637 c 1,45,-1
 721 653 l 1,46,-1
 907 653 l 1,0,-1
EndSplineSet
EndChar

StartChar: X
Encoding: 88 88 57
Width: 610
Flags: W
HStem: 0 16<-29 -4.67383 135.474 185 294 349.167 518.085 567> 637 16<76 118.731 298.344 340 447 488.438 635.01 655>
DStem2: 284 541 168 576 0.375112 -0.926979<-55.4518 159.325 206.489 207.6 253.837 481.723> 190 215 141 97 0.658145 0.752891<-169.729 107.882 234.711 499.478>
LayerCount: 3
Fore
SplineSet
655 653 m 1
 655 637 l 1
 612 623 582 601 530 542 c 2
 360 349 l 1
 463 89 l 1
 488 29 497 23 567 16 c 1
 567 0 l 1
 294 0 l 1
 294 16 l 1
 360 21 371 26 371 56 c 0
 371 70 366 86 359 104 c 2
 291 270 l 1
 141 97 l 2
 127 82 120 64 120 50 c 0
 120 25 138 16 185 16 c 1
 185 0 l 1
 -29 0 l 1
 -29 16 l 1
 23 26 53 53 190 215 c 1
 274 313 l 1
 168 576 l 2
 149 623 133 631 76 637 c 1
 76 653 l 1
 340 653 l 1
 340 637 l 1
 286 630 270 621 270 596 c 0
 270 583 272 565 284 541 c 1
 343 393 l 1
 488 560 l 2
 502 576 508 587 508 601 c 0
 508 624 497 631 447 637 c 1
 447 653 l 1
 655 653 l 1
EndSplineSet
Validated: 1
Layer: 2
SplineSet
655 653 m 1,0,-1
 655 637 l 1,1,2
 622 626 622 626 595.5 606 c 128,-1,3
 569 586 569 586 530 542 c 2,4,-1
 360 349 l 1,5,-1
 463 89 l 2,6,7
 482 44 482 44 498 32.5 c 128,-1,8
 514 21 514 21 567 16 c 1,9,-1
 567 0 l 1,10,-1
 294 0 l 1,11,-1
 294 16 l 1,12,13
 344 20 344 20 357.5 27 c 128,-1,14
 371 34 371 34 371 56 c 0,15,16
 371 73 371 73 359 104 c 2,17,-1
 291 270 l 1,18,-1
 141 97 l 2,19,20
 120 74 120 74 120 50 c 0,21,22
 120 31 120 31 135 23.5 c 128,-1,23
 150 16 150 16 185 16 c 1,24,-1
 185 0 l 1,25,-1
 -29 0 l 1,26,-1
 -29 16 l 1,27,28
 10 24 10 24 48.5 59 c 128,-1,29
 87 94 87 94 190 215 c 2,30,-1
 274 313 l 1,31,-1
 168 576 l 2,32,33
 154 611 154 611 137 621.5 c 128,-1,34
 120 632 120 632 76 637 c 1,35,-1
 76 653 l 1,36,-1
 340 653 l 1,37,-1
 340 637 l 1,38,39
 299 632 299 632 284.5 623.5 c 128,-1,40
 270 615 270 615 270 596 c 0,41,42
 270 569 270 569 284 541 c 2,43,-1
 343 393 l 1,44,-1
 488 560 l 2,45,46
 508 583 508 583 508 601 c 0,47,48
 508 618 508 618 496 625.5 c 128,-1,49
 484 633 484 633 447 637 c 1,50,-1
 447 653 l 1,51,-1
 655 653 l 1,0,-1
EndSplineSet
EndChar

StartChar: Y
Encoding: 89 89 58
Width: 555
Flags: W
HStem: 0 16<78 124.424 302.971 368> 637 16<91 125.172 281.585 330 444 494.91>
DStem2: 269.5 545.5 167 571 0.278492 -0.960439<-56.2954 206.103> 245 302 315 205 0.279481 0.960151<-225.933 0> 325 347 344 306 0.628203 0.77805<0 265.875>
LayerCount: 3
Fore
SplineSet
278 56 m 0
 278 15 316 23 368 16 c 1
 368 0 l 1
 78 0 l 1
 78 16 l 1
 144 21 166 37 183 89 c 1
 245 302 l 1
 167 571 l 1
 149 625 146 628 91 637 c 1
 91 653 l 1
 330 653 l 1
 330 637 l 1
 270 631 258 625 258 601 c 0
 258 578 283 501 325 347 c 1
 340 365 346 374 363 393 c 0
 467 514 513 579 513 606 c 0
 513 631 483 634 444 637 c 1
 444 653 l 1
 633 653 l 1
 633 637 l 1
 603 623 595 617 562 576 c 2
 344 306 l 1
 315 205 l 1
 315 205 278 90 278 56 c 0
EndSplineSet
Validated: 1
Layer: 2
SplineSet
278 56 m 0,0,1
 278 44 278 44 282 37 c 128,-1,2
 286 30 286 30 295.5 26.5 c 128,-1,3
 305 23 305 23 313 21.5 c 128,-1,4
 321 20 321 20 339 18.5 c 128,-1,5
 357 17 357 17 368 16 c 1,6,-1
 368 0 l 1,7,-1
 78 0 l 1,8,-1
 78 16 l 1,9,10
 127 20 127 20 148.5 35 c 128,-1,11
 170 50 170 50 183 89 c 2,12,-1
 245 302 l 1,13,-1
 167 571 l 2,14,15
 153 612 153 612 142.5 621 c 128,-1,16
 132 630 132 630 91 637 c 1,17,-1
 91 653 l 1,18,-1
 330 653 l 1,19,-1
 330 637 l 1,20,21
 285 632 285 632 271.5 625.5 c 128,-1,22
 258 619 258 619 258 601 c 0,23,24
 258 594 258 594 260.5 581.5 c 128,-1,25
 263 569 263 569 269.5 545.5 c 128,-1,26
 276 522 276 522 283 497.5 c 128,-1,27
 290 473 290 473 302 429.5 c 128,-1,28
 314 386 314 386 325 347 c 1,29,30
 329 352 329 352 341 367 c 128,-1,31
 353 382 353 382 363 393 c 0,32,33
 513 568 513 568 513 606 c 0,34,35
 513 623 513 623 496.5 628.5 c 128,-1,36
 480 634 480 634 444 637 c 1,37,-1
 444 653 l 1,38,-1
 633 653 l 1,39,-1
 633 637 l 1,40,41
 610 626 610 626 598 616 c 128,-1,42
 586 606 586 606 562 576 c 2,43,-1
 344 306 l 1,44,-1
 315 205 l 2,45,46
 278 90 278 90 278 56 c 0,0,1
EndSplineSet
EndChar

StartChar: Z
Encoding: 90 90 59
Width: 555
Flags: W
HStem: 0 37<123 429.119> 617 36<180.527 473>
DStem2: -6 15 123 37 0.6258 0.779983<97.8879 769.308>
LayerCount: 3
Fore
SplineSet
284 37 m 2
 451 37 481 67 535 171 c 1
 554 168 l 1
 499 0 l 1
 -6 0 l 1
 -6 15 l 1
 473 617 l 1
 302 617 l 2
 227 617 174 603 145 580 c 1
 126 562 114 546 92 502 c 1
 75 507 l 1
 120 653 l 1
 606 653 l 1
 606 639 l 1
 123 37 l 1
 284 37 l 2
EndSplineSet
Validated: 1
Layer: 2
SplineSet
284 37 m 2,0,1
 368 37 368 37 413 50 c 128,-1,2
 458 63 458 63 481.5 88.5 c 128,-1,3
 505 114 505 114 535 171 c 1,4,-1
 554 168 l 1,5,-1
 499 0 l 1,6,-1
 -6 0 l 1,7,-1
 -6 15 l 1,8,-1
 473 617 l 1,9,-1
 302 617 l 2,10,11
 192 617 192 617 145 580 c 0,12,13
 118 555 118 555 92 502 c 1,14,-1
 75 507 l 1,15,-1
 120 653 l 1,16,-1
 606 653 l 1,17,-1
 606 639 l 1,18,-1
 123 37 l 1,19,-1
 284 37 l 2,0,1
EndSplineSet
EndChar

StartChar: bracketleft
Encoding: 91 91 60
Width: 388
Flags: W
HStem: -152 26<116.276 209> 636 28<290.315 384>
DStem2: 21 -152 116 -78 0.234679 0.972073<73.7975 821.528>
LayerCount: 3
Fore
SplineSet
384 636 m 1
 322 636 l 2
 293 636 281 627 275 601 c 2
 116 -78 l 1
 111 -92 111 -92 111 -98 c 0
 111 -117 127 -126 160 -126 c 2
 215 -126 l 1
 209 -152 l 1
 21 -152 l 1
 218 664 l 1
 391 664 l 1
 384 636 l 1
EndSplineSet
Validated: 1
Layer: 2
SplineSet
384 636 m 1,0,-1
 322 636 l 2,1,2
 300 636 300 636 290 628.5 c 128,-1,3
 280 621 280 621 275 601 c 2,4,-1
 116 -78 l 2,5,6
 111 -92 111 -92 111 -98 c 0,7,8
 111 -126 111 -126 160 -126 c 2,9,-1
 215 -126 l 1,10,-1
 209 -152 l 1,11,-1
 21 -152 l 1,12,-1
 218 664 l 1,13,-1
 391 664 l 1,14,-1
 384 636 l 1,0,-1
EndSplineSet
EndChar

StartChar: backslash
Encoding: 92 92 61
Width: 276
Flags: W
HStem: -18 21G<239.55 319> 646 20G<-41 39.4211>
DStem2: 31 666 -41 666 0.389201 -0.921153<0 714.525>
LayerCount: 3
Fore
SplineSet
-41 666 m 1
 31 666 l 1
 319 -18 l 1
 248 -18 l 1
 -41 666 l 1
EndSplineSet
Validated: 1
Layer: 2
SplineSet
-41 666 m 1,0,-1
 31 666 l 1,1,-1
 319 -18 l 1,2,-1
 248 -18 l 1,3,-1
 -41 666 l 1,0,-1
EndSplineSet
EndChar

StartChar: bracketright
Encoding: 93 93 62
Width: 388
Flags: W
HStem: -152 26<19 112.715> 636 28<193 287.203>
DStem2: 289 587 382 664 0.234679 0.972073<-726.804 21.6702>
LayerCount: 3
Fore
SplineSet
19 -126 m 1
 81 -126 l 2
 111 -126 120 -119 127 -89 c 2
 289 587 l 1
 291 603 291 605 291 609 c 0
 291 627 275 636 243 636 c 2
 186 636 l 1
 193 664 l 1
 382 664 l 1
 185 -152 l 1
 12 -152 l 1
 19 -126 l 1
EndSplineSet
Validated: 1
Layer: 2
SplineSet
19 -126 m 1,0,-1
 81 -126 l 2,1,2
 104 -126 104 -126 113 -118.5 c 128,-1,3
 122 -111 122 -111 127 -89 c 2,4,-1
 289 587 l 2,5,6
 291 603 291 603 291 609 c 0,7,8
 291 636 291 636 243 636 c 2,9,-1
 186 636 l 1,10,-1
 193 664 l 1,11,-1
 382 664 l 1,12,-1
 185 -152 l 1,13,-1
 12 -152 l 1,14,-1
 19 -126 l 1,0,-1
EndSplineSet
EndChar

StartChar: asciicircum
Encoding: 94 94 63
Width: 421
Flags: W
HStem: 646 20G<172.055 251.836>
DStem2: 0 300 67 300 0.445255 0.895404<29.8321 353.616> 242 666 211 590 0.44132 -0.89735<54.5177 377.858>
LayerCount: 3
Fore
SplineSet
67 300 m 1
 0 300 l 1
 182 666 l 1
 242 666 l 1
 422 300 l 1
 354 300 l 1
 211 590 l 1
 67 300 l 1
EndSplineSet
Validated: 1
Layer: 2
SplineSet
67 300 m 1,0,-1
 0 300 l 1,1,-1
 182 666 l 1,2,-1
 242 666 l 1,3,-1
 422 300 l 1,4,-1
 354 300 l 1,5,-1
 211 590 l 1,6,-1
 67 300 l 1,0,-1
EndSplineSet
EndChar

StartChar: underscore
Encoding: 95 95 64
Width: 499
Flags: W
HStem: -125 50<0 499>
LayerCount: 3
Fore
SplineSet
499 -125 m 1
 0 -125 l 1
 0 -75 l 1
 499 -75 l 1
 499 -125 l 1
EndSplineSet
Validated: 1
Layer: 2
SplineSet
499 -125 m 1,0,-1
 0 -125 l 1,1,-1
 0 -75 l 1,2,-1
 499 -75 l 1,3,-1
 499 -125 l 1,0,-1
EndSplineSet
EndChar

StartChar: grave
Encoding: 96 96 65
Width: 332
Flags: W
HStem: 492 172
VStem: 122 189
LayerCount: 3
Fore
SplineSet
280 492 m 1
 141 598 l 2
 127 608 122 618 122 630 c 0
 122 649 136 664 157 664 c 0
 171 664 182 658 195 642 c 2
 311 492 l 1
 280 492 l 1
EndSplineSet
Validated: 1
Layer: 2
SplineSet
280 492 m 1,0,-1
 141 598 l 2,1,2
 122 612 122 612 122 630 c 0,3,4
 122 644 122 644 132 654 c 128,-1,5
 142 664 142 664 157 664 c 0,6,7
 177 664 177 664 195 642 c 2,8,-1
 311 492 l 1,9,-1
 280 492 l 1,0,-1
EndSplineSet
EndChar

StartChar: a
Encoding: 97 97 66
Width: 499
Flags: W
HStem: -10 51<116.328 199.432 343.502 393.814> 419 22<260.956 341.405>
VStem: 18 83<56.0095 209.47> 297 74<20 153.124>
LayerCount: 3
Fore
SplineSet
384 41 m 0
 395 41 419 62 464 110 c 1
 476 100 l 1
 401 9 376 -10 337 -10 c 0
 309 -10 297 1 297 31 c 0
 297 56 300 67 319 146 c 1
 231 22 189 -12 119 -12 c 0
 56 -12 18 29 18 100 c 0
 18 258 171 441 303 441 c 0
 346 441 375 420 382 382 c 1
 394 431 l 1
 397 434 l 1
 458 441 l 1
 464 438 l 1
 464 438 371 92 371 54 c 0
 371 47 376 41 384 41 c 0
304 419 m 0
 193 419 101 197 101 113 c 0
 101 67 125 38 160 38 c 0
 187 38 223 56 246 82 c 0
 315 157 365 274 365 357 c 0
 365 394 341 419 304 419 c 0
EndSplineSet
Validated: 1
Layer: 2
SplineSet
384 41 m 0,0,1
 399 41 399 41 464 110 c 1,2,-1
 476 100 l 1,3,4
 420 32 420 32 393 11 c 128,-1,5
 366 -10 366 -10 337 -10 c 0,6,7
 316 -10 316 -10 306.5 -0.5 c 128,-1,8
 297 9 297 9 297 31 c 0,9,10
 297 55 297 55 319 146 c 1,11,12
 253 53 253 53 212 20.5 c 128,-1,13
 171 -12 171 -12 119 -12 c 0,14,15
 72 -12 72 -12 45 17.5 c 128,-1,16
 18 47 18 47 18 100 c 0,17,18
 18 177 18 177 61.5 257 c 128,-1,19
 105 337 105 337 172 389 c 128,-1,20
 239 441 239 441 303 441 c 0,21,22
 371 441 371 441 382 382 c 1,23,-1
 394 431 l 1,24,-1
 397 434 l 1,25,-1
 458 441 l 1,26,-1
 464 438 l 1,27,28
 371 92 371 92 371 54 c 0,29,30
 371 41 371 41 384 41 c 0,0,1
304 419 m 0,31,32
 253 419 253 419 203.5 359 c 128,-1,33
 154 299 154 299 127.5 228.5 c 128,-1,34
 101 158 101 158 101 113 c 0,35,36
 101 79 101 79 117.5 58.5 c 128,-1,37
 134 38 134 38 160 38 c 0,38,39
 180 38 180 38 204.5 50.5 c 128,-1,40
 229 63 229 63 246 82 c 0,41,42
 298 138 298 138 331.5 216 c 128,-1,43
 365 294 365 294 365 357 c 0,44,45
 365 385 365 385 348.5 402 c 128,-1,46
 332 419 332 419 304 419 c 0,31,32
EndSplineSet
EndChar

StartChar: b
Encoding: 98 98 67
Width: 499
Flags: W
HStem: -12 24<115.948 212.484> 393 48<278.693 367.462> 643 18<110 163.164> 663 20G<221 268>
VStem: 23 85<17.916 70.5985> 388 85<217.003 370.627>
DStem2: 160 546 164 290 0.256453 0.966557<-495.911 -248.892 -246.413 71.8498>
LayerCount: 3
Fore
SplineSet
110 643 m 1
 110 661 l 1
 177 668 212 674 264 683 c 1
 268 678 l 1
 164 290 l 1
 234 400 287 441 357 441 c 0
 423 441 473 391 473 321 c 0
 473 164 308 -12 157 -12 c 0
 100 -12 23 19 23 42 c 2
 23 45 l 1
 160 546 l 1
 163 568 174 596 174 617 c 0
 174 639 168 642 110 643 c 1
318 393 m 0
 206 393 108 150 108 45 c 0
 108 23 125 12 155 12 c 0
 198 12 242 34 278 70 c 1
 337 133 388 240 388 306 c 0
 388 359 360 393 318 393 c 0
EndSplineSet
Validated: 1
Layer: 2
SplineSet
110 643 m 1,0,-1
 110 661 l 1,1,2
 178 668 178 668 264 683 c 1,3,-1
 268 678 l 1,4,-1
 164 290 l 1,5,6
 216 372 216 372 260 406.5 c 128,-1,7
 304 441 304 441 357 441 c 0,8,9
 407 441 407 441 440 407 c 128,-1,10
 473 373 473 373 473 321 c 0,11,12
 473 244 473 244 426 166 c 128,-1,13
 379 88 379 88 305 38 c 128,-1,14
 231 -12 231 -12 157 -12 c 0,15,16
 114 -12 114 -12 68.5 6.5 c 128,-1,17
 23 25 23 25 23 42 c 2,18,-1
 23 45 l 1,19,-1
 160 546 l 2,20,21
 161 554 161 554 167.5 579.5 c 128,-1,22
 174 605 174 605 174 617 c 0,23,24
 174 634 174 634 163.5 638 c 128,-1,25
 153 642 153 642 110 643 c 1,0,-1
318 393 m 0,26,27
 266 393 266 393 215 327 c 128,-1,28
 164 261 164 261 136 180.5 c 128,-1,29
 108 100 108 100 108 45 c 0,30,31
 108 12 108 12 155 12 c 0,32,33
 220 12 220 12 278 70 c 0,34,35
 323 118 323 118 355.5 187.5 c 128,-1,36
 388 257 388 257 388 306 c 0,37,38
 388 346 388 346 369 369.5 c 128,-1,39
 350 393 350 393 318 393 c 0,26,27
EndSplineSet
EndChar

StartChar: c
Encoding: 99 99 68
Width: 443
Flags: W
HStem: -12 37<151.625 261.523> 420 21<261.925 349.733>
VStem: 29 87<58.5142 246.079> 353 72<339.619 410.006>
LayerCount: 3
Fore
SplineSet
315 420 m 0
 196 420 116 263 116 139 c 0
 116 67 149 25 207 25 c 0
 256 25 294 47 350 105 c 1
 366 97 l 1
 306 21 250 -12 177 -12 c 0
 83 -12 29 44 29 139 c 0
 29 294 170 441 319 441 c 0
 379 441 425 406 425 360 c 0
 425 334 404 313 376 313 c 0
 353 313 338 328 338 352 c 0
 338 371 353 386 353 400 c 0
 353 412 338 420 315 420 c 0
EndSplineSet
Validated: 1
Layer: 2
SplineSet
315 420 m 0,0,1
 231 420 231 420 173.5 330 c 128,-1,2
 116 240 116 240 116 139 c 0,3,4
 116 85 116 85 140 55 c 128,-1,5
 164 25 164 25 207 25 c 0,6,7
 243 25 243 25 275.5 43 c 128,-1,8
 308 61 308 61 350 105 c 1,9,-1
 366 97 l 1,10,11
 321 40 321 40 276.5 14 c 128,-1,12
 232 -12 232 -12 177 -12 c 0,13,14
 107 -12 107 -12 68 28 c 128,-1,15
 29 68 29 68 29 139 c 0,16,17
 29 255 29 255 118 348 c 128,-1,18
 207 441 207 441 319 441 c 0,19,20
 364 441 364 441 394.5 417.5 c 128,-1,21
 425 394 425 394 425 360 c 0,22,23
 425 340 425 340 411 326.5 c 128,-1,24
 397 313 397 313 376 313 c 0,25,26
 359 313 359 313 348.5 323.5 c 128,-1,27
 338 334 338 334 338 352 c 0,28,29
 338 362 338 362 345.5 378 c 128,-1,30
 353 394 353 394 353 400 c 0,31,32
 353 420 353 420 315 420 c 0,0,1
EndSplineSet
EndChar

StartChar: d
Encoding: 100 100 69
Width: 499
Flags: W
HStem: -13 50<118.261 196.636 337.009 389.287> 417 24<261.34 340.698> 643 18<369 420.164> 663 20G<482.5 527>
VStem: 15 88<53.2083 206.62> 287 76<21.5 138.234>
DStem2: 326.5 210.5 428 306 0.257752 0.966211<-96.5299 149.816 177.433 419.117>
LayerCount: 3
Fore
SplineSet
463 111 m 1
 475 101 l 1
 423 28 371 -13 330 -13 c 0
 305 -13 287 4 287 32 c 0
 287 56 289 70 300 122 c 1
 231 21 187 -12 120 -12 c 0
 56 -12 15 32 15 103 c 0
 15 253 177 441 308 441 c 0
 346 441 365 425 372 382 c 1
 416 546 l 1
 431 598 431 603 431 617 c 0
 431 639 423 642 369 643 c 1
 369 661 l 1
 434 666 469 672 521 683 c 1
 527 678 l 1
 476 478 456 398 428 306 c 0
 395 196 363 75 363 60 c 0
 363 48 371 40 381 40 c 0
 398 40 409 48 463 111 c 1
356 360 m 0
 356 404 336 417 305 417 c 0
 208 417 103 222 103 103 c 0
 103 64 126 37 160 37 c 0
 252 37 356 209 356 360 c 0
EndSplineSet
Validated: 1
Layer: 2
SplineSet
463 111 m 1,0,-1
 475 101 l 1,1,2
 394 -13 394 -13 330 -13 c 0,3,4
 311 -13 311 -13 299 -1 c 128,-1,5
 287 11 287 11 287 32 c 0,6,7
 287 61 287 61 300 122 c 1,8,9
 248 46 248 46 209 17 c 128,-1,10
 170 -12 170 -12 120 -12 c 0,11,12
 72 -12 72 -12 43.5 19 c 128,-1,13
 15 50 15 50 15 103 c 0,14,15
 15 176 15 176 60.5 256 c 128,-1,16
 106 336 106 336 175 388.5 c 128,-1,17
 244 441 244 441 308 441 c 0,18,19
 337 441 337 441 352 427.5 c 128,-1,20
 367 414 367 414 372 382 c 1,21,-1
 416 546 l 2,22,23
 431 598 431 598 431 617 c 0,24,25
 431 633 431 633 420.5 637.5 c 128,-1,26
 410 642 410 642 369 643 c 1,27,-1
 369 661 l 1,28,29
 444 667 444 667 521 683 c 1,30,-1
 527 678 l 1,31,32
 454 390 454 390 428 306 c 0,33,34
 363 89 363 89 363 60 c 0,35,36
 363 40 363 40 381 40 c 0,37,38
 394 40 394 40 409 52.5 c 128,-1,39
 424 65 424 65 463 111 c 1,0,-1
356 360 m 0,40,41
 356 417 356 417 305 417 c 0,42,43
 259 417 259 417 210.5 363.5 c 128,-1,44
 162 310 162 310 132.5 236 c 128,-1,45
 103 162 103 162 103 103 c 0,46,47
 103 74 103 74 119 55.5 c 128,-1,48
 135 37 135 37 160 37 c 0,49,50
 205 37 205 37 251 86 c 128,-1,51
 297 135 297 135 326.5 210.5 c 128,-1,52
 356 286 356 286 356 360 c 0,40,41
EndSplineSet
EndChar

StartChar: e
Encoding: 101 101 70
Width: 443
Flags: W
HStem: -12 46<148.012 255.791> 417 24<272.259 336.882>
VStem: 31 88<62.5882 203.419> 346 66<315.789 410.337>
LayerCount: 3
Fore
SplineSet
357 108 m 1
 371 97 l 1
 311 29 234 -12 163 -12 c 0
 85 -12 31 45 31 126 c 0
 31 275 187 441 333 441 c 0
 382 441 412 415 412 374 c 0
 412 287 306 211 157 190 c 1
 127 186 l 1
 120 154 119 139 119 125 c 0
 119 70 155 34 212 34 c 0
 255 34 286 50 357 108 c 1
152 252 m 2
 135 208 l 1
 221 229 259 248 296 283 c 0
 327 312 346 349 346 379 c 0
 346 401 333 417 311 417 c 0
 261 417 186 341 152 252 c 2
EndSplineSet
Validated: 1
Layer: 2
SplineSet
357 108 m 1,0,-1
 371 97 l 1,1,2
 326 46 326 46 271 17 c 128,-1,3
 216 -12 216 -12 163 -12 c 0,4,5
 105 -12 105 -12 68 26.5 c 128,-1,6
 31 65 31 65 31 126 c 0,7,8
 31 238 31 238 127.5 339.5 c 128,-1,9
 224 441 224 441 333 441 c 0,10,11
 370 441 370 441 391 423 c 128,-1,12
 412 405 412 405 412 374 c 0,13,14
 412 309 412 309 340.5 257.5 c 128,-1,15
 269 206 269 206 157 190 c 2,16,-1
 127 186 l 1,17,18
 119 149 119 149 119 125 c 0,19,20
 119 84 119 84 144 59 c 128,-1,21
 169 34 169 34 212 34 c 0,22,23
 244 34 244 34 274 49 c 128,-1,24
 304 64 304 64 357 108 c 1,0,-1
152 252 m 2,25,-1
 135 208 l 1,26,27
 198 223 198 223 233 239.5 c 128,-1,28
 268 256 268 256 296 283 c 0,29,30
 346 330 346 330 346 379 c 0,31,32
 346 396 346 396 336.5 406.5 c 128,-1,33
 327 417 327 417 311 417 c 0,34,35
 273 417 273 417 225 367.5 c 128,-1,36
 177 318 177 318 152 252 c 2,25,-1
EndSplineSet
EndChar

StartChar: f
Encoding: 102 102 71
Width: 276
Flags: W
HStem: -207 21<-80.0636 -30.687> 395 33<42 125 211 313> 656 22<298.887 353.78>
VStem: -146 65<-185.78 -130.782> 354 69<598.43 655.968>
DStem2: 37 -23 132 76 0.20601 0.97855<-61.3093 427.163 477.172 590.417>
LayerCount: 3
Fore
SplineSet
-70 -144 m 0
 -70 -154 -81 -165 -81 -170 c 0
 -81 -179 -72 -186 -60 -186 c 0
 -18 -186 15 -130 37 -23 c 2
 125 395 l 1
 35 395 l 1
 42 428 l 1
 133 428 l 1
 166 530 215 678 338 678 c 0
 387 678 423 650 423 612 c 0
 423 590 404 573 382 573 c 0
 360 573 346 589 346 612 c 0
 346 632 354 628 354 645 c 0
 354 650 346 656 333 656 c 0
 277 656 240 584 211 428 c 1
 319 428 l 1
 313 395 l 1
 204 395 l 1
 132 76 l 2
 91 -108 21 -207 -67 -207 c 0
 -111 -207 -146 -180 -146 -146 c 0
 -146 -123 -130 -105 -110 -105 c 0
 -89 -105 -70 -122 -70 -144 c 0
EndSplineSet
Validated: 1
Layer: 2
SplineSet
-70 -144 m 0,0,1
 -70 -150 -70 -150 -75.5 -159 c 128,-1,2
 -81 -168 -81 -168 -81 -170 c 0,3,4
 -81 -186 -81 -186 -60 -186 c 0,5,6
 3 -186 3 -186 37 -23 c 2,7,-1
 125 395 l 1,8,-1
 35 395 l 1,9,-1
 42 428 l 1,10,-1
 133 428 l 1,11,12
 146 470 146 470 155 494.5 c 128,-1,13
 164 519 164 519 183.5 558.5 c 128,-1,14
 203 598 203 598 222.5 620.5 c 128,-1,15
 242 643 242 643 272.5 660.5 c 128,-1,16
 303 678 303 678 338 678 c 0,17,18
 375 678 375 678 399 659.5 c 128,-1,19
 423 641 423 641 423 612 c 0,20,21
 423 596 423 596 411 584.5 c 128,-1,22
 399 573 399 573 382 573 c 0,23,24
 366 573 366 573 356 584 c 128,-1,25
 346 595 346 595 346 612 c 0,26,27
 346 622 346 622 350 629.5 c 128,-1,28
 354 637 354 637 354 645 c 0,29,30
 354 656 354 656 333 656 c 0,31,32
 291 656 291 656 262 601 c 128,-1,33
 233 546 233 546 211 428 c 1,34,-1
 319 428 l 1,35,-1
 313 395 l 1,36,-1
 204 395 l 1,37,-1
 132 76 l 2,38,39
 101 -62 101 -62 50 -134.5 c 128,-1,40
 -1 -207 -1 -207 -67 -207 c 0,41,42
 -100 -207 -100 -207 -123 -189 c 128,-1,43
 -146 -171 -146 -171 -146 -146 c 0,44,45
 -146 -129 -146 -129 -135.5 -117 c 128,-1,46
 -125 -105 -125 -105 -110 -105 c 0,47,48
 -94 -105 -94 -105 -82 -116.5 c 128,-1,49
 -70 -128 -70 -128 -70 -144 c 0,0,1
EndSplineSet
EndChar

StartChar: g
Encoding: 103 103 72
Width: 499
Flags: W
HStem: -207 22<125.863 254.604> 151 20<201.172 271.43> 366 38<422 472> 419 22<254.398 331.103>
VStem: 7 56<-145.378 -33.4524> 98 73<68 120.401 199.796 336.488> 325 60<-130.056 -39.8662> 352 79<251.199 365.235>
LayerCount: 3
Fore
SplineSet
297 441 m 0xfe
 372 441 401 404 412 404 c 2
 472 404 l 1
 472 366 l 1
 422 366 l 1
 428 346 431 327 431 311 c 0xfd
 431 231 337 151 246 151 c 0
 219 151 216 155 208 155 c 0
 195 155 171 129 171 114 c 0
 171 100 198 83 242 72 c 0
 337 47 385 3 385 -60 c 0
 385 -146 300 -207 174 -207 c 0
 75 -207 7 -161 7 -92 c 0
 7 -45 26 -26 125 40 c 1
 105 53 98 64 98 78 c 0
 98 103 116 122 174 163 c 1
 119 187 97 218 97 270 c 0
 97 365 186 441 297 441 c 0xfe
148 28 m 1
 148 28 63 -10 63 -82 c 0
 63 -146 110 -185 190 -185 c 0
 267 -185 325 -144 325 -89 c 0xfe
 325 -10 185 13 148 28 c 1
234 171 m 0
 316 171 352 294 352 349 c 0xfd
 352 395 333 419 296 419 c 0
 231 419 174 338 174 248 c 0
 174 201 196 171 234 171 c 0
EndSplineSet
Validated: 1
Layer: 2
SplineSet
297 441 m 0,0,1
 330 441 330 441 356 431.5 c 128,-1,2
 382 422 382 422 395.5 413 c 128,-1,3
 409 404 409 404 412 404 c 2,4,-1
 472 404 l 1,5,-1
 472 366 l 1,6,-1
 422 366 l 1,7,8
 431 336 431 336 431 311 c 0,9,10
 431 251 431 251 372.5 201 c 128,-1,11
 314 151 314 151 246 151 c 0,12,13
 230 151 230 151 220 153 c 128,-1,14
 210 155 210 155 208 155 c 0,15,16
 198 155 198 155 184.5 140 c 128,-1,17
 171 125 171 125 171 114 c 0,18,19
 171 90 171 90 242 72 c 0,20,21
 385 34 385 34 385 -60 c 0,22,23
 385 -125 385 -125 326.5 -166 c 128,-1,24
 268 -207 268 -207 174 -207 c 0,25,26
 100 -207 100 -207 53.5 -175.5 c 128,-1,27
 7 -144 7 -144 7 -92 c 0,28,29
 7 -57 7 -57 28.5 -33.5 c 128,-1,30
 50 -10 50 -10 125 40 c 1,31,32
 98 58 98 58 98 78 c 0,33,34
 98 97 98 97 114 114.5 c 128,-1,35
 130 132 130 132 174 163 c 1,36,37
 133 181 133 181 115 206 c 128,-1,38
 97 231 97 231 97 270 c 0,39,40
 97 341 97 341 155.5 391 c 128,-1,41
 214 441 214 441 297 441 c 0,0,1
148 28 m 1,42,43
 145 26 145 26 139 23 c 128,-1,44
 133 20 133 20 118.5 10 c 128,-1,45
 104 -0 104 -0 92.5 -12 c 128,-1,46
 81 -24 81 -24 72 -43 c 128,-1,47
 63 -62 63 -62 63 -82 c 0,48,49
 63 -130 63 -130 96.5 -157.5 c 128,-1,50
 130 -185 130 -185 190 -185 c 0,51,52
 248 -185 248 -185 286.5 -157.5 c 128,-1,53
 325 -130 325 -130 325 -89 c 0,54,55
 325 -67 325 -67 311 -48.5 c 128,-1,56
 297 -30 297 -30 273 -17.5 c 128,-1,57
 249 -5 249 -5 227 3 c 128,-1,58
 205 11 205 11 180 18 c 128,-1,59
 155 25 155 25 148 28 c 1,42,43
234 171 m 0,60,61
 272 171 272 171 300.5 205 c 128,-1,62
 329 239 329 239 340.5 278 c 128,-1,63
 352 317 352 317 352 349 c 0,64,65
 352 419 352 419 296 419 c 0,66,67
 247 419 247 419 210.5 367.5 c 128,-1,68
 174 316 174 316 174 248 c 0,69,70
 174 212 174 212 190 191.5 c 128,-1,71
 206 171 206 171 234 171 c 0,60,61
EndSplineSet
EndChar

StartChar: h
Encoding: 104 104 73
Width: 499
Flags: W
HStem: -9 47<311 397.338> 0 21G<19 108.5> 390 51<315.2 396.5> 642 14<111 160.484> 663 20G<239 272>
VStem: 289 79<14.3949 134.097> 371 77<281.846 388.656>
DStem2: 19 0 94 0 0.253931 0.967222<19.0449 637.052>
LayerCount: 3
Fore
SplineSet
448 374 m 0x7e
 448 316 368 98 368 56 c 0
 368 47 374 38 382 38 c 0
 398 38 412 48 464 117 c 1
 478 105 l 1
 417 18 382 -9 333 -9 c 0xbe
 305 -9 289 7 289 34 c 0
 289 45 294 76 308 125 c 1
 363 333 l 2
 368 349 371 360 371 365 c 0
 371 378 357 390 341 390 c 0
 308 390 239 328 187 249 c 0
 146 187 133 154 94 0 c 1
 19 0 l 1
 154 513 l 2
 168 565 179 596 179 617 c 0
 179 632 159 642 141 642 c 2
 111 642 l 1
 111 656 l 1
 171 664 209 669 268 683 c 1
 272 678 l 1
 152 230 l 1
 246 375 316 441 382 441 c 0
 420 441 448 415 448 374 c 0x7e
EndSplineSet
Validated: 1
Layer: 2
SplineSet
448 374 m 0,0,1
 448 343 448 343 408 209 c 128,-1,2
 368 75 368 75 368 56 c 0,3,4
 368 49 368 49 372 43.5 c 128,-1,5
 376 38 376 38 382 38 c 0,6,7
 395 38 395 38 411 53 c 128,-1,8
 427 68 427 68 464 117 c 1,9,-1
 478 105 l 1,10,11
 432 40 432 40 401 15.5 c 128,-1,12
 370 -9 370 -9 333 -9 c 0,13,14
 289 -9 289 -9 289 34 c 0,15,16
 289 59 289 59 308 125 c 2,17,-1
 363 333 l 2,18,19
 371 359 371 359 371 365 c 0,20,21
 371 375 371 375 362 382.5 c 128,-1,22
 353 390 353 390 341 390 c 0,23,24
 316 390 316 390 271 349 c 128,-1,25
 226 308 226 308 187 249 c 0,26,27
 156 202 156 202 139.5 158 c 128,-1,28
 123 114 123 114 94 0 c 1,29,-1
 19 0 l 1,30,-1
 154 513 l 2,31,32
 179 606 179 606 179 617 c 128,-1,33
 179 628 179 628 167 635 c 128,-1,34
 155 642 155 642 141 642 c 2,35,-1
 111 642 l 1,36,-1
 111 656 l 1,37,38
 210 669 210 669 268 683 c 1,39,-1
 272 678 l 1,40,-1
 152 230 l 1,41,42
 223 340 223 340 278 390.5 c 128,-1,43
 333 441 333 441 382 441 c 0,44,45
 411 441 411 441 429.5 422.5 c 128,-1,46
 448 404 448 404 448 374 c 0,0,1
EndSplineSet
EndChar

StartChar: i
Encoding: 105 105 74
Width: 276
Flags: W
HStem: -12 49<71.5 155.856> 400 16<64 115.649> 421 20G<169 229> 548 105<180.923 249.045>
VStem: 48 77<15.569 143.641> 167 97<563.47 636.499>
DStem2: 70 155 133 95 0.268799 0.963196<-84.9628 227.644>
LayerCount: 3
Fore
SplineSet
141 37 m 0
 167 37 214 102 223 114 c 1
 234 103 l 1
 179 19 141 -12 95 -12 c 0
 64 -12 48 9 48 45 c 0
 48 66 56 97 70 155 c 1
 119 333 l 2
 125 352 127 368 127 376 c 0
 127 395 119 398 64 400 c 5
 64 416 l 1
 104 419 125 422 226 441 c 1
 229 439 l 1
 135 95 133 95 133 95 c 2
 128 76 125 62 125 51 c 0
 125 44 132 37 141 37 c 0
214 653 m 0
 242 653 264 628 264 599 c 0
 264 571 242 548 215 548 c 0
 186 548 167 568 167 601 c 0
 167 631 187 653 214 653 c 0
EndSplineSet
Validated: 1
Layer: 2
SplineSet
141 37 m 0,0,1
 165 37 165 37 223 114 c 1,2,-1
 234 103 l 1,3,4
 193 40 193 40 161.5 14 c 128,-1,5
 130 -12 130 -12 95 -12 c 0,6,7
 48 -12 48 -12 48 45 c 0,8,9
 48 64 48 64 70 155 c 2,10,-1
 119 333 l 2,11,12
 127 358 127 358 127 376 c 0,13,14
 127 390 127 390 116 394 c 128,-1,15
 105 398 105 398 64 400 c 1,16,-1
 64 416 l 1,17,18
 112 420 112 420 226 441 c 1,19,-1
 229 439 l 1,20,-1
 133 95 l 2,21,22
 125 65 125 65 125 51 c 0,23,24
 125 46 125 46 129.5 41.5 c 128,-1,25
 134 37 134 37 141 37 c 0,0,1
214 653 m 0,26,27
 235 653 235 653 249.5 637 c 128,-1,28
 264 621 264 621 264 599 c 0,29,30
 264 578 264 578 249.5 563 c 128,-1,31
 235 548 235 548 215 548 c 0,32,33
 193 548 193 548 180 562 c 128,-1,34
 167 576 167 576 167 601 c 0,35,36
 167 623 167 623 180.5 638 c 128,-1,37
 194 653 194 653 214 653 c 0,26,27
EndSplineSet
EndChar

StartChar: j
Encoding: 106 106 75
Width: 276
Flags: W
HStem: -207 22<-55.7964 -10.1053> 400 16<73 132.585> 421 20G<177 246> 548 105<192.923 260.561>
VStem: -125 69<-184.72 -128.844> 179 96<563.47 637.53>
DStem2: 59 -3 142 28 0.24531 0.969445<-116.367 381.329>
LayerCount: 3
Fore
SplineSet
-42 -141 m 0
 -42 -159 -56 -162 -56 -173 c 0
 -56 -180 -50 -185 -38 -185 c 0
 1 -185 25 -141 59 -3 c 2
 130 289 l 1
 142 333 146 359 146 369 c 0
 146 394 136 398 73 400 c 1
 73 416 l 1
 104 417 154 425 243 441 c 1
 246 439 l 1
 142 28 l 2
 103 -130 42 -207 -45 -207 c 0
 -91 -207 -125 -182 -125 -146 c 0
 -125 -122 -107 -104 -83 -104 c 0
 -62 -104 -42 -120 -42 -141 c 0
226 653 m 0
 253 653 275 628 275 599 c 0
 275 571 253 548 227 548 c 0
 198 548 179 568 179 601 c 0
 179 631 199 653 226 653 c 0
EndSplineSet
Validated: 1
Layer: 2
SplineSet
-42 -141 m 0,0,1
 -42 -151 -42 -151 -49 -159.5 c 128,-1,2
 -56 -168 -56 -168 -56 -173 c 0,3,4
 -56 -185 -56 -185 -38 -185 c 0,5,6
 -9 -185 -9 -185 12.5 -145.5 c 128,-1,7
 34 -106 34 -106 59 -3 c 2,8,-1
 130 289 l 2,9,10
 146 348 146 348 146 369 c 0,11,12
 146 388 146 388 133 393 c 128,-1,13
 120 398 120 398 73 400 c 1,14,-1
 73 416 l 1,15,16
 111 417 111 417 243 441 c 1,17,-1
 246 439 l 1,18,-1
 142 28 l 2,19,20
 84 -207 84 -207 -45 -207 c 0,21,22
 -80 -207 -80 -207 -102.5 -190 c 128,-1,23
 -125 -173 -125 -173 -125 -146 c 0,24,25
 -125 -128 -125 -128 -113 -116 c 128,-1,26
 -101 -104 -101 -104 -83 -104 c 0,27,28
 -67 -104 -67 -104 -54.5 -115 c 128,-1,29
 -42 -126 -42 -126 -42 -141 c 0,0,1
226 653 m 128,-1,31
 246 653 246 653 260.5 637 c 128,-1,32
 275 621 275 621 275 599 c 0,33,34
 275 578 275 578 261 563 c 128,-1,35
 247 548 247 548 227 548 c 0,36,37
 205 548 205 548 192 562 c 128,-1,38
 179 576 179 576 179 601 c 0,39,40
 179 623 179 623 192.5 638 c 128,-1,30
 206 653 206 653 226 653 c 128,-1,31
EndSplineSet
EndChar

StartChar: k
Encoding: 107 107 76
Width: 443
Flags: W
HStem: -12 53<307 368.807> 0 21G<15 94.4444> 412 16<278 328.392 426.042 461> 640 16<105 157.495> 663 20G<233 267>
VStem: 15 74<0 74>
DStem2: 15 0 89 0 0.253931 0.967222<18.7909 205.334 247.021 634.944> 236 258 179 212 0.393919 -0.919145<19.8273 244.721>
LayerCount: 3
Fore
SplineSet
236 258 m 1x78
 275 171 316 41 354 41 c 0
 373 41 384 63 415 108 c 1
 429 98 l 1
 384 15 357 -12 318 -12 c 0xb8
 289 -12 271 7 239 70 c 0
 221 107 195 168 179 212 c 1
 138 180 l 1
 89 0 l 1
 15 0 l 1
 148 513 l 2
 161 564 174 595 174 615 c 0
 174 634 154 640 105 640 c 1
 105 656 l 1
 166 664 204 669 262 683 c 1
 267 678 l 1
 146 221 l 1
 179 243 333 359 333 394 c 0
 333 404 319 412 294 412 c 2
 278 412 l 1
 278 428 l 1
 461 428 l 1
 461 412 l 1
 415 409 382 390 236 258 c 1x78
EndSplineSet
Validated: 1
Layer: 2
SplineSet
236 258 m 1,0,1
 245 238 245 238 259 203 c 128,-1,2
 273 168 273 168 283.5 143.5 c 128,-1,3
 294 119 294 119 306.5 93.5 c 128,-1,4
 319 68 319 68 331 54.5 c 128,-1,5
 343 41 343 41 354 41 c 0,6,7
 358 41 358 41 361.5 42 c 128,-1,8
 365 43 365 43 369 46.5 c 128,-1,9
 373 50 373 50 376 53 c 128,-1,10
 379 56 379 56 384 63 c 128,-1,11
 389 70 389 70 392.5 75 c 128,-1,12
 396 80 396 80 403 90.5 c 128,-1,13
 410 101 410 101 415 108 c 1,14,-1
 429 98 l 1,15,16
 395 36 395 36 371 12 c 128,-1,17
 347 -12 347 -12 318 -12 c 0,18,19
 296 -12 296 -12 279.5 5.5 c 128,-1,20
 263 23 263 23 239 70 c 0,21,22
 206 138 206 138 179 212 c 1,23,-1
 138 180 l 1,24,-1
 89 0 l 1,25,-1
 15 0 l 1,26,-1
 148 513 l 2,27,28
 153 532 153 532 160 556 c 128,-1,29
 167 580 167 580 170.5 593 c 128,-1,30
 174 606 174 606 174 615 c 0,31,32
 174 629 174 629 158 634.5 c 128,-1,33
 142 640 142 640 105 640 c 1,34,-1
 105 656 l 1,35,36
 204 669 204 669 262 683 c 1,37,-1
 267 678 l 1,38,-1
 146 221 l 1,39,40
 191 251 191 251 262 311 c 128,-1,41
 333 371 333 371 333 394 c 0,42,43
 333 412 333 412 294 412 c 2,44,-1
 278 412 l 1,45,-1
 278 428 l 1,46,-1
 461 428 l 1,47,-1
 461 412 l 1,48,49
 425 410 425 410 383.5 382 c 128,-1,50
 342 354 342 354 236 258 c 1,0,1
EndSplineSet
EndChar

StartChar: l
Encoding: 108 108 77
Width: 276
Flags: W
HStem: -12 44<64.5 153.946> 640 16<119 170.882> 663 20G<245.5 278>
VStem: 40 77<32.6088 127.477>
DStem2: 45 70 127 100 0.252763 0.967528<-0.752315 564.694>
LayerCount: 3
Fore
SplineSet
127 100 m 2
 123 85 117 61 117 50 c 0
 117 40 122 32 132 32 c 0
 149 32 168 47 201 89 c 1
 209 101 220 111 229 123 c 1
 242 114 l 1
 176 18 141 -12 89 -12 c 0
 57 -12 40 9 40 45 c 0
 40 50 42 60 45 70 c 2
 182 599 l 2
 185 608 186 614 186 617 c 0
 186 633 166 640 119 640 c 1
 119 656 l 1
 177 664 215 669 274 683 c 1
 278 678 l 1
 127 100 l 2
EndSplineSet
Validated: 1
Layer: 2
SplineSet
127 100 m 2,0,1
 117 63 117 63 117 50 c 0,2,3
 117 32 117 32 132 32 c 0,4,5
 156 32 156 32 201 89 c 0,6,7
 205 96 205 96 215 107 c 128,-1,8
 225 118 225 118 229 123 c 1,9,-1
 242 114 l 1,10,11
 192 41 192 41 160 14.5 c 128,-1,12
 128 -12 128 -12 89 -12 c 0,13,14
 40 -12 40 -12 40 45 c 0,15,16
 40 53 40 53 45 70 c 2,17,-1
 182 599 l 2,18,19
 186 611 186 611 186 617 c 0,20,21
 186 640 186 640 119 640 c 1,22,-1
 119 656 l 1,23,24
 217 670 217 670 274 683 c 1,25,-1
 278 678 l 1,26,-1
 127 100 l 2,0,1
EndSplineSet
EndChar

StartChar: m
Encoding: 109 109 78
Width: 720
Flags: W
HStem: -9 47<535.5 618.495> 0 21G<12 104.5 259 349> 390 51<313.186 376.961 547.941 615.499> 394 16<45 88.4277>
VStem: 354 77<288.276 389.982> 516 74<38.0039 83.2727> 593 79<283.141 389.873>
DStem2: 50.5 144 86 0 0.261353 0.965243<-129.717 107.37 109.277 235.311> 527 103 601 100 0.257866 0.966181<-43.3041 272.989>
LayerCount: 3
Fore
SplineSet
603 38 m 0xae
 625 38 663 79 688 117 c 1
 705 105 l 1
 676 71 629 -9 555 -9 c 0xae
 529 -9 516 7 516 37 c 0
 516 47 519 66 527 103 c 1
 586 333 l 2
 590 352 593 363 593 368 c 0
 593 379 584 390 573 390 c 0
 543 390 494 346 445 277 c 1
 394 207 374 157 334 0 c 1
 259 0 l 1
 322 234 354 354 354 365 c 0
 354 379 347 390 334 390 c 0x6e
 300 390 240 333 185 248 c 1
 149 196 135 160 86 0 c 1
 12 0 l 1
 46 131 110 350 110 372 c 0
 110 387 97 394 70 394 c 2
 45 394 l 1
 45 410 l 1x5e
 129 425 149 429 207 441 c 1
 209 439 l 1
 151 230 l 1
 243 375 313 441 374 441 c 0
 409 441 431 416 431 381 c 0
 431 362 416 305 391 229 c 1
 433 295 524 441 612 441 c 0
 647 441 672 415 672 378 c 0
 672 372 670 354 669 350 c 2
 601 100 l 2
 595 75 590 59 590 54 c 0
 590 44 596 38 603 38 c 0xae
EndSplineSet
Validated: 1
Layer: 2
SplineSet
603 38 m 0,0,1
 618 38 618 38 642.5 62 c 128,-1,2
 667 86 667 86 688 117 c 1,3,-1
 705 105 l 1,4,-1
 681.5 75 l 2,5,6
 658 45 658 45 645.5 33 c 128,-1,7
 633 21 633 21 607 6 c 128,-1,8
 581 -9 581 -9 555 -9 c 0,9,10
 516 -9 516 -9 516 37 c 0,11,12
 516 52 516 52 527 103 c 2,13,-1
 586 333 l 2,14,15
 593 366 593 366 593 368 c 0,16,17
 593 376 593 376 587 383 c 128,-1,18
 581 390 581 390 573 390 c 0,19,20
 551 390 551 390 516.5 359.5 c 128,-1,21
 482 329 482 329 445 277 c 0,22,23
 407 225 407 225 385.5 171.5 c 128,-1,24
 364 118 364 118 334 0 c 1,25,-1
 259 0 l 1,26,27
 354 353 354 353 354 365 c 0,28,29
 354 390 354 390 334 390 c 0,30,31
 308 390 308 390 267 351 c 128,-1,32
 226 312 226 312 185 248 c 0,33,34
 158 209 158 209 140.5 165 c 128,-1,35
 123 121 123 121 86 0 c 1,36,-1
 12 0 l 1,37,38
 24 48 24 48 50.5 144 c 128,-1,39
 77 240 77 240 93.5 301 c 128,-1,40
 110 362 110 362 110 372 c 0,41,42
 110 394 110 394 70 394 c 2,43,-1
 45 394 l 1,44,-1
 45 410 l 1,45,46
 134 426 134 426 207 441 c 1,47,-1
 209 439 l 1,48,-1
 151 230 l 1,49,50
 285 441 285 441 374 441 c 0,51,52
 400 441 400 441 415.5 424.5 c 128,-1,53
 431 408 431 408 431 381 c 0,54,55
 431 351 431 351 391 229 c 1,56,57
 417 269 417 269 433 292.5 c 128,-1,58
 449 316 449 316 482 357 c 128,-1,59
 515 398 515 398 548 419.5 c 128,-1,60
 581 441 581 441 612 441 c 0,61,62
 638 441 638 441 655 423.5 c 128,-1,63
 672 406 672 406 672 378 c 0,64,65
 672 362 672 362 669 350 c 2,66,-1
 601 100 l 1,67,-1
 590 54 l 2,68,69
 590 38 590 38 603 38 c 0,0,1
EndSplineSet
EndChar

StartChar: n
Encoding: 110 110 79
Width: 499
Flags: W
HStem: -9 47<321.5 393.887> 0 21G<15 106.5> 390 51<311.091 390.5> 394 16<48 84.3548>
VStem: 287 75<38.0045 140.195> 360 82<275.555 389.946>
DStem2: 15 0 89 0 0.269793 0.962918<19.9647 379.835> 303 120 376 117 0.269802 0.962916<-47.3814 245.927>
LayerCount: 3
Fore
SplineSet
460 117 m 1xa8
 475 104 l 1
 404 12 379 -9 334 -9 c 0
 300 -9 287 7 287 45 c 0xa8
 287 56 290 69 303 120 c 2
 347 286 l 2
 354 316 360 349 360 360 c 0
 360 379 352 390 337 390 c 0xa4
 300 390 249 340 189 248 c 0
 145 180 136 158 89 0 c 1
 15 0 l 1
 110 350 l 2
 111 354 111 360 111 368 c 0
 111 387 100 393 48 394 c 1
 48 410 l 1x54
 209 441 l 1
 212 439 l 1
 146 221 l 1
 249 381 312 441 376 441 c 0
 415 441 442 416 442 379 c 0x24
 442 366 438 344 434 324 c 1
 376 117 l 1
 362 62 362 62 362 54 c 0
 362 45 371 38 378 38 c 0
 393 38 410 54 439 91 c 2
 460 117 l 1xa8
EndSplineSet
Validated: 1
Layer: 2
SplineSet
460 117 m 1,0,-1
 475 104 l 1,1,2
 421 34 421 34 394 12.5 c 128,-1,3
 367 -9 367 -9 334 -9 c 0,4,5
 309 -9 309 -9 298 3.5 c 128,-1,6
 287 16 287 16 287 45 c 0,7,8
 287 57 287 57 303 120 c 2,9,-1
 347 286 l 2,10,11
 360 342 360 342 360 360 c 0,12,13
 360 390 360 390 337 390 c 0,14,15
 282 390 282 390 189 248 c 0,16,17
 156 197 156 197 140 157.5 c 128,-1,18
 124 118 124 118 89 0 c 1,19,-1
 15 0 l 1,20,-1
 110 350 l 2,21,22
 111 354 111 354 111 368 c 0,23,24
 111 383 111 383 98.5 388 c 128,-1,25
 86 393 86 393 48 394 c 1,26,-1
 48 410 l 1,27,-1
 209 441 l 1,28,-1
 212 439 l 1,29,-1
 146 221 l 1,30,31
 223 341 223 341 275.5 391 c 128,-1,32
 328 441 328 441 376 441 c 0,33,34
 405 441 405 441 423.5 424 c 128,-1,35
 442 407 442 407 442 379 c 0,36,37
 442 364 442 364 434 324 c 2,38,-1
 376 117 l 2,39,40
 362 62 362 62 362 54 c 0,41,42
 362 48 362 48 367 43 c 128,-1,43
 372 38 372 38 378 38 c 0,44,45
 397 38 397 38 439 91 c 2,46,-1
 460 117 l 1,0,-1
EndSplineSet
EndChar

StartChar: o
Encoding: 111 111 80
Width: 499
Flags: W
HStem: -12 22<149.18 235.567> 420 21<269.691 348.137>
VStem: 26 85<47.9681 221.224> 384 85<200.786 379.825>
LayerCount: 3
Fore
SplineSet
469 300 m 0
 469 165 328 -12 174 -12 c 0
 83 -12 26 42 26 129 c 0
 26 286 174 441 325 441 c 0
 410 441 469 384 469 300 c 0
189 10 m 0
 306 10 384 212 384 327 c 0
 384 382 356 420 313 420 c 0
 208 420 111 229 111 101 c 0
 111 45 142 10 189 10 c 0
EndSplineSet
Validated: 1
Layer: 2
SplineSet
469 300 m 0,0,1
 469 233 469 233 428 160.5 c 128,-1,2
 387 88 387 88 317.5 38 c 128,-1,3
 248 -12 248 -12 174 -12 c 0,4,5
 106 -12 106 -12 66 26 c 128,-1,6
 26 64 26 64 26 129 c 0,7,8
 26 247 26 247 119 344 c 128,-1,9
 212 441 212 441 325 441 c 0,10,11
 389 441 389 441 429 402 c 128,-1,12
 469 363 469 363 469 300 c 0,0,1
189 10 m 0,13,14
 244 10 244 10 290.5 66 c 128,-1,15
 337 122 337 122 360.5 194 c 128,-1,16
 384 266 384 266 384 327 c 0,17,18
 384 368 384 368 364.5 394 c 128,-1,19
 345 420 345 420 313 420 c 0,20,21
 263 420 263 420 215 367 c 128,-1,22
 167 314 167 314 139 239.5 c 128,-1,23
 111 165 111 165 111 101 c 0,24,25
 111 59 111 59 132.5 34.5 c 128,-1,26
 154 10 154 10 189 10 c 0,13,14
EndSplineSet
EndChar

StartChar: p
Encoding: 112 112 81
Width: 499
Flags: W
HStem: -205 16<-75 -37.3779 80.9581 130> -12 19<133.474 212.659> 398 43<274.434 363.12> 404 15<56 88.8732>
VStem: 379 90<206.691 379.866>
DStem2: -7 -130 103 6 0.251508 0.967855<-9.71115 159.294 201.362 521.881>
LayerCount: 3
Fore
SplineSet
56 404 m 1xd8
 54 419 l 1xd8
 208 441 l 1
 215 437 l 1
 204 401 194 364 183 328 c 1
 242 409 289 441 354 441 c 0xe8
 425 441 469 394 469 316 c 0
 469 157 315 -12 168 -12 c 0
 146 -12 127 -7 103 6 c 1
 83 -67 66 -146 66 -160 c 0
 66 -182 83 -190 130 -190 c 1
 130 -205 l 1
 -75 -205 l 1
 -75 -189 l 1
 -32 -187 -17 -176 -7 -130 c 0
 5 -74 122 356 122 376 c 0
 122 390 103 406 89 406 c 0
 80 406 67 404 56 404 c 1xd8
379 312 m 0
 379 371 359 398 312 398 c 0xe8
 264 398 208 350 182 284 c 0
 152 209 117 79 117 45 c 0
 117 23 138 7 166 7 c 0
 289 7 379 192 379 312 c 0
EndSplineSet
Validated: 1
Layer: 2
SplineSet
56 404 m 1,0,-1
 54 419 l 1,1,-1
 208 441 l 1,2,-1
 215 437 l 1,3,4
 210 419 210 419 199 382.5 c 128,-1,5
 188 346 188 346 183 328 c 1,6,7
 228 389 228 389 267 415 c 128,-1,8
 306 441 306 441 354 441 c 0,9,10
 407 441 407 441 438 407.5 c 128,-1,11
 469 374 469 374 469 316 c 0,12,13
 469 197 469 197 373.5 92.5 c 128,-1,14
 278 -12 278 -12 168 -12 c 0,15,16
 136 -12 136 -12 103 6 c 1,17,18
 66 -129 66 -129 66 -160 c 0,19,20
 66 -177 66 -177 80.5 -183.5 c 128,-1,21
 95 -190 95 -190 130 -190 c 1,22,-1
 130 -205 l 1,23,-1
 -75 -205 l 1,24,-1
 -75 -189 l 1,25,26
 -42 -187 -42 -187 -28 -175.5 c 128,-1,27
 -14 -164 -14 -164 -7 -130 c 0,28,29
 -2 -108 -2 -108 30.5 16 c 128,-1,30
 63 140 63 140 92.5 253.5 c 128,-1,31
 122 367 122 367 122 376 c 0,32,33
 122 386 122 386 111 396 c 128,-1,34
 100 406 100 406 89 406 c 0,35,36
 85 406 85 406 73.5 405 c 128,-1,37
 62 404 62 404 56 404 c 1,0,-1
379 312 m 128,-1,39
 379 357 379 357 363 377.5 c 128,-1,40
 347 398 347 398 312 398 c 0,41,42
 276 398 276 398 238.5 365.5 c 128,-1,43
 201 333 201 333 182 284 c 0,44,45
 160 228 160 228 138.5 149.5 c 128,-1,46
 117 71 117 71 117 45 c 0,47,48
 117 29 117 29 131 18 c 128,-1,49
 145 7 145 7 166 7 c 0,50,51
 210 7 210 7 251 37.5 c 128,-1,52
 292 68 292 68 319 114.5 c 128,-1,53
 346 161 346 161 362.5 214 c 128,-1,38
 379 267 379 267 379 312 c 128,-1,39
EndSplineSet
EndChar

StartChar: q
Encoding: 113 113 82
Width: 499
Flags: W
HStem: -209 19<149 214.335 326.323 391> -12 54<126.004 205.074> 419 22<277.6 354.773>
VStem: 25 86<59.7933 208.396>
DStem2: 245 -141 317.5 -157.5 0.273096 0.961987<-1.74368 514.094 541.198 590.507>
LayerCount: 3
Fore
SplineSet
391 -190 m 1
 391 -209 l 1
 149 -209 l 1
 149 -193 l 1
 215 -187 233 -181 245 -141 c 2
 333 152 l 1
 245 26 198 -12 127 -12 c 0
 64 -12 25 34 25 105 c 0
 25 256 186 441 318 441 c 0
 359 441 379 425 395 379 c 1
 410 426 l 1
 483 426 l 1
 319 -151 l 2
 318 -155 316 -160 316 -163 c 0
 316 -182 337 -190 374 -190 c 2
 391 -190 l 1
167 42 m 0
 275 42 379 257 379 357 c 0
 379 393 354 419 321 419 c 0
 222 419 111 224 111 119 c 0
 111 72 133 42 167 42 c 0
EndSplineSet
Validated: 1
Layer: 2
SplineSet
391 -190 m 1,0,-1
 391 -209 l 1,1,-1
 149 -209 l 1,2,-1
 149 -193 l 1,3,4
 200 -188 200 -188 218 -179 c 128,-1,5
 236 -170 236 -170 245 -141 c 2,6,-1
 333 152 l 1,7,8
 267 57 267 57 223.5 22.5 c 128,-1,9
 180 -12 180 -12 127 -12 c 0,10,11
 80 -12 80 -12 52.5 20 c 128,-1,12
 25 52 25 52 25 105 c 0,13,14
 25 178 25 178 70.5 257.5 c 128,-1,15
 116 337 116 337 185 389 c 128,-1,16
 254 441 254 441 318 441 c 0,17,18
 349 441 349 441 366 427 c 128,-1,19
 383 413 383 413 395 379 c 1,20,-1
 410 426 l 1,21,-1
 483 426 l 1,22,-1
 319 -151 l 2,23,24
 319 -152 319 -152 318.5 -154 c 128,-1,25
 318 -156 318 -156 317.5 -157.5 c 128,-1,26
 317 -159 317 -159 316.5 -160.5 c 128,-1,27
 316 -162 316 -162 316 -163 c 0,28,29
 316 -190 316 -190 374 -190 c 2,30,-1
 391 -190 l 1,0,-1
167 42 m 0,31,32
 217 42 217 42 268.5 100.5 c 128,-1,33
 320 159 320 159 349.5 232 c 128,-1,34
 379 305 379 305 379 357 c 0,35,36
 379 384 379 384 362.5 401.5 c 128,-1,37
 346 419 346 419 321 419 c 0,38,39
 274 419 274 419 223.5 366 c 128,-1,40
 173 313 173 313 142 242.5 c 128,-1,41
 111 172 111 172 111 119 c 0,42,43
 111 84 111 84 126 63 c 128,-1,44
 141 42 141 42 167 42 c 0,31,32
EndSplineSet
EndChar

StartChar: r
Encoding: 114 114 83
Width: 388
Flags: W
HStem: 0 21G<45 141> 376 65<311.469 375.5> 397 18<73 106.684>
DStem2: 45 0 122 0 0.268156 0.963375<20.648 385.878>
LayerCount: 3
Fore
SplineSet
366 340 m 0xc0
 323 340 336 376 313 376 c 0xc0
 297 376 270 346 236 289 c 0
 190 212 173 170 122 0 c 1
 45 0 l 1
 126 291 l 1
 142 360 142 360 142 374 c 0
 142 393 129 401 107 401 c 0
 100 401 97 401 73 397 c 1
 73 415 l 1xa0
 146 426 155 428 229 441 c 1
 231 439 l 1
 179 223 l 1
 192 258 l 1
 209 299 296 441 365 441 c 0
 393 441 412 420 412 390 c 0
 412 357 395 340 366 340 c 0xc0
EndSplineSet
Validated: 1
Layer: 2
SplineSet
366 340 m 0,0,1
 351 340 351 340 342.5 345.5 c 128,-1,2
 334 351 334 351 332 358 c 128,-1,3
 330 365 330 365 325 370.5 c 128,-1,4
 320 376 320 376 313 376 c 0,5,6
 288 376 288 376 236 289 c 0,7,8
 201 231 201 231 180.5 179 c 128,-1,9
 160 127 160 127 122 0 c 1,10,-1
 45 0 l 1,11,-1
 126 291 l 2,12,13
 142 360 142 360 142 374 c 0,14,15
 142 401 142 401 107 401 c 0,16,17
 97 401 97 401 73 397 c 1,18,-1
 73 415 l 1,19,20
 129 423 129 423 229 441 c 1,21,-1
 231 439 l 1,22,-1
 179 223 l 1,23,-1
 192 258 l 2,24,25
 212 306 212 306 266 373.5 c 128,-1,26
 320 441 320 441 365 441 c 0,27,28
 386 441 386 441 399 427 c 128,-1,29
 412 413 412 413 412 390 c 0,30,31
 412 340 412 340 366 340 c 0,0,1
EndSplineSet
EndChar

StartChar: s
Encoding: 115 115 84
Width: 388
Flags: W
HStem: -12 22<113.25 194.307> 417 24<200.084 279.604>
VStem: 16 16<-13 -1.20801> 37 16<106.82 146> 108 74<305.056 398.426> 229 76<45.3434 150.236> 330 16<303 338.82>
DStem2: 212.5 292 127 268.5 0.523002 -0.852332<-77.3399 183.513>
LayerCount: 3
Fore
SplineSet
160 -12 m 0
 129 -12 92 7 56 7 c 0
 45 7 40 3 32 -13 c 1
 16 -13 l 1
 37 146 l 1
 53 146 l 1
 67 51 100 10 154 10 c 0
 198 10 229 42 229 86 c 0
 229 163 108 248 108 331 c 0
 108 398 157 441 230 441 c 0
 268 441 304 423 322 423 c 0
 335 423 344 428 352 442 c 1
 366 442 l 1
 346 303 l 1
 330 303 l 1
 319 381 290 417 237 417 c 0
 204 417 182 397 182 365 c 0
 182 289 305 213 305 119 c 0
 305 42 245 -12 160 -12 c 0
EndSplineSet
Validated: 1
Layer: 2
SplineSet
160 -12 m 0,0,1
 145 -12 145 -12 110 -2.5 c 128,-1,2
 75 7 75 7 56 7 c 0,3,4
 42 7 42 7 32 -13 c 1,5,-1
 16 -13 l 1,6,-1
 37 146 l 1,7,-1
 53 146 l 1,8,9
 73 10 73 10 154 10 c 0,10,11
 187 10 187 10 208 31.5 c 128,-1,12
 229 53 229 53 229 86 c 0,13,14
 229 112 229 112 210 145.5 c 128,-1,15
 191 179 191 179 168.5 206.5 c 128,-1,16
 146 234 146 234 127 268.5 c 128,-1,17
 108 303 108 303 108 331 c 0,18,19
 108 381 108 381 141.5 411 c 128,-1,20
 175 441 175 441 230 441 c 0,21,22
 252 441 252 441 284 432 c 128,-1,23
 316 423 316 423 322 423 c 0,24,25
 341 423 341 423 352 442 c 1,26,-1
 366 442 l 1,27,-1
 346 303 l 1,28,-1
 330 303 l 1,29,30
 314 417 314 417 237 417 c 0,31,32
 212 417 212 417 197 403 c 128,-1,33
 182 389 182 389 182 365 c 0,34,35
 182 334 182 334 212.5 292 c 128,-1,36
 243 250 243 250 274 204.5 c 128,-1,37
 305 159 305 159 305 119 c 0,38,39
 305 61 305 61 264.5 24.5 c 128,-1,40
 224 -12 224 -12 160 -12 c 0,0,1
EndSplineSet
EndChar

StartChar: t
Encoding: 116 116 85
Width: 276
Flags: W
HStem: -12 50<75 138.246> 395 33<215 291>
VStem: 60 59<38.125 63>
DStem2: 53.5 99.5 119 63 0.259457 0.965755<-22.1187 305.748>
LayerCount: 3
Fore
SplineSet
296 428 m 1
 291 395 l 1
 207 395 l 1
 119 63 l 1
 119 59 l 2
 119 45 125 38 133 38 c 0
 149 38 166 54 214 117 c 1
 227 110 l 1
 164 18 130 -12 85 -12 c 0
 59 -12 37 4 37 26 c 0
 37 47 58 113 60 122 c 2
 132 395 l 1
 59 395 l 1
 57 398 57 401 57 401 c 1
 57 413 64 419 89 428 c 1
 122 437 183 486 223 538 c 0
 229 545 231 546 237 546 c 0
 242 546 245 543 245 536 c 2
 245 532 l 1
 215 428 l 1
 296 428 l 1
EndSplineSet
Validated: 1
Layer: 2
SplineSet
296 428 m 1,0,-1
 291 395 l 1,1,-1
 207 395 l 1,2,-1
 119 63 l 1,3,-1
 119 59 l 2,4,5
 119 38 119 38 133 38 c 0,6,7
 145 38 145 38 161.5 54 c 128,-1,8
 178 70 178 70 214 117 c 1,9,-1
 227 110 l 1,10,11
 179 41 179 41 149 14.5 c 128,-1,12
 119 -12 119 -12 85 -12 c 0,13,14
 65 -12 65 -12 51 -1 c 128,-1,15
 37 10 37 10 37 26 c 0,16,17
 37 35 37 35 42 56.5 c 128,-1,18
 47 78 47 78 53.5 99.5 c 128,-1,19
 60 121 60 121 60 122 c 2,20,-1
 132 395 l 1,21,-1
 59 395 l 1,22,-1
 57 401 l 2,23,24
 57 410 57 410 63.5 415.5 c 128,-1,25
 70 421 70 421 89 428 c 0,26,27
 114 435 114 435 153.5 467 c 128,-1,28
 193 499 193 499 223 538 c 0,29,30
 230 546 230 546 237 546 c 0,31,32
 245 546 245 546 245 536 c 2,33,-1
 245 532 l 1,34,-1
 215 428 l 1,35,-1
 296 428 l 1,0,-1
EndSplineSet
EndChar

StartChar: u
Encoding: 117 117 86
Width: 499
Flags: W
HStem: -12 54<80.543 162.431 341.501 393.471> 400 15<59 106.672> 421 11G<162 211 369.5 464>
VStem: 42 77<42.1349 155.572> 289 79<38.2883 142.024>
DStem2: 67 167 120 76 0.243164 0.969985<-84.1727 215.056>
LayerCount: 3
Fore
SplineSet
119 376 m 0
 119 395 98 400 59 400 c 1
 59 415 l 1
 116 420 151 428 208 441 c 1
 211 439 l 1
 120 76 l 2
 119 73 119 70 119 67 c 0
 119 53 127 42 141 42 c 0
 171 42 221 92 281 187 c 0
 327 261 334 277 391 432 c 1
 464 432 l 1
 387 133 l 2
 368 62 368 62 368 56 c 0
 368 44 371 38 378 38 c 0
 394 38 409 53 461 117 c 1
 475 108 l 1
 407 12 384 -9 337 -9 c 0
 308 -9 289 9 289 40 c 0
 289 60 305 129 334 236 c 1
 220 42 166 -12 95 -12 c 0
 60 -12 42 7 42 44 c 0
 42 62 48 97 67 167 c 2
 104 309 l 2
 113 343 119 368 119 376 c 0
EndSplineSet
Validated: 1
Layer: 2
SplineSet
119 376 m 0,0,1
 119 400 119 400 59 400 c 1,2,-1
 59 415 l 1,3,4
 116 420 116 420 208 441 c 1,5,-1
 211 439 l 1,6,-1
 120 76 l 2,7,8
 119 73 119 73 119 67 c 0,9,10
 119 42 119 42 141 42 c 0,11,12
 189 42 189 42 281 187 c 0,13,14
 315 242 315 242 331.5 278.5 c 128,-1,15
 348 315 348 315 391 432 c 1,16,-1
 464 432 l 1,17,-1
 387 133 l 2,18,19
 368 62 368 62 368 56 c 0,20,21
 368 38 368 38 378 38 c 0,22,23
 390 38 390 38 405.5 53 c 128,-1,24
 421 68 421 68 461 117 c 1,25,-1
 475 108 l 1,26,27
 423 35 423 35 397.5 13 c 128,-1,28
 372 -9 372 -9 337 -9 c 0,29,30
 315 -9 315 -9 302 4 c 128,-1,31
 289 17 289 17 289 40 c 0,32,33
 289 70 289 70 334 236 c 1,34,35
 249 92 249 92 199 40 c 128,-1,36
 149 -12 149 -12 95 -12 c 0,37,38
 42 -12 42 -12 42 44 c 0,39,40
 42 75 42 75 67 167 c 2,41,-1
 104 309 l 2,42,43
 119 366 119 366 119 376 c 0,0,1
EndSplineSet
EndChar

StartChar: v
Encoding: 118 118 87
Width: 443
Flags: W
HStem: -18 21G<140.5 154.5> 421 20G<151 155.5 362.5 382>
VStem: 136 71<70 255.35> 375 51<300.849 394>
DStem2: 162.5 428 114 294 0.132778 -0.991146<35.4415 330.151>
LayerCount: 3
Fore
SplineSet
375 333 m 0
 375 365 333 364 333 407 c 0
 333 428 349 441 371 441 c 0
 400 441 426 415 426 382 c 0
 426 346 400 280 365 230 c 0
 264 88 170 -18 145 -18 c 0
 138 -18 136 -12 136 18 c 0
 136 75 125 226 114 294 c 0
 100 387 89 404 51 404 c 0
 40 404 32 404 21 403 c 1
 21 416 l 1
 111 430 145 441 152 441 c 0
 161 441 161 439 182 337 c 1
 193 264 201 211 207 70 c 1
 237 103 l 1
 309 176 375 287 375 333 c 0
EndSplineSet
Validated: 1
Layer: 2
SplineSet
375 333 m 0,0,1
 375 348 375 348 354 366 c 128,-1,2
 333 384 333 384 333 407 c 0,3,4
 333 423 333 423 343.5 432 c 128,-1,5
 354 441 354 441 371 441 c 0,6,7
 393 441 393 441 409.5 423.5 c 128,-1,8
 426 406 426 406 426 382 c 0,9,10
 426 355 426 355 408.5 311 c 128,-1,11
 391 267 391 267 365 230 c 0,12,13
 289 123 289 123 226.5 52.5 c 128,-1,14
 164 -18 164 -18 145 -18 c 0,15,16
 136 -18 136 -18 136 18 c 0,17,18
 136 63 136 63 129 154 c 128,-1,19
 122 245 122 245 114 294 c 0,20,21
 104 363 104 363 92 383.5 c 128,-1,22
 80 404 80 404 51 404 c 0,23,24
 32 404 32 404 21 403 c 1,25,-1
 21 416 l 1,26,27
 60 422 60 422 91.5 428.5 c 128,-1,28
 123 435 123 435 136.5 438 c 128,-1,29
 150 441 150 441 152 441 c 0,30,31
 159 441 159 441 162.5 428 c 128,-1,32
 166 415 166 415 182 337 c 1,33,34
 201 211 201 211 207 70 c 1,35,-1
 237 103 l 2,36,37
 291 157 291 157 333 227.5 c 128,-1,38
 375 298 375 298 375 333 c 0,0,1
EndSplineSet
EndChar

StartChar: w
Encoding: 119 119 88
Width: 666
Flags: W
HStem: -18 21G<130 135 379.5 386> 404 13<16 60.7383> 421 20G<138.5 148.5 391.5 399 587.5 607>
VStem: 601 46<311.454 401>
DStem2: 403 428 341 333 0.0902814 -0.995916<89.0146 354.447>
LayerCount: 3
Fore
SplineSet
647 390 m 0
 647 275 431 28 428 25 c 0
 400 -7 390 -18 382 -18 c 0
 375 -18 374 -15 371 12 c 2
 341 333 l 1
 253 174 l 2
 180 41 154 -18 133 -18 c 0
 125 -18 124 -10 122 29 c 2
 117 117 l 2
 112 196 103 302 89 359 c 0
 81 392 79 404 54 404 c 2
 16 404 l 1
 16 417 l 1
 28 419 38 420 42 420 c 0
 124 435 129 441 141 441 c 0
 149 441 157 435 166 371 c 0
 176 300 187 196 190 126 c 1
 382 433 l 2
 387 440 390 441 395 441 c 0
 401 441 403 439 403 428 c 2
 435 75 l 1
 565 237 601 291 601 334 c 0
 601 366 557 376 557 407 c 0
 557 428 573 441 596 441 c 0
 625 441 647 419 647 390 c 0
EndSplineSet
Validated: 1
Layer: 2
SplineSet
647 390 m 0,0,1
 647 339 647 339 590 245.5 c 128,-1,2
 533 152 533 152 487 95 c 128,-1,3
 441 38 441 38 428 25 c 0,4,5
 390 -18 390 -18 382 -18 c 0,6,7
 377 -18 377 -18 375 -13 c 128,-1,8
 373 -8 373 -8 371 12 c 2,9,-1
 341 333 l 1,10,-1
 253 174 l 2,11,12
 240 150 240 150 224.5 121.5 c 128,-1,13
 209 93 209 93 200.5 77 c 128,-1,14
 192 61 192 61 182 43 c 128,-1,15
 172 25 172 25 166 15.5 c 128,-1,16
 160 6 160 6 153.5 -2.5 c 128,-1,17
 147 -11 147 -11 142 -14.5 c 128,-1,18
 137 -18 137 -18 133 -18 c 0,19,20
 127 -18 127 -18 125.5 -9.5 c 128,-1,21
 124 -1 124 -1 122 29 c 2,22,-1
 117 117 l 2,23,24
 106 289 106 289 89 359 c 0,25,26
 84 380 84 380 81.5 386.5 c 128,-1,27
 79 393 79 393 72.5 398.5 c 128,-1,28
 66 404 66 404 54 404 c 2,29,-1
 16 404 l 1,30,-1
 16 417 l 1,31,32
 34 420 34 420 42 420 c 0,33,34
 77 426 77 426 100 431.5 c 128,-1,35
 123 437 123 437 129.5 439 c 128,-1,36
 136 441 136 441 141 441 c 0,37,38
 156 441 156 441 166 371 c 0,39,40
 185 233 185 233 190 126 c 1,41,-1
 382 433 l 2,42,43
 388 441 388 441 395 441 c 0,44,45
 403 441 403 441 403 428 c 2,46,-1
 435 75 l 1,47,48
 534 198 534 198 567.5 250 c 128,-1,49
 601 302 601 302 601 334 c 0,50,51
 601 350 601 350 579 371 c 128,-1,52
 557 392 557 392 557 407 c 0,53,54
 557 423 557 423 568 432 c 128,-1,55
 579 441 579 441 596 441 c 0,56,57
 618 441 618 441 632.5 426.5 c 128,-1,58
 647 412 647 412 647 390 c 0,0,1
EndSplineSet
EndChar

StartChar: x
Encoding: 120 120 89
Width: 443
Flags: W
HStem: -12 56<-2.5918 72.1581 282 345.603> 385 56<351.46 423.412> 404 37<108.355 202>
DStem2: 245 353 168 335 0.236796 -0.971559<-59.8402 56.7753 91.2804 125.86 162.968 321.137>
LayerCount: 3
Fore
SplineSet
334 44 m 0xc0
 355 44 379 86 401 111 c 1
 416 103 l 1
 357 13 333 -12 294 -12 c 0
 262 -12 249 4 236 56 c 2
 207 176 l 1
 75 1 60 -12 23 -12 c 0
 -7 -12 -26 4 -26 31 c 0
 -26 51 -12 66 7 66 c 0
 30 66 49 47 64 47 c 0
 76 47 97 64 116 95 c 1
 198 212 l 1
 168 335 l 1
 155 395 149 404 125 404 c 0
 116 404 105 401 67 393 c 1
 64 409 l 1
 75 412 l 1
 136 432 170 441 192 441 c 0xa0
 220 441 230 420 245 353 c 1
 255 297 l 1
 324 404 362 441 406 441 c 0xc0
 431 441 447 425 447 404 c 0xa0
 447 382 434 368 412 368 c 0
 393 368 376 385 360 385 c 0
 343 385 308 341 264 264 c 1
 264 241 303 85 303 85 c 1
 311 57 319 44 334 44 c 0xc0
EndSplineSet
Validated: 1
Layer: 2
SplineSet
334 44 m 0,0,1
 343 44 343 44 354 54 c 128,-1,2
 365 64 365 64 380.5 84.5 c 128,-1,3
 396 105 396 105 401 111 c 1,4,-1
 416 103 l 1,5,6
 371 34 371 34 347 11 c 128,-1,7
 323 -12 323 -12 294 -12 c 0,8,9
 270 -12 270 -12 258 2.5 c 128,-1,10
 246 17 246 17 236 56 c 2,11,-1
 207 176 l 1,12,13
 110 47 110 47 80.5 17.5 c 128,-1,14
 51 -12 51 -12 23 -12 c 0,15,16
 0 -12 0 -12 -13 -0.5 c 128,-1,17
 -26 11 -26 11 -26 31 c 0,18,19
 -26 46 -26 46 -16.5 56 c 128,-1,20
 -7 66 -7 66 7 66 c 0,21,22
 20 66 20 66 39 56.5 c 128,-1,23
 58 47 58 47 64 47 c 0,24,25
 87 47 87 47 116 95 c 2,26,-1
 198 212 l 1,27,-1
 168 335 l 2,28,29
 158 380 158 380 150.5 392 c 128,-1,30
 143 404 143 404 125 404 c 0,31,32
 119 404 119 404 67 393 c 1,33,-1
 64 409 l 1,34,-1
 75 412 l 1,35,36
 163 441 163 441 192 441 c 0,37,38
 212 441 212 441 222.5 423 c 128,-1,39
 233 405 233 405 245 353 c 2,40,-1
 255 297 l 1,41,42
 307 378 307 378 340 409.5 c 128,-1,43
 373 441 373 441 406 441 c 0,44,45
 424 441 424 441 435.5 430.5 c 128,-1,46
 447 420 447 420 447 404 c 0,47,48
 447 368 447 368 412 368 c 0,49,50
 402 368 402 368 385 376.5 c 128,-1,51
 368 385 368 385 360 385 c 0,52,53
 333 385 333 385 264 264 c 1,54,55
 264 254 264 254 274 209 c 128,-1,56
 284 164 284 164 293.5 124.5 c 2,57,-1
 303 85 l 2,58,59
 315 44 315 44 334 44 c 0,0,1
EndSplineSet
EndChar

StartChar: y
Encoding: 121 121 90
Width: 443
Flags: W
HStem: -207 56<4.92676 79.1841> 400 17<15 32> 404 37<44.5918 163>
VStem: 387 39<303.672 398>
LayerCount: 3
Fore
SplineSet
15 -123 m 0
 44 -123 55 -151 76 -151 c 0
 89 -151 101 -144 122 -122 c 1
 185 -42 l 2
 199 -23 205 -7 205 7 c 0
 205 25 182 142 164 207 c 0
 119 379 103 404 45 404 c 0
 35 404 28 403 15 400 c 1
 15 417 l 1
 41 422 137 441 156 441 c 0
 177 441 232 257 245 187 c 1
 264 72 l 1
 349 212 387 291 387 331 c 0
 387 366 333 364 333 404 c 0
 333 426 349 441 371 441 c 0
 401 441 426 416 426 387 c 0
 426 337 398 265 330 142 c 1
 223 -56 91 -207 26 -207 c 0
 -1 -207 -23 -187 -23 -163 c 0
 -23 -141 -7 -123 15 -123 c 0
EndSplineSet
Validated: 1
Layer: 2
SplineSet
15 -123 m 0,0,1
 30 -123 30 -123 48 -137 c 128,-1,2
 66 -151 66 -151 76 -151 c 0,3,4
 94 -151 94 -151 122 -122 c 1,5,-1
 185 -42 l 2,6,7
 205 -15 205 -15 205 7 c 0,8,9
 205 21 205 21 191 90.5 c 128,-1,10
 177 160 177 160 164 207 c 0,11,12
 130 335 130 335 109.5 369.5 c 128,-1,13
 89 404 89 404 45 404 c 0,14,15
 32 404 32 404 15 400 c 1,16,-1
 15 417 l 1,17,18
 140 441 140 441 156 441 c 0,19,20
 170 441 170 441 201.5 345 c 128,-1,21
 233 249 233 249 245 187 c 2,22,-1
 264 72 l 1,23,24
 387 275 387 275 387 331 c 0,25,26
 387 348 387 348 360 365.5 c 128,-1,27
 333 383 333 383 333 404 c 0,28,29
 333 420 333 420 343.5 430.5 c 128,-1,30
 354 441 354 441 371 441 c 0,31,32
 393 441 393 441 409.5 425 c 128,-1,33
 426 409 426 409 426 387 c 0,34,35
 426 316 426 316 330 142 c 0,36,37
 250 -6 250 -6 162.5 -106.5 c 128,-1,38
 75 -207 75 -207 26 -207 c 0,39,40
 6 -207 6 -207 -8.5 -194 c 128,-1,41
 -23 -181 -23 -181 -23 -163 c 0,42,43
 -23 -146 -23 -146 -12 -134.5 c 128,-1,44
 -1 -123 -1 -123 15 -123 c 0,0,1
EndSplineSet
EndChar

StartChar: z
Encoding: 122 122 91
Width: 388
Flags: W
HStem: -81 21<247.584 306.987> -13 21G<-1 17.5> 368 60<112.989 308>
VStem: 308 55<-52.3546 10.1863>
DStem2: -1 -4 89 73 0.638963 0.769237<116.738 483.596>
LayerCount: 3
Fore
SplineSet
270 -81 m 0
 196 -81 124 4 53 4 c 0
 37 4 23 0 7 -13 c 1
 -1 -4 l 1
 308 368 l 1
 163 368 l 2
 116 368 103 359 81 309 c 1
 64 313 l 1
 97 428 l 1
 379 428 l 1
 379 417 l 1
 89 73 l 1
 148 60 167 47 211 -10 c 0
 245 -53 256 -60 281 -60 c 0
 297 -60 308 -54 308 -45 c 0
 308 -34 294 -19 294 0 c 0
 294 18 308 31 328 31 c 0
 349 31 363 16 363 -4 c 0
 363 -45 319 -81 270 -81 c 0
EndSplineSet
Validated: 1
Layer: 2
SplineSet
270 -81 m 128,-1,1
 233 -81 233 -81 160.5 -38.5 c 128,-1,2
 88 4 88 4 53 4 c 0,3,4
 28 4 28 4 7 -13 c 1,5,-1
 -1 -4 l 1,6,-1
 308 368 l 1,7,-1
 163 368 l 2,8,9
 128 368 128 368 112.5 357 c 128,-1,10
 97 346 97 346 81 309 c 1,11,-1
 64 313 l 1,12,-1
 97 428 l 1,13,-1
 379 428 l 1,14,-1
 379 417 l 1,15,-1
 89 73 l 1,16,17
 133 63 133 63 155.5 48 c 128,-1,18
 178 33 178 33 211 -10 c 0,19,20
 236 -42 236 -42 249 -51 c 128,-1,21
 262 -60 262 -60 281 -60 c 0,22,23
 308 -60 308 -60 308 -45 c 0,24,25
 308 -40 308 -40 301 -25 c 128,-1,26
 294 -10 294 -10 294 0 c 0,27,28
 294 14 294 14 303.5 22.5 c 128,-1,29
 313 31 313 31 328 31 c 0,30,31
 344 31 344 31 353.5 21 c 128,-1,32
 363 11 363 11 363 -4 c 0,33,34
 363 -35 363 -35 335 -58 c 128,-1,0
 307 -81 307 -81 270 -81 c 128,-1,1
EndSplineSet
EndChar

StartChar: braceleft
Encoding: 123 123 92
Width: 399
Flags: W
HStem: -177 11<163.28 176>
VStem: 51 75<-147.315 0.871582> 117 75<90.6963 233.929>
DStem2: 84 49 159 44 0.256834 0.966456<-132.644 151.548 258.434 616.248>
LayerCount: 3
Fore
SplineSet
51 -100 m 0xe0
 51 -40 117 138 117 198 c 0
 117 227 104 242 64 255 c 1
 129 272 151 296 170 369 c 2
 218 546 l 1
 249 653 294 687 407 687 c 1
 404 677 l 1
 341 661 316 631 294 552 c 1
 250 384 l 2
 229 300 202 272 138 255 c 1
 176 237 192 220 192 192 c 0xd0
 192 149 126 -63 126 -100 c 0
 126 -138 141 -155 179 -166 c 1
 176 -177 l 1
 83 -174 51 -154 51 -100 c 0xe0
EndSplineSet
Validated: 1
Layer: 2
SplineSet
51 -100 m 0,0,1
 51 -70 51 -70 84 49 c 128,-1,2
 117 168 117 168 117 198 c 0,3,4
 117 220 117 220 105.5 232.5 c 128,-1,5
 94 245 94 245 64 255 c 1,6,7
 113 268 113 268 134.5 291 c 128,-1,8
 156 314 156 314 170 369 c 2,9,-1
 218 546 l 2,10,11
 241 626 241 626 281.5 656.5 c 128,-1,12
 322 687 322 687 407 687 c 1,13,-1
 404 677 l 1,14,15
 357 665 357 665 334 638.5 c 128,-1,16
 311 612 311 612 294 552 c 2,17,-1
 250 384 l 2,18,19
 234 322 234 322 210.5 295 c 128,-1,20
 187 268 187 268 138 255 c 1,21,22
 167 241 167 241 179.5 227 c 128,-1,23
 192 213 192 213 192 192 c 0,24,25
 192 170 192 170 159 44 c 128,-1,26
 126 -82 126 -82 126 -100 c 0,27,28
 126 -128 126 -128 138 -143 c 128,-1,29
 150 -158 150 -158 179 -166 c 1,30,-1
 176 -177 l 1,31,32
 106 -175 106 -175 78.5 -158 c 128,-1,33
 51 -141 51 -141 51 -100 c 0,0,1
EndSplineSet
EndChar

StartChar: bar
Encoding: 124 124 93
Width: 273
Flags: W
HStem: -18 21G<105 171> 646 20G<105 171>
VStem: 105 66<-18 666>
LayerCount: 3
Fore
SplineSet
105 -18 m 1
 105 666 l 1
 171 666 l 1
 171 -18 l 1
 105 -18 l 1
EndSplineSet
Validated: 1
Layer: 2
SplineSet
105 -18 m 1,0,-1
 105 666 l 1,1,-1
 171 666 l 1,2,-1
 171 -18 l 1,3,-1
 105 -18 l 1,0,-1
EndSplineSet
EndChar

StartChar: braceright
Encoding: 125 125 94
Width: 399
Flags: W
HStem: 677 10<224 234.438>
VStem: 208 75<276.743 422.072> 274 75<509.85 657.063>
DStem2: 105 -42 182 -37 0.258609 0.965982<-80.1015 268.496 389.038 672.048>
LayerCount: 3
Fore
SplineSet
208 318 m 0xe0
 208 358 274 576 274 609 c 0
 274 646 259 665 221 677 c 1
 224 687 l 1
 315 684 349 664 349 609 c 0xd0
 349 550 283 379 283 312 c 0
 283 283 296 270 335 255 c 1
 271 237 249 214 230 141 c 2
 182 -37 l 1
 151 -144 105 -177 -7 -177 c 1
 -4 -166 l 1
 59 -149 83 -122 105 -42 c 1
 149 126 l 2
 171 209 196 237 264 255 c 1
 224 272 208 291 208 318 c 0xe0
EndSplineSet
Validated: 1
Layer: 2
SplineSet
208 318 m 0,0,1
 208 339 208 339 241 466 c 128,-1,2
 274 593 274 593 274 609 c 0,3,4
 274 637 274 637 262 652.5 c 128,-1,5
 250 668 250 668 221 677 c 1,6,-1
 224 687 l 1,7,8
 293 685 293 685 321 667.5 c 128,-1,9
 349 650 349 650 349 609 c 0,10,11
 349 580 349 580 316 463 c 128,-1,12
 283 346 283 346 283 312 c 0,13,14
 283 290 283 290 294 278 c 128,-1,15
 305 266 305 266 335 255 c 1,16,17
 287 241 287 241 265.5 218 c 128,-1,18
 244 195 244 195 230 141 c 2,19,-1
 182 -37 l 2,20,21
 159 -117 159 -117 118 -147 c 128,-1,22
 77 -177 77 -177 -7 -177 c 1,23,-1
 -4 -166 l 1,24,25
 43 -153 43 -153 66 -127.5 c 128,-1,26
 89 -102 89 -102 105 -42 c 2,27,-1
 149 126 l 2,28,29
 165 188 165 188 189 214.5 c 128,-1,30
 213 241 213 241 264 255 c 1,31,32
 208 279 208 279 208 318 c 0,0,1
EndSplineSet
EndChar

StartChar: asciitilde
Encoding: 126 126 95
Width: 540
Flags: W
HStem: 186 66<302.745 425.301> 253 66<115.707 242.38>
LayerCount: 3
Fore
SplineSet
163 319 m 0
 262 319 301 252 374 252 c 0
 404 252 422 264 448 303 c 1
 502 271 l 1
 456 207 425 186 379 186 c 0
 279 186 248 253 168 253 c 0
 138 253 120 242 94 204 c 1
 40 234 l 1
 86 299 117 319 163 319 c 0
EndSplineSet
Validated: 1
Layer: 2
SplineSet
163 319 m 0,0,1
 216 319 216 319 278.5 285.5 c 128,-1,2
 341 252 341 252 374 252 c 0,3,4
 397 252 397 252 413 263 c 128,-1,5
 429 274 429 274 448 303 c 1,6,-1
 502 271 l 1,7,8
 468 223 468 223 441 204.5 c 128,-1,9
 414 186 414 186 379 186 c 0,10,11
 326 186 326 186 266 219.5 c 128,-1,12
 206 253 206 253 168 253 c 0,13,14
 145 253 145 253 129 242.5 c 128,-1,15
 113 232 113 232 94 204 c 1,16,-1
 40 234 l 1,17,18
 74 282 74 282 101 300.5 c 128,-1,19
 128 319 128 319 163 319 c 0,0,1
EndSplineSet
EndChar

StartChar: uni0E10.descless
Encoding: 63232 63232 96
Width: 484
Flags: W
HStem: -8 43<262.188 325.053> 189 40<173.628 223.573> 319 38<173.69 242.331> 488 72<405.867 534.206> 526 68<261.192 390.168>
VStem: 126 40<235.31 312.587> 194 67<36.8313 102.436> 251 67<235.6 313.542> 409 76<308.735 369.999>
DStem2: 208 472 149 439 0.960176 -0.279396<0 227.481> 169.09 -8 239.15 -8 0.267238 0.96363<94.1249 205.473> 312.427 -8 385.385 -8 0.267238 0.96363<52.7151 368.588>
LayerCount: 3
Fore
SplineSet
593 582 m 3xf680
 593 574 577 549 562 533 c 0
 535 504 499 488 462 488 c 3xf680
 443 488 425 492 385 506 c 0
 340 522 319 526 295 526 c 3
 259 526 235 511 208 472 c 1
 452 401 l 2
 477 394 485 384 485 362 c 3
 485 355 484 346 480 332 c 2
 417 106 l 2
 397 34 345 -8 276 -8 c 3
 227 -8 194 25 194 74 c 3xee80
 194 83 196 94 199 106 c 2
 224 190 l 1
 221 189 218 189 213 189 c 3
 167 189 126 228 126 273 c 3
 126 318 166 357 213 357 c 3
 277 357 318 330 318 288 c 3xed80
 318 281 317 275 316 270 c 2
 263 78 l 2
 262 73 261 68 261 64 c 3
 261 46 271 35 288 35 c 3
 309 35 330 53 336 77 c 2
 404 321 l 2
 408 334 409 342 409 348 c 3
 409 360 404 366 390 370 c 2
 149 439 l 1
 211 549 267 594 340 594 c 3xee80
 357 594 373 591 416 579 c 0
 466 565 489 560 513 560 c 3
 539 560 556 566 577 581 c 0
 584 586 586 587 589 587 c 3
 591 587 593 585 593 582 c 3xf680
208 229 m 3
 233 229 251 248 251 274 c 3xe580
 251 300 233 319 208 319 c 3
 184 319 166 300 166 274 c 3
 166 248 184 229 208 229 c 3
EndSplineSet
Layer: 2
SplineSet
593 582 m 0,0,1
 593 566 593 566 562 533 c 0,2,3
 520 488 520 488 462 488 c 0,4,5
 436 488 436 488 385 506 c 0,6,7
 329 526 329 526 295 526 c 0,8,9
 245 526 245 526 208 472 c 1,10,-1
 452 401 l 2,11,12
 485 392 485 392 485 362 c 0,13,14
 485 350 485 350 480 332 c 2,15,-1
 417 106 l 2,16,17
 402 52 402 52 365 22 c 128,-1,18
 328 -8 328 -8 276 -8 c 0,19,20
 239 -8 239 -8 216.5 14.5 c 128,-1,21
 194 37 194 37 194 74 c 0,22,23
 194 86 194 86 199 106 c 2,24,-1
 224 190 l 1,25,26
 221 189 221 189 213 189 c 0,27,28
 178 189 178 189 152 214 c 128,-1,29
 126 239 126 239 126 273 c 128,-1,30
 126 307 126 307 152 332 c 128,-1,31
 178 357 178 357 213 357 c 0,32,33
 261 357 261 357 289.5 338.5 c 128,-1,34
 318 320 318 320 318 288 c 0,35,36
 318 280 318 280 316 270 c 2,37,-1
 263 78 l 2,38,39
 261 68 261 68 261 64 c 0,40,41
 261 35 261 35 288 35 c 0,42,43
 304 35 304 35 318 47 c 128,-1,44
 332 59 332 59 336 77 c 2,45,-1
 404 321 l 2,46,47
 409 337 409 337 409 348 c 0,48,49
 409 365 409 365 390 370 c 2,50,-1
 149 439 l 1,51,52
 195 521 195 521 240 557.5 c 128,-1,53
 285 594 285 594 340 594 c 0,54,55
 362 594 362 594 416 579 c 0,56,57
 484 560 484 560 513 560 c 0,58,59
 548 560 548 560 577 581 c 0,60,61
 585 587 585 587 589 587 c 128,-1,62
 593 587 593 587 593 582 c 0,0,1
208 229 m 0,63,64
 227 229 227 229 239 241.5 c 128,-1,65
 251 254 251 254 251 274 c 128,-1,66
 251 294 251 294 239 306.5 c 128,-1,67
 227 319 227 319 208 319 c 0,68,69
 190 319 190 319 178 306 c 128,-1,70
 166 293 166 293 166 274 c 128,-1,71
 166 255 166 255 178 242 c 128,-1,72
 190 229 190 229 208 229 c 0,63,64
EndSplineSet
EndChar

StartChar: uni0E34.left
Encoding: 63233 63233 97
Width: 0
Flags: W
HStem: 740 40<-386.491 -221.273> 844 49<-318.523 -158.132>
LayerCount: 3
Back
SplineSet
-62 654 m 1
 -82 667 -183 722 -250 731 c 0
 -339 746 -425 733 -444 728 c 1
 -389 834 -288 900 -193 892 c 0
 -86 885 -30 796 -62 654 c 1
-94 719 m 1
 -100 803 -141 834 -209 843 c 0
 -267 851 -328 820 -361 779 c 1
 -361 779 -290 785 -229 773 c 0
 -143 756 -94 719 -94 719 c 1
EndSplineSet
Fore
Refer: 180 3636 N 1 0 0 1 -165 0 2
Layer: 2
Refer: 180 3636 N 1 0 0 1 -165 0 2
EndChar

StartChar: uni0E35.left
Encoding: 63234 63234 98
Width: 0
Flags: W
HStem: 740 40<-386.491 -220.751> 844 49<-318.523 -157.921>
VStem: -74 72<879 951>
LayerCount: 3
Back
SplineSet
-62 654 m 1
 -82 667 -183 720 -250 731 c 0
 -342 746 -425 733 -444 728 c 1
 -399 820 -296 900 -201 892 c 0
 -168 891 -126 883 -95 852 c 1
 -67 951 l 1
 -3 951 l 1
 -56 762 l 1
 -56 762 -48 720 -62 654 c 1
-94 719 m 1
 -100 803 -141 834 -209 843 c 0
 -267 851 -328 820 -361 779 c 1
 -361 779 -290 785 -229 773 c 0
 -143 756 -94 719 -94 719 c 1
EndSplineSet
Fore
Refer: 181 3637 N 1 0 0 1 -165 0 2
Layer: 2
Refer: 181 3637 N 1 0 0 1 -165 0 2
EndChar

StartChar: uni0E36.left
Encoding: 63235 63235 99
Width: 0
Flags: W
HStem: 740 40<-386.102 -221.082> 844 50<-317.442 -157.359> 906 48<-100.059 -25.3693>
VStem: -20 44<824.92 900.687>
LayerCount: 3
Back
SplineSet
-63 822 m 0
 -38 822 -25 842 -26 863 c 0
 -25 884 -38 905 -64 905 c 0
 -89 905 -101 885 -101 864 c 0
 -101 843 -88 822 -63 822 c 0
-94 719 m 17
 -100 803 -141 834 -209 843 c 0
 -267 851 -328 820 -361 779 c 1
 -361 779 -290 785 -229 773 c 0
 -143 756 -94 719 -94 719 c 17
-62 654 m 1
 -82 667 -183 720 -250 731 c 0
 -342 746 -425 733 -444 728 c 1
 -398 822 -292 900 -198 892 c 0
 -158 889 -140 879 -140 879 c 1
 -134 908 -114 948 -60 948 c 0
 -15 948 18 904 18 865 c 0
 18 825 -13 779 -59 780 c 1
 -59 780 -44 735 -62 654 c 1
EndSplineSet
Fore
Refer: 182 3638 N 1 0 0 1 -165 0 2
Layer: 2
Refer: 182 3638 N 1 0 0 1 -165 0 2
EndChar

StartChar: uni0E37.left
Encoding: 63236 63236 100
Width: 0
Flags: W
HStem: 736 40<-390.492 -218.535> 830 46<-330.443 -218>
VStem: -196 66<885 951> -67 65<886 951>
DStem2: -218 876 -153 863 0.252869 0.9675<0.532501 78.1257> -152.75 648 -84.3458 648 0.267238 0.96363<189.907 314.896>
LayerCount: 3
Back
SplineSet
-62 654 m 1
 -82 667 -183 720 -250 731 c 0
 -342 746 -425 733 -444 728 c 1
 -381 851 -266 902 -196 889 c 1
 -177 951 l 1
 -124 951 l 1
 -144 877 l 1
 -114 869 -93 845 -93 845 c 1
 -63 951 l 1
 -7 951 l 1
 -56 763 l 1
 -56 763 -45 723 -62 654 c 1
-94 719 m 1
 -100 803 -141 834 -209 843 c 0
 -267 851 -328 820 -361 779 c 1
 -361 779 -290 785 -229 773 c 0
 -143 756 -94 719 -94 719 c 1
EndSplineSet
Fore
Refer: 183 3639 N 1 0 0 1 -165 0 2
Layer: 2
Refer: 183 3639 N 1 0 0 1 -165 0 2
EndChar

StartChar: ellipsis
Encoding: 8230 8230 101
Width: 951
Flags: W
HStem: -14 115<139.781 203.219 455.75 520.289 774.227 837.375>
VStem: 116 112<10.7881 76.9243> 432 114<11.7086 76.9243> 750 112<10.7881 76.9243>
CounterMasks: 1 70
LayerCount: 3
Fore
SplineSet
862 60 m 0
 862 27 828 -14 789 -14 c 0
 764 -14 750 5 750 29 c 0
 750 69 793 101 821 101 c 0
 845 101 862 83 862 60 c 0
546 59 m 0
 546 24 508 -14 472 -14 c 0
 447 -14 432 5 432 29 c 0
 432 67 472 101 504 101 c 0
 528 101 546 83 546 59 c 0
228 60 m 0
 228 30 197 -14 154 -14 c 0
 130 -14 116 5 116 29 c 0
 116 69 158 101 186 101 c 0
 211 101 228 83 228 60 c 0
EndSplineSet
Validated: 1
Layer: 2
SplineSet
862 60 m 0,0,1
 862 34 862 34 839.5 10 c 128,-1,2
 817 -14 817 -14 789 -14 c 0,3,4
 771 -14 771 -14 760.5 -2 c 128,-1,5
 750 10 750 10 750 29 c 0,6,7
 750 57 750 57 774 79 c 128,-1,8
 798 101 798 101 821 101 c 0,9,10
 839 101 839 101 850.5 89 c 128,-1,11
 862 77 862 77 862 60 c 0,0,1
546 59 m 0,12,13
 546 33 546 33 522.5 9.5 c 128,-1,14
 499 -14 499 -14 472 -14 c 0,15,16
 454 -14 454 -14 443 -2 c 128,-1,17
 432 10 432 10 432 29 c 0,18,19
 432 57 432 57 455.5 79 c 128,-1,20
 479 101 479 101 504 101 c 0,21,22
 522 101 522 101 534 89 c 128,-1,23
 546 77 546 77 546 59 c 0,12,13
228 60 m 0,24,25
 228 35 228 35 206 10.5 c 128,-1,26
 184 -14 184 -14 154 -14 c 0,27,28
 136 -14 136 -14 126 -2 c 128,-1,29
 116 10 116 10 116 29 c 0,30,31
 116 57 116 57 139.5 79 c 128,-1,32
 163 101 163 101 186 101 c 0,33,34
 204 101 204 101 216 89.5 c 128,-1,35
 228 78 228 78 228 60 c 0,24,25
EndSplineSet
EndChar

StartChar: uni0E48.low_left
Encoding: 63237 63237 102
Width: 0
Flags: W
HStem: 670 244<-83 -78>
VStem: -150 72<670 742> -83 72<842 914>
DStem2: -150 670 -78 670 0.267238 0.96363<19.2412 253.031>
LayerCount: 3
Back
SplineSet
-8 926 m 1
 -75 685 l 1
 -147 685 l 5
 -80 926 l 1
 -8 926 l 1
EndSplineSet
Fore
Refer: 107 63242 N 1 0 0 1 -165 0 2
Validated: 1
Layer: 2
Refer: 107 63242 N 1 0 0 1 -165 0 2
EndChar

StartChar: uni0E49.low_left
Encoding: 63238 63238 103
Width: 0
Flags: W
HStem: 774 39<-278.439 -242> 919 37<-278.281 -200.57>
VStem: -327 37<824.509 906.955> -188 39<824.651 907.712> 19 77<903.059 952>
LayerCount: 3
Back
SplineSet
-213 906 m 0
 -189 875 -195 843 -203 824 c 0
 -237 754 -293 716 -293 716 c 1
 -293 714 l 1
 -230 723 -92 766 -38 931 c 1
 40 931 l 17
 -85 637 -360 667 -388 670 c 1
 -379 703 l 1
 -370 707 -307 736 -281 778 c 1
 -281 778 -287 777 -302 780 c 0
 -341 786 -361 820 -361 854 c 0
 -361 895 -332 938 -275 938 c 0
 -249 938 -223 919 -213 906 c 0
-279 811 m 0
 -251 811 -237 833 -237 856 c 0
 -236 879 -251 902 -280 902 c 0
 -309 902 -324 880 -323 857 c 0
 -324 834 -309 811 -279 811 c 0
EndSplineSet
Fore
Refer: 108 63243 N 1 0 0 1 -187 0 2
Layer: 2
Refer: 108 63243 N 1 0 0 1 -187 0 2
EndChar

StartChar: uni0E4A.low_left
Encoding: 63239 63239 104
Width: 0
Flags: W
HStem: 666 32<-351.046 -287.904> 782 32<-351.058 -288.527>
VStem: -412 53<702.568 807.806> -280 33<705.72 774.652> -132 55<773.451 873.399> 5 73<869.586 926>
LayerCount: 3
Back
SplineSet
16 906 m 17
 -14 768 -105 684 -230 670 c 1
 -224 694 l 1
 -194 710 -173 744 -164 776 c 0
 -154 810 -159 842 -183 849 c 1
 -247 811 l 1
 -288 849 l 1
 -323 849 -352 810 -360 788 c 1
 -360 788 -352 800 -319 800 c 0
 -280 800 -257 770 -256 734 c 0
 -257 690 -285 666 -321 666 c 0
 -406 666 -420 720 -400 793 c 0
 -386 843 -323 903 -273 903 c 1
 -273 903 -234 857 -232 857 c 2
 -169 902 l 1
 -107 884 -100 839 -112 797 c 0
 -119 771 -134 745 -147 728 c 1
 -83 766 -48 834 -45 906 c 1
 16 906 l 17
-286 733 m 0
 -286 758 -304 770 -322 770 c 0
 -340 770 -358 758 -358 733 c 0
 -358 708 -340 696 -322 696 c 0
 -304 696 -286 708 -286 733 c 0
EndSplineSet
Fore
Refer: 109 63244 N 1 0 0 1 -187 0 2
Layer: 2
Refer: 109 63244 N 1 0 0 1 -187 0 2
EndChar

StartChar: uni0E4B.low_left
Encoding: 63240 63240 105
Width: 0
Flags: W
HStem: 677 21G<-165 -102.2> 779 60<-230 -139 -60 29>
VStem: -165 57<677 734> -96 66<876 942>
DStem2: -165 677 -108 677 0.267238 0.96363<15.2326 103.311 185.132 273.802>
LayerCount: 3
Back
SplineSet
-7 777 m 1
 -116 776 l 1
 -146 676 l 1
 -200 676 l 1
 -173 776 l 1
 -283 777 l 1
 -267 834 l 1
 -158 836 l 1
 -132 935 l 1
 -69 935 l 1
 -98 836 l 1
 9 834 l 1
 -7 777 l 1
EndSplineSet
Fore
Refer: 110 63245 N 1 0 0 1 -187 0 2
Validated: 1
Layer: 2
Refer: 110 63245 N 1 0 0 1 -187 0 2
EndChar

StartChar: uni0E4C.low_left
Encoding: 63241 63241 106
Width: 0
Flags: W
HStem: 668 39<-191.473 -120.882>
VStem: -238 39<714.819 786.806> -114 40<712.784 787.96>
LayerCount: 3
Back
SplineSet
49 954 m 17
 9 846 -120 825 -130 822 c 0
 -145 817 -173 815 -173 815 c 1
 -142 805 -131 778 -131 746 c 0
 -131 694 -168 670 -209 670 c 0
 -254 670 -283 709 -283 746 c 0
 -283 788 -249 831 -143 860 c 0
 -91 876 -30 906 -16 968 c 1
 49 954 l 17
-206 703 m 0
 -178 703 -165 724 -164 746 c 0
 -164 767 -178 788 -206 788 c 0
 -234 788 -248 767 -248 746 c 0
 -248 724 -234 703 -206 703 c 0
EndSplineSet
Fore
Refer: 111 63246 N 1 0 0 1 -165 0 2
Layer: 2
Refer: 111 63246 N 1 0 0 1 -165 0 2
EndChar

StartChar: uni0E48.low
Encoding: 63242 63242 107
Width: 0
Flags: W
HStem: 670 244<82 87>
VStem: 15 72<670 742> 82 72<842 914>
DStem2: 15 670 87 670 0.267238 0.96363<19.2412 253.031>
AnchorPoint: "AboveMark" 133 968 basemark 0
AnchorPoint: "AboveBase" 78 645 mark 0
LayerCount: 3
Fore
SplineSet
154 914 m 1xa0
 87 670 l 1
 15 670 l 1xc0
 82 914 l 1
 154 914 l 1xa0
EndSplineSet
Validated: 1
Layer: 2
SplineSet
154 914 m 1,0,-1
 87 670 l 1,1,-1
 15 670 l 1,2,-1
 82 914 l 1,3,-1
 154 914 l 1,0,-1
EndSplineSet
Substitution2: "Thai Phinthu Mai Ek Reordering" uni0E3A
EndChar

StartChar: uni0E49.low
Encoding: 63243 63243 108
Width: 0
Flags: W
HStem: 774 39<-91.4395 -55> 919 37<-91.2809 -13.5697>
VStem: -140 37<824.509 906.955> -1 39<824.651 907.712> 206 77<903.059 952>
AnchorPoint: "AboveMark" 86 968 basemark 0
AnchorPoint: "AboveBase" 116 645 mark 0
LayerCount: 3
Fore
SplineSet
-48 956 m 3
 1 956 38 917 38 865 c 3
 38 824 -9 756 -66 716 c 1
 64 729 163 815 206 952 c 1
 283 952 l 17
 215 770 72 668 -117 668 c 3
 -136 668 -154 669 -161 670 c 1
 -151 705 l 1
 -111 720 -74 747 -53 775 c 1
 -55 774 l 1
 -101 774 -140 816 -140 866 c 3
 -140 919 -102 956 -48 956 c 3
-53 813 m 3
 -23 813 -1 836 -1 866 c 3
 -1 897 -23 919 -53 919 c 3
 -82 919 -103 897 -103 866 c 3
 -103 835 -82 813 -53 813 c 3
EndSplineSet
Layer: 2
SplineSet
-48 956 m 0,0,1
 -11 956 -11 956 13.5 930 c 128,-1,2
 38 904 38 904 38 865 c 0,3,4
 38 834 38 834 7.5 790 c 128,-1,5
 -23 746 -23 746 -66 716 c 1,6,7
 31 726 31 726 102.5 787.5 c 128,-1,8
 174 849 174 849 206 952 c 1,9,-1
 283 952 l 1,10,11
 232 815 232 815 128.5 741.5 c 128,-1,12
 25 668 25 668 -117 668 c 0,13,14
 -147 668 -147 668 -161 670 c 1,15,-1
 -151 705 l 1,16,17
 -88 729 -88 729 -53 775 c 1,18,-1
 -55 774 l 1,19,20
 -90 774 -90 774 -115 801.5 c 128,-1,21
 -140 829 -140 829 -140 866 c 0,22,23
 -140 906 -140 906 -114.5 931 c 128,-1,24
 -89 956 -89 956 -48 956 c 0,0,1
-53 813 m 128,-1,26
 -31 813 -31 813 -16 828 c 128,-1,27
 -1 843 -1 843 -1 866 c 128,-1,28
 -1 889 -1 889 -15.5 904 c 128,-1,29
 -30 919 -30 919 -53 919 c 0,30,31
 -75 919 -75 919 -89 904 c 128,-1,32
 -103 889 -103 889 -103 866 c 128,-1,33
 -103 843 -103 843 -89 828 c 128,-1,25
 -75 813 -75 813 -53 813 c 128,-1,26
EndSplineSet
Substitution2: "Thai Phinthu Mai Tho Reordering" uni0E3A
EndChar

StartChar: uni0E4A.low
Encoding: 63244 63244 109
Width: 0
Flags: W
HStem: 666 32<-164.046 -100.904> 782 32<-164.058 -101.527>
VStem: -225 53<702.568 807.806> -93 33<705.72 774.652> 55 55<773.451 873.399> 192 73<869.586 926>
AnchorPoint: "AboveMark" -7 968 basemark 0
AnchorPoint: "AboveBase" 116 645 mark 0
LayerCount: 3
Fore
SplineSet
110 850 m 3
 110 820 96 782 69 739 c 1
 71 739 l 1
 134 774 189 859 192 926 c 1
 265 926 l 17
 228 786 117 689 -27 670 c 1
 -19 699 l 1
 23 722 55 777 55 827 c 3
 55 853 46 870 29 876 c 1
 -46 831 l 1
 -93 876 l 1
 -124 876 -167 835 -179 794 c 1
 -169 806 -149 814 -129 814 c 3
 -91 814 -60 780 -60 740 c 3
 -60 699 -93 666 -133 666 c 3
 -193 666 -225 695 -225 751 c 3
 -225 841 -159 920 -75 932 c 1
 -29 883 l 1
 42 932 l 1
 87 917 110 890 110 850 c 3
-93 739 m 3
 -93 764 -109 782 -132 782 c 3
 -156 782 -172 764 -172 739 c 3
 -172 715 -155 698 -132 698 c 3
 -109 698 -93 715 -93 739 c 3
EndSplineSet
Layer: 2
SplineSet
110 850 m 0,0,1
 110 804 110 804 69 739 c 1,2,-1
 71 739 l 1,3,4
 118 765 118 765 154 820.5 c 128,-1,5
 190 876 190 876 192 926 c 1,6,-1
 265 926 l 1,7,8
 237 821 237 821 159 752.5 c 128,-1,9
 81 684 81 684 -27 670 c 1,10,-1
 -19 699 l 1,11,12
 13 716 13 716 34 753 c 128,-1,13
 55 790 55 790 55 827 c 0,14,15
 55 867 55 867 29 876 c 1,16,-1
 -46 831 l 1,17,-1
 -93 876 l 1,18,19
 -116 876 -116 876 -143 850.5 c 128,-1,20
 -170 825 -170 825 -179 794 c 1,21,22
 -162 814 -162 814 -129 814 c 0,23,24
 -101 814 -101 814 -80.5 792 c 128,-1,25
 -60 770 -60 770 -60 740 c 0,26,27
 -60 709 -60 709 -81.5 687.5 c 128,-1,28
 -103 666 -103 666 -133 666 c 0,29,30
 -225 666 -225 666 -225 751 c 0,31,32
 -225 818 -225 818 -181.5 870.5 c 128,-1,33
 -138 923 -138 923 -75 932 c 1,34,-1
 -29 883 l 1,35,-1
 42 932 l 1,36,37
 110 909 110 909 110 850 c 0,0,1
-93 739 m 0,38,39
 -93 758 -93 758 -104 770 c 128,-1,40
 -115 782 -115 782 -132 782 c 0,41,42
 -150 782 -150 782 -161 770 c 128,-1,43
 -172 758 -172 758 -172 739 c 0,44,45
 -172 721 -172 721 -160.5 709.5 c 128,-1,46
 -149 698 -149 698 -132 698 c 128,-1,47
 -115 698 -115 698 -104 709.5 c 128,-1,48
 -93 721 -93 721 -93 739 c 0,38,39
EndSplineSet
Substitution2: "Thai Phinthu Mai Tri Reordering" uni0E3A
EndChar

StartChar: uni0E4B.low
Encoding: 63245 63245 110
Width: 0
Flags: W
HStem: 677 21G<22 84.8> 779 60<-43 48 127 216>
VStem: 22 57<677 734> 91 66<876 942>
DStem2: 22 677 79 677 0.267238 0.96363<15.2326 103.311 185.132 273.802>
AnchorPoint: "AboveMark" 131 968 basemark 0
AnchorPoint: "AboveBase" 116 645 mark 0
LayerCount: 3
Fore
SplineSet
216 779 m 1
 108 777 l 1
 79 677 l 1
 22 677 l 1
 48 777 l 1
 -60 779 l 1
 -43 839 l 1
 64 840 l 1
 91 942 l 1
 157 942 l 1
 127 840 l 1
 233 839 l 1
 216 779 l 1
EndSplineSet
Validated: 1
Layer: 2
SplineSet
216 779 m 1,0,-1
 108 777 l 1,1,-1
 79 677 l 1,2,-1
 22 677 l 1,3,-1
 48 777 l 1,4,-1
 -60 779 l 1,5,-1
 -43 839 l 1,6,-1
 64 840 l 1,7,-1
 91 942 l 1,8,-1
 157 942 l 1,9,-1
 127 840 l 1,10,-1
 233 839 l 1,11,-1
 216 779 l 1,0,-1
EndSplineSet
Substitution2: "Thai Phinthu Mai Chattawa Reordering" uni0E3A
EndChar

StartChar: uni0E4C.low
Encoding: 63246 63246 111
Width: 0
Flags: W
HStem: 668 39<-26.4727 44.1175>
VStem: -73 39<714.819 786.806> 51 40<712.784 787.96>
AnchorPoint: "AboveMark" 69 968 basemark 0
AnchorPoint: "AboveBase" 78 645 mark 0
LayerCount: 3
Fore
SplineSet
263 949 m 17
 237 887 139 831 47 824 c 1
 75 812 91 786 91 751 c 3
 91 705 54 668 6 668 c 3
 -40 668 -73 704 -73 754 c 3
 -73 803 -26 841 72 871 c 0
 136 891 178 924 200 971 c 1
 263 949 l 17
11 707 m 3
 34 707 51 725 51 750 c 3
 51 775 34 794 11 794 c 3
 -15 794 -34 776 -34 750 c 3
 -34 725 -15 707 11 707 c 3
EndSplineSet
Layer: 2
SplineSet
263 949 m 17,0,1
 244 903 244 903 180 866 c 128,-1,2
 116 829 116 829 47 824 c 1,3,4
 91 805 91 805 91 751 c 0,5,6
 91 716 91 716 66.5 692 c 128,-1,7
 42 668 42 668 6 668 c 0,8,9
 -28 668 -28 668 -50.5 692 c 128,-1,10
 -73 716 -73 716 -73 754 c 0,11,12
 -73 827 -73 827 72 871 c 0,13,14
 167 901 167 901 200 971 c 1,15,-1
 263 949 l 17,0,1
11 707 m 0,16,17
 28 707 28 707 39.5 719 c 128,-1,18
 51 731 51 731 51 750 c 128,-1,19
 51 769 51 769 39.5 781.5 c 128,-1,20
 28 794 28 794 11 794 c 0,21,22
 -9 794 -9 794 -21.5 781.5 c 128,-1,23
 -34 769 -34 769 -34 750 c 128,-1,24
 -34 731 -34 731 -21.5 719 c 128,-1,25
 -9 707 -9 707 11 707 c 0,16,17
EndSplineSet
Substitution2: "Thai Phinthu Thanthakhat Reordering" uni0E3A
EndChar

StartChar: uni0E0D.descless
Encoding: 63247 63247 112
Width: 762
Flags: W
HStem: -8 37<190.991 257.05 485.385 579.325> 121 44<214.211 261.376> 392 44<214 232 273.85 364> 547 51<319.49 467.121>
VStem: 118 63<37.7531 113.859> 268 41<39.5643 114.067> 404 71<38.2908 125.267> 497 74<357.836 518.694> 753 74<520 594>
DStem2: 87.9984 -10 165.468 -10 0.267238 0.96363<202.308 415.456> 374.166 -10 447.217 -10 0.267238 0.96363<113.026 481.154> 585.494 -10 659.385 -10 0.267238 0.96363<73.6468 626.797>
LayerCount: 3
Fore
SplineSet
691 104 m 2
 675 46 590 -8 515 -8 c 3
 449 -8 404 29 404 84 c 3
 404 94 405 103 408 112 c 2
 490 407 l 2
 495 423 497 440 497 456 c 3
 497 514 461 547 399 547 c 3
 326 547 247 500 214 436 c 1
 376 436 l 1
 364 392 l 1
 317 392 l 2
 291 392 273 378 266 352 c 2
 214 165 l 1
 223 165 l 2
 273 165 309 129 309 78 c 3
 309 26 273 -10 221 -10 c 3
 160 -10 118 29 118 86 c 3
 118 95 119 102 121 109 c 2
 181 324 l 2
 189 354 210 382 232 392 c 1
 152 392 l 1
 188 511 302 598 422 598 c 3
 514 598 571 546 571 462 c 3
 571 447 569 431 565 413 c 2
 478 101 l 2
 476 93 475 86 475 79 c 3
 475 49 495 29 527 29 c 3
 568 29 605 59 616 100 c 2
 753 594 l 1
 827 594 l 1
 691 104 l 2
223 32 m 3
 249 32 268 51 268 77 c 3
 268 103 250 121 224 121 c 3
 200 121 181 102 181 78 c 3
 181 50 198 32 223 32 c 3
EndSplineSet
Layer: 2
SplineSet
691 104 m 2,0,1
 679 61 679 61 625 26.5 c 128,-1,2
 571 -8 571 -8 515 -8 c 0,3,4
 465 -8 465 -8 434.5 17.5 c 128,-1,5
 404 43 404 43 404 84 c 0,6,7
 404 100 404 100 408 112 c 2,8,-1
 490 407 l 2,9,10
 497 429 497 429 497 456 c 0,11,12
 497 499 497 499 471.5 523 c 128,-1,13
 446 547 446 547 399 547 c 0,14,15
 344 547 344 547 291.5 515.5 c 128,-1,16
 239 484 239 484 214 436 c 1,17,-1
 376 436 l 1,18,-1
 364 392 l 1,19,-1
 317 392 l 2,20,21
 277 392 277 392 266 352 c 2,22,-1
 214 165 l 1,23,-1
 223 165 l 2,24,25
 261 165 261 165 285 140.5 c 128,-1,26
 309 116 309 116 309 78 c 0,27,28
 309 39 309 39 284.5 14.5 c 128,-1,29
 260 -10 260 -10 221 -10 c 0,30,31
 175 -10 175 -10 146.5 16.5 c 128,-1,32
 118 43 118 43 118 86 c 0,33,34
 118 98 118 98 121 109 c 2,35,-1
 181 324 l 2,36,37
 195 375 195 375 232 392 c 1,38,-1
 152 392 l 1,39,40
 179 481 179 481 255.5 539.5 c 128,-1,41
 332 598 332 598 422 598 c 0,42,43
 491 598 491 598 531 561.5 c 128,-1,44
 571 525 571 525 571 462 c 0,45,46
 571 440 571 440 565 413 c 2,47,-1
 478 101 l 2,48,49
 475 89 475 89 475 79 c 0,50,51
 475 56 475 56 489 42.5 c 128,-1,52
 503 29 503 29 527 29 c 0,53,54
 558 29 558 29 583 49 c 128,-1,55
 608 69 608 69 616 100 c 2,56,-1
 753 594 l 1,57,-1
 827 594 l 1,58,-1
 691 104 l 2,0,1
223 32 m 128,-1,60
 242 32 242 32 255 45 c 128,-1,61
 268 58 268 58 268 77 c 128,-1,62
 268 96 268 96 256 108.5 c 128,-1,63
 244 121 244 121 224 121 c 0,64,65
 206 121 206 121 193.5 108.5 c 128,-1,66
 181 96 181 96 181 78 c 0,67,68
 181 57 181 57 192.5 44.5 c 128,-1,59
 204 32 204 32 223 32 c 128,-1,60
EndSplineSet
EndChar

StartChar: quoteleft
Encoding: 8216 8216 113
Width: 317
Flags: W
HStem: 456 122<277.5 339.895>
VStem: 233 147<486.039 573.139>
LayerCount: 3
Fore
SplineSet
380 542 m 0
 380 523 362 456 293 456 c 0
 249 456 233 488 233 524 c 0
 233 628 353 706 404 728 c 1
 410 700 l 1
 368 679 305 624 295 588 c 0
 293 582 291 578 296 578 c 0
 303 578 314 585 329 585 c 0
 358 585 380 570 380 542 c 0
EndSplineSet
Validated: 1
Layer: 2
SplineSet
380 542 m 0,0,1
 380 518 380 518 359 487 c 128,-1,2
 338 456 338 456 293 456 c 0,3,4
 262 456 262 456 247.5 475 c 128,-1,5
 233 494 233 494 233 524 c 0,6,7
 233 592 233 592 290.5 648 c 128,-1,8
 348 704 348 704 404 728 c 1,9,-1
 410 700 l 1,10,11
 376 683 376 683 339 648.5 c 128,-1,12
 302 614 302 614 295 588 c 0,13,14
 292 578 292 578 296 578 c 0,15,16
 298 578 298 578 309 581.5 c 128,-1,17
 320 585 320 585 329 585 c 0,18,19
 352 585 352 585 366 573.5 c 128,-1,20
 380 562 380 562 380 542 c 0,0,1
EndSplineSet
EndChar

StartChar: quoteright
Encoding: 8217 8217 114
Width: 317
Flags: W
HStem: 598 21G<304.5 320.5> 605 122<305.025 367.5>
VStem: 265 147<609.861 696.494>
LayerCount: 3
Fore
SplineSet
265 641 m 0xa0
 265 662 285 727 352 727 c 0
 396 727 412 695 412 659 c 0
 412 554 291 475 240 455 c 1
 235 482 l 1
 276 504 340 559 350 594 c 0
 352 601 354 605 348 605 c 0x60
 342 605 331 598 316 598 c 0
 287 598 265 613 265 641 c 0xa0
EndSplineSet
Validated: 1
Layer: 2
SplineSet
265 641 m 0,0,1
 265 666 265 666 286.5 696.5 c 128,-1,2
 308 727 308 727 352 727 c 0,3,4
 383 727 383 727 397.5 708 c 128,-1,5
 412 689 412 689 412 659 c 0,6,7
 412 622 412 622 393 586 c 128,-1,8
 374 550 374 550 345 524.5 c 128,-1,9
 316 499 316 499 289 481.5 c 128,-1,10
 262 464 262 464 240 455 c 1,11,-1
 235 482 l 1,12,13
 269 500 269 500 306 534.5 c 128,-1,14
 343 569 343 569 350 594 c 0,15,16
 353 605 353 605 348 605 c 0,17,18
 346 605 346 605 335.5 601.5 c 128,-1,19
 325 598 325 598 316 598 c 0,20,21
 293 598 293 598 279 609.5 c 128,-1,22
 265 621 265 621 265 641 c 0,0,1
EndSplineSet
EndChar

StartChar: bullet
Encoding: 8226 8226 117
Width: 367
Flags: W
HStem: 189 261<231.1 311.993>
VStem: 143 259<280.722 359.277>
LayerCount: 3
Fore
SplineSet
402 358 m 0
 402 275 323 189 235 189 c 0
 179 189 143 228 143 282 c 0
 143 363 220 450 308 450 c 0
 366 450 402 412 402 358 c 0
EndSplineSet
Validated: 1
Layer: 2
SplineSet
402 358 m 0,0,1
 402 295 402 295 351 242 c 128,-1,2
 300 189 300 189 235 189 c 0,3,4
 193 189 193 189 168 215 c 128,-1,5
 143 241 143 241 143 282 c 0,6,7
 143 344 143 344 193 397 c 128,-1,8
 243 450 243 450 308 450 c 0,9,10
 351 450 351 450 376.5 424.5 c 128,-1,11
 402 399 402 399 402 358 c 0,0,1
EndSplineSet
EndChar

StartChar: endash
Encoding: 8211 8211 118
Width: 732
Flags: W
HStem: 214 47<104 759>
LayerCount: 3
Fore
SplineSet
759 214 m 1
 91 214 l 1
 104 261 l 1
 772 261 l 1
 759 214 l 1
EndSplineSet
Validated: 1
Layer: 2
SplineSet
759 214 m 1,0,-1
 91 214 l 1,1,-1
 104 261 l 1,2,-1
 772 261 l 1,3,-1
 759 214 l 1,0,-1
EndSplineSet
EndChar

StartChar: emdash
Encoding: 8212 8212 119
Width: 1464
Flags: W
HStem: 214 47<93 1503>
LayerCount: 3
Fore
SplineSet
1503 214 m 1
 80 214 l 1
 93 261 l 1
 1516 261 l 1
 1503 214 l 1
EndSplineSet
Validated: 1
Layer: 2
SplineSet
1503 214 m 1,0,-1
 80 214 l 1,1,-1
 93 261 l 1,2,-1
 1516 261 l 1,3,-1
 1503 214 l 1,0,-1
EndSplineSet
EndChar

StartChar: uni0E31.left
Encoding: 63248 63248 120
Width: 0
Flags: HW
HStem: 676 52<-168.291 -7.12482> 874 40<-228.044 -159.828>
VStem: -291 53<792.163 863.754> -150 43<791.594 863.794>
LayerCount: 3
Back
SplineSet
315 908 m 17
 234 750 65 677 -65 677 c 0
 -166 677 -251 717 -245 815 c 0
 -242 867 -218 912 -154 912 c 0
 -114 912 -70 882 -70 826 c 0
 -70 758 -126 742 -126 742 c 1
 -101 733 -75 728 -49 728 c 0
 79 728 201 831 231 908 c 1
 315 908 l 17
-154 780 m 0
 -126 780 -112 803 -112 826 c 0
 -112 848 -126 871 -154 871 c 0
 -184 871 -199 848 -199 826 c 0
 -199 803 -184 780 -154 780 c 0
EndSplineSet
Fore
Refer: 177 3633 N 1 0 0 1 -165 0 2
Layer: 2
Refer: 177 3633 N 1 0 0 1 -165 0 2
EndChar

StartChar: uni0E4D.left
Encoding: 63249 63249 121
Width: 0
Flags: HW
HStem: 668 43<-157.46 -85.3366> 813 46<-158.333 -82.585>
VStem: -212 42<723.518 800.799> -74 44<722.148 804.652>
LayerCount: 3
Back
SplineSet
-121 676 m 0
 -181 676 -210 723 -210 770 c 0
 -211 816 -181 863 -121 863 c 0
 -62 863 -32 816 -32 769 c 0
 -32 722 -62 676 -121 676 c 0
-120 717 m 0
 -87 717 -71 742 -71 768 c 0
 -71 794 -88 820 -121 820 c 0
 -155 820 -172 795 -172 769 c 0
 -172 743 -154 717 -120 717 c 0
EndSplineSet
Fore
Refer: 203 3661 N 1 0 0 1 -198 0 2
Layer: 2
Refer: 203 3661 N 1 0 0 1 -198 0 2
EndChar

StartChar: uni0E47.left
Encoding: 63250 63250 122
Width: 0
Flags: W
HStem: 668 44<-133.64 -62.3112> 757 57<-304.992 -230.071> 795 39<-132.622 -64.2343> 886 52<-220.753 -34.5904> 898 49<-288.627 -118.073>
VStem: -390 59<721.607 856.318> -170 32<737.637 787.256> -58 37<718.67 788.556> -4 75<976.429 1028>
LayerCount: 3
Back
SplineSet
52 995 m 17x4c
 24 895 -39 837 -181 868 c 0
 -240 880 -282 882 -310 822 c 0
 -324 794 -323 763 -318 753 c 1x4c
 -318 753 -297 800 -247 800 c 0x2c
 -197 800 -190 746 -168 734 c 1
 -168 734 -168 740 -168 748 c 0
 -168 797 -135 820 -101 820 c 0x1c
 -66 820 -29 795 -29 745 c 0
 -29 695 -70 667 -100 667 c 0
 -224 667 -206 745 -255 745 c 0xac
 -304 745 -314 684 -306 668 c 1
 -340 668 l 1
 -371 702 -384 773 -345 846 c 0
 -323 891 -263 952 -151 923 c 0
 -77 905 -34 911 -16 995 c 1
 52 995 l 17x4c
-63 745 m 0xac
 -63 771 -81 784 -99 784 c 0x1c
 -117 784 -135 771 -135 745 c 0
 -135 720 -117 708 -99 708 c 0
 -81 708 -63 720 -63 745 c 0xac
EndSplineSet
Fore
Refer: 197 3655 N 1 0 0 1 -142 0 2
Layer: 2
Refer: 197 3655 N 1 0 0 1 -142 0 2
EndChar

StartChar: uni0E48.left
Encoding: 63251 63251 123
Width: 0
Flags: W
HStem: 1009 201<-2 14>
VStem: -58 72<1009 1081> -2 72<1138 1210>
DStem2: -58 1009 14 1009 0.267238 0.96363<19.2412 208.655>
LayerCount: 3
Back
SplineSet
75 1226 m 1
 14 1006 l 1
 -58 1006 l 1
 3 1226 l 1
 75 1226 l 1
EndSplineSet
Fore
Refer: 198 3656 N 1 0 0 1 -169 0 2
Validated: 1
Layer: 2
Refer: 198 3656 N 1 0 0 1 -169 0 2
EndChar

StartChar: uni0E49.left
Encoding: 63252 63252 124
Width: 0
Flags: W
HStem: 1066 34<-155.954 -127> 1184 36<-157.167 -88.585>
VStem: -197 33<1108.47 1175.86> -82 36<1105.58 1177.21> 138 76<1171.24 1213>
LayerCount: 3
Back
SplineSet
-42 1085 m 1
 -49 1085 -46 1085 -60 1088 c 0
 -94 1098 -111 1128 -112 1159 c 0
 -111 1199 -84 1239 -33 1239 c 0
 7 1239 45 1203 39 1154 c 0
 16 1072 -49 1035 -49 1035 c 1
 -50 1032 l 1
 55 1038 151 1098 196 1229 c 1
 268 1229 l 1
 199 1044 54 943 -140 997 c 1
 -131 1026 l 1
 -104 1034 -67 1053 -42 1085 c 1
-36 1119 m 0
 -9 1119 4 1140 5 1161 c 0
 5 1182 -9 1203 -36 1203 c 0
 -64 1203 -79 1182 -79 1161 c 0
 -79 1140 -65 1119 -36 1119 c 0
EndSplineSet
Fore
Refer: 199 3657 N 1 0 0 1 -250 0 2
Layer: 2
Refer: 199 3657 N 1 0 0 1 -250 0 2
EndChar

StartChar: uni0E4A.left
Encoding: 63253 63253 125
Width: 0
Flags: W
HStem: 988 30<-111.355 -52.6483> 1093 31<-111.228 -52.7675>
VStem: -169 51<1021.22 1117.85> -46 29<1025 1085.57> 80 52<1076.81 1171.28> 195 61<1165.05 1229>
LayerCount: 3
Back
SplineSet
-152 1118 m 0
 -138 1169 -74 1229 -23 1229 c 1
 -23 1229 14 1183 16 1183 c 2
 81 1229 l 1
 142 1211 148 1166 137 1124 c 0
 129 1097 114 1071 101 1054 c 1
 167 1092 200 1157 204 1229 c 1
 265 1229 l 17
 234 1091 139 1012 19 995 c 1
 26 1020 l 1
 55 1036 76 1069 85 1101 c 0
 95 1135 90 1168 67 1175 c 1
 1 1137 l 1
 -39 1175 l 1
 -74 1175 -105 1136 -114 1112 c 1
 -114 1112 -93 1135 -54 1124 c 0
 -29 1117 -7 1089 -8 1059 c 0
 -10 1018 -35 991 -76 991 c 0
 -155 991 -172 1046 -152 1118 c 0
-38 1058 m 0
 -38 1083 -56 1096 -74 1096 c 0
 -92 1096 -110 1083 -110 1058 c 0
 -110 1033 -92 1020 -74 1020 c 0
 -56 1020 -38 1033 -38 1058 c 0
EndSplineSet
Fore
Refer: 200 3658 N 1 0 0 1 -200 0 2
Layer: 2
Refer: 200 3658 N 1 0 0 1 -200 0 2
EndChar

StartChar: uni0E4B.left
Encoding: 63254 63254 126
Width: 0
Flags: W
HStem: 1081 57<-115 -29 46 128>
VStem: -52 54<992 1046> 9 63<1166 1229>
DStem2: -52 992 2 992 0.267238 0.96363<14.4309 90.946 168.807 244.682>
LayerCount: 3
Back
SplineSet
128 1081 m 1
 29 1080 l 1
 2 992 l 1
 -52 992 l 1
 -28 1080 l 1
 -131 1081 l 1
 -115 1138 l 1
 -14 1140 l 1
 10 1229 l 1
 73 1229 l 1
 46 1140 l 1
 144 1138 l 1
 128 1081 l 1
EndSplineSet
Fore
Refer: 201 3659 N 1 0 0 1 -163 0 2
Validated: 1
Layer: 2
Refer: 201 3659 N 1 0 0 1 -163 0 2
EndChar

StartChar: uni0E4C.left
Encoding: 63255 63255 127
Width: 0
Flags: W
HStem: 902 29<-40.8467 20.6816>
VStem: -82 31<939.846 1006.18> 30 32<938.94 1005.49>
LayerCount: 3
Back
SplineSet
45 1103 m 0
 70 1107 158 1140 176 1193 c 1
 228 1164 l 17
 166 1061 7 1061 13 1057 c 0
 36 1042 47 1019 47 995 c 0
 47 959 20 923 -28 923 c 0
 -72 923 -102 961 -97 1004 c 0
 -88 1062 -26 1091 45 1103 c 0
-25 952 m 0
 1 952 15 972 14 993 c 0
 14 1014 1 1035 -26 1035 c 0
 -53 1035 -66 1015 -66 994 c 0
 -66 973 -52 952 -25 952 c 0
EndSplineSet
Fore
Refer: 202 3660 N 1 0 0 1 -118 0 2
Layer: 2
Refer: 202 3660 N 1 0 0 1 -118 0 2
EndChar

StartChar: uni0E01
Encoding: 3585 3585 129
Width: 574
Flags: W
HStem: 0 21G<91 172.572 402 481.569> 392 44<214 232 276.59 364> 550 49<324.002 486.777>
VStem: 91 76<0 76> 402 74<0 74> 522 74<355.523 515.067>
DStem2: 91 0 167 0 0.267238 0.96363<20.3101 404.577> 402 0 476 0 0.267238 0.96363<19.7756 468.878>
LayerCount: 3
Fore
SplineSet
476 0 m 1
 402 0 l 1
 515 407 l 2
 520 423 522 439 522 454 c 3
 522 514 480 550 412 550 c 3
 333 550 250 502 214 436 c 1
 376 436 l 1
 364 392 l 1
 317 392 l 2
 293 392 270 371 262 341 c 2
 167 0 l 1
 91 0 l 1
 181 324 l 2
 189 353 210 381 232 392 c 1
 152 392 l 1
 185 511 305 599 435 599 c 3
 534 599 596 545 596 459 c 3
 596 441 594 427 591 413 c 2
 476 0 l 1
EndSplineSet
Layer: 2
SplineSet
476 0 m 1,0,-1
 402 0 l 1,1,-1
 515 407 l 2,2,3
 522 429 522 429 522 454 c 0,4,5
 522 499 522 499 492.5 524.5 c 128,-1,6
 463 550 463 550 412 550 c 0,7,8
 353 550 353 550 297 518 c 128,-1,9
 241 486 241 486 214 436 c 1,10,-1
 376 436 l 1,11,-1
 364 392 l 1,12,-1
 317 392 l 2,13,14
 299 392 299 392 283.5 377.5 c 128,-1,15
 268 363 268 363 262 341 c 2,16,-1
 167 0 l 1,17,-1
 91 0 l 1,18,-1
 181 324 l 2,19,20
 195 373 195 373 232 392 c 1,21,-1
 152 392 l 1,22,23
 177 481 177 481 257.5 540 c 128,-1,24
 338 599 338 599 435 599 c 0,25,26
 509 599 509 599 552.5 561.5 c 128,-1,27
 596 524 596 524 596 459 c 0,28,29
 596 436 596 436 591 413 c 2,30,-1
 476 0 l 1,0,-1
EndSplineSet
EndChar

StartChar: uni0E02
Encoding: 3586 3586 130
Width: 557
Flags: W
HStem: -8 43<322.087 392.903> 350 33<199.529 265.697> 469 33<213.569 265.574> 548 49<244.996 341.261>
VStem: 151 39<389.804 462.765> 248 72<36.5781 148.469> 274 31<392.153 460.018> 354 78<397.805 536.796> 550 75<519 594>
DStem2: 222.153 -8 298.15 -8 0.267238 0.96363<98.5541 509.763> 382.427 -8 457.385 -8 0.267238 0.96363<55.0644 624.887>
LayerCount: 3
Fore
SplineSet
151 436 m 3xfb80
 151 518 237 597 325 597 c 3
 393 597 432 560 432 497 c 3
 432 481 430 465 425 449 c 2
 322 78 l 2
 320 70 320 70 320 67 c 3
 320 48 333 35 352 35 c 3
 374 35 400 56 406 77 c 2
 550 594 l 1
 625 594 l 1
 489 106 l 2
 469 33 415 -8 340 -8 c 3
 285 -8 248 25 248 74 c 3xfd80
 248 83 250 94 253 106 c 2
 350 453 l 2
 353 463 354 473 354 485 c 3
 354 524 332 548 297 548 c 3
 261 548 240 535 213 496 c 1
 220 501 223 502 227 502 c 3
 273 502 305 471 305 425 c 3
 305 380 275 350 230 350 c 3
 183 350 151 385 151 436 c 3xfb80
233 383 m 3
 257 383 274 401 274 425 c 3xfb80
 274 451 257 469 233 469 c 3
 208 469 190 452 190 427 c 3
 190 402 208 383 233 383 c 3
EndSplineSet
Layer: 2
SplineSet
151 436 m 0,0,1
 151 497 151 497 205 547 c 128,-1,2
 259 597 259 597 325 597 c 0,3,4
 376 597 376 597 404 570.5 c 128,-1,5
 432 544 432 544 432 497 c 0,6,7
 432 471 432 471 425 449 c 2,8,-1
 322 78 l 2,9,10
 320 70 320 70 320 67 c 0,11,12
 320 53 320 53 329 44 c 128,-1,13
 338 35 338 35 352 35 c 0,14,15
 368 35 368 35 384.5 48 c 128,-1,16
 401 61 401 61 406 77 c 2,17,-1
 550 594 l 1,18,-1
 625 594 l 1,19,-1
 489 106 l 2,20,21
 474 51 474 51 435 21.5 c 128,-1,22
 396 -8 396 -8 340 -8 c 0,23,24
 299 -8 299 -8 273.5 14.5 c 128,-1,25
 248 37 248 37 248 74 c 0,26,27
 248 86 248 86 253 106 c 2,28,-1
 350 453 l 2,29,30
 354 466 354 466 354 485 c 0,31,32
 354 514 354 514 338.5 531 c 128,-1,33
 323 548 323 548 297 548 c 0,34,35
 270 548 270 548 251.5 536.5 c 128,-1,36
 233 525 233 525 213 496 c 1,37,38
 221 502 221 502 227 502 c 0,39,40
 262 502 262 502 283.5 480.5 c 128,-1,41
 305 459 305 459 305 425 c 128,-1,42
 305 391 305 391 284.5 370.5 c 128,-1,43
 264 350 264 350 230 350 c 0,44,45
 195 350 195 350 173 374 c 128,-1,46
 151 398 151 398 151 436 c 0,0,1
233 383 m 0,47,48
 251 383 251 383 262.5 395 c 128,-1,49
 274 407 274 407 274 425 c 0,50,51
 274 444 274 444 262.5 456.5 c 128,-1,52
 251 469 251 469 233 469 c 0,53,54
 214 469 214 469 202 457.5 c 128,-1,55
 190 446 190 446 190 427 c 128,-1,56
 190 408 190 408 202 395.5 c 128,-1,57
 214 383 214 383 233 383 c 0,47,48
EndSplineSet
EndChar

StartChar: uni0E03
Encoding: 3587 3587 131
Width: 604
Flags: W
HStem: -8 43<366.416 439.537> 311 31<188.706 253.496> 429 34<193.344 254.372> 573 21G<237.5 285.282 590.429 670>
VStem: 138 41<347.445 448.804> 263 31<351.677 418.609> 295 70<37.2266 147.32> 405 76<412.102 523.43> 596 74<520 594>
DStem2: 267.385 -8 343.15 -8 0.267238 0.96363<97.5307 527.773> 318 515 300 452 0.770962 0.636881<0 63.5132> 428.427 -8 502.385 -8 0.267238 0.96363<52.3027 624.887>
LayerCount: 3
Fore
SplineSet
274 593 m 1
 318 515 l 1
 410 591 l 1
 455 588 481 560 481 512 c 3
 481 497 478 480 473 461 c 2
 367 78 l 2
 365 72 365 69 365 66 c 3
 365 47 377 35 398 35 c 3
 421 35 446 54 452 77 c 2
 596 594 l 1
 670 594 l 1
 534 106 l 2
 514 32 462 -8 386 -8 c 3
 332 -8 295 26 295 76 c 3
 295 87 296 97 299 106 c 2
 398 461 l 2
 403 478 405 492 405 502 c 3
 405 517 400 524 390 524 c 1
 300 452 l 1
 255 524 l 1
 233 524 207 497 193 459 c 1
 197 462 205 463 219 463 c 3
 263 463 294 432 294 388 c 3
 294 343 262 311 218 311 c 3
 170 311 138 349 138 406 c 3
 138 486 201 572 274 593 c 1
219 342 m 3
 245 342 263 360 263 386 c 3
 263 411 244 429 219 429 c 3
 195 429 179 412 179 386 c 3
 179 361 196 342 219 342 c 3
EndSplineSet
Layer: 2
SplineSet
274 593 m 1,0,-1
 318 515 l 1,1,-1
 410 591 l 1,2,3
 481 586 481 586 481 512 c 0,4,5
 481 491 481 491 473 461 c 2,6,-1
 367 78 l 2,7,8
 365 72 365 72 365 66 c 0,9,10
 365 35 365 35 398 35 c 0,11,12
 415 35 415 35 431.5 47.5 c 128,-1,13
 448 60 448 60 452 77 c 2,14,-1
 596 594 l 1,15,-1
 670 594 l 1,16,-1
 534 106 l 2,17,18
 503 -8 503 -8 386 -8 c 0,19,20
 345 -8 345 -8 320 15.5 c 128,-1,21
 295 39 295 39 295 76 c 0,22,23
 295 94 295 94 299 106 c 2,24,-1
 398 461 l 2,25,26
 405 485 405 485 405 502 c 0,27,28
 405 524 405 524 390 524 c 1,29,-1
 300 452 l 1,30,-1
 255 524 l 1,31,32
 238 524 238 524 220.5 505.5 c 128,-1,33
 203 487 203 487 193 459 c 1,34,35
 198 463 198 463 219 463 c 0,36,37
 252 463 252 463 273 442 c 128,-1,38
 294 421 294 421 294 388 c 0,39,40
 294 354 294 354 272.5 332.5 c 128,-1,41
 251 311 251 311 218 311 c 0,42,43
 182 311 182 311 160 337 c 128,-1,44
 138 363 138 363 138 406 c 0,45,46
 138 466 138 466 178.5 521.5 c 128,-1,47
 219 577 219 577 274 593 c 1,0,-1
219 342 m 0,48,49
 238 342 238 342 250.5 354 c 128,-1,50
 263 366 263 366 263 386 c 0,51,52
 263 405 263 405 250.5 417 c 128,-1,53
 238 429 238 429 219 429 c 0,54,55
 201 429 201 429 190 417 c 128,-1,56
 179 405 179 405 179 386 c 128,-1,57
 179 367 179 367 190.5 354.5 c 128,-1,58
 202 342 202 342 219 342 c 0,48,49
EndSplineSet
EndChar

StartChar: uni0E04
Encoding: 3588 3588 132
Width: 561
Flags: W
HStem: 0 21G<96 177.59 393 470.536> 273 36<306.341 381.907> 407 37<306.141 382.059> 553 46<300.72 477.721>
VStem: 96 76<0 76> 139 46<321.718 445.629> 392 31<321.378 394.709> 393 72<0 72> 513 73<363.406 519.153>
DStem2: 96 0 172 0 0.267238 0.96363<20.3101 246.312> 393 0 465 0 0.267238 0.96363<19.2412 472.686>
LayerCount: 3
Fore
SplineSet
343 309 m 3xf280
 372 309 392 329 392 358 c 3
 392 387 372 407 343 407 c 3
 316 407 296 386 296 358 c 3
 296 330 316 309 343 309 c 3xf280
388 553 m 3
 285 553 185 463 185 370 c 3xf580
 185 346 192 330 207 321 c 1
 253 419 280 444 339 444 c 3
 388 444 423 408 423 358 c 3
 423 308 388 273 338 273 c 3
 317 273 286 285 264 301 c 1
 254 285 242 254 236 229 c 2
 172 0 l 1
 96 0 l 1xfa80
 158 224 l 2
 160 232 160 235 160 238 c 3
 160 247 158 255 152 277 c 0
 142 310 139 328 139 351 c 3
 139 483 262 599 402 599 c 3
 523 599 586 554 586 468 c 3
 586 447 583 425 576 401 c 2
 465 0 l 1
 393 0 l 1xf580
 504 401 l 2
 510 423 513 442 513 458 c 3
 513 522 472 553 388 553 c 3
EndSplineSet
Layer: 2
SplineSet
343 309 m 0,0,1
 365 309 365 309 378.5 322.5 c 128,-1,2
 392 336 392 336 392 358 c 128,-1,3
 392 380 392 380 378.5 393.5 c 128,-1,4
 365 407 365 407 343 407 c 0,5,6
 323 407 323 407 309.5 393 c 128,-1,7
 296 379 296 379 296 358 c 128,-1,8
 296 337 296 337 309.5 323 c 128,-1,9
 323 309 323 309 343 309 c 0,0,1
388 553 m 0,10,11
 311 553 311 553 248 496.5 c 128,-1,12
 185 440 185 440 185 370 c 0,13,14
 185 334 185 334 207 321 c 1,15,16
 241 394 241 394 268 419 c 128,-1,17
 295 444 295 444 339 444 c 0,18,19
 376 444 376 444 399.5 420 c 128,-1,20
 423 396 423 396 423 358 c 128,-1,21
 423 320 423 320 399.5 296.5 c 128,-1,22
 376 273 376 273 338 273 c 0,23,24
 302 273 302 273 264 301 c 1,25,26
 247 273 247 273 236 229 c 2,27,-1
 172 0 l 1,28,-1
 96 0 l 1,29,-1
 158 224 l 2,30,31
 160 232 160 232 160 238 c 0,32,33
 160 248 160 248 152 277 c 0,34,35
 139 320 139 320 139 351 c 0,36,37
 139 450 139 450 218 524.5 c 128,-1,38
 297 599 297 599 402 599 c 0,39,40
 586 599 586 599 586 468 c 0,41,42
 586 435 586 435 576 401 c 2,43,-1
 465 0 l 1,44,-1
 393 0 l 1,45,-1
 504 401 l 2,46,47
 513 434 513 434 513 458 c 0,48,49
 513 553 513 553 388 553 c 0,10,11
EndSplineSet
EndChar

StartChar: uni0E05
Encoding: 3589 3589 133
Width: 560
Flags: W
HStem: 0 21G<96 177.583 391 469.564> 273 36<306.418 381.907> 407 37<305.668 382.059> 574 20G<274.5 345.286 463.857 521.5>
VStem: 96 76<0 76> 140 47<321.408 448.016> 391 73<0 73> 392 31<321.378 394.709> 517 69<374.062 526.083>
DStem2: 96 0 172 0 0.267238 0.96363<20.3101 250.699> 327 594 307 538 0.702002 -0.712175<17.2721 94.7804> 391 524 376 468 0.829588 0.558376<0 87.7952> 391 0 464 0 0.267238 0.96363<19.5084 490.583>
LayerCount: 3
Fore
SplineSet
307 538 m 1xf680
 245 521 187 439 187 370 c 3xf680
 187 347 195 330 209 321 c 1
 255 424 277 444 339 444 c 3
 388 444 423 408 423 358 c 3
 423 308 388 273 338 273 c 3
 319 273 290 282 268 295 c 1
 256 288 247 270 239 240 c 2
 172 0 l 1
 96 0 l 1xf980
 160 229 l 2
 161 234 162 239 162 242 c 3
 162 252 160 261 153 284 c 0
 143 317 140 335 140 357 c 3
 140 460 222 564 327 594 c 1
 391 524 l 1
 493 594 l 1
 550 583 586 536 586 471 c 3
 586 448 582 425 575 399 c 2
 464 0 l 1
 391 0 l 1
 502 399 l 2
 514 440 517 457 517 475 c 3
 517 502 505 522 480 538 c 1
 376 468 l 1
 307 538 l 1xf680
343 309 m 3
 372 309 392 329 392 358 c 3xf180
 392 387 372 407 343 407 c 3
 316 407 296 386 296 358 c 3
 296 330 316 309 343 309 c 3
EndSplineSet
Layer: 2
SplineSet
307 538 m 1,0,1
 261 525 261 525 224 473.5 c 128,-1,2
 187 422 187 422 187 370 c 0,3,4
 187 335 187 335 209 321 c 1,5,6
 243 398 243 398 267.5 421 c 128,-1,7
 292 444 292 444 339 444 c 0,8,9
 376 444 376 444 399.5 420 c 128,-1,10
 423 396 423 396 423 358 c 128,-1,11
 423 320 423 320 399.5 296.5 c 128,-1,12
 376 273 376 273 338 273 c 0,13,14
 305 273 305 273 268 295 c 1,15,16
 251 285 251 285 239 240 c 2,17,-1
 172 0 l 1,18,-1
 96 0 l 1,19,-1
 160 229 l 2,20,21
 162 239 162 239 162 242 c 0,22,23
 162 254 162 254 153 284 c 0,24,25
 140 327 140 327 140 357 c 0,26,27
 140 434 140 434 194 503 c 128,-1,28
 248 572 248 572 327 594 c 1,29,-1
 391 524 l 1,30,-1
 493 594 l 1,31,32
 536 586 536 586 561 553 c 128,-1,33
 586 520 586 520 586 471 c 0,34,35
 586 440 586 440 575 399 c 2,36,-1
 464 0 l 1,37,-1
 391 0 l 1,38,-1
 502 399 l 2,39,40
 517 450 517 450 517 475 c 0,41,42
 517 514 517 514 480 538 c 1,43,-1
 376 468 l 1,44,-1
 307 538 l 1,0,1
343 309 m 0,45,46
 365 309 365 309 378.5 322.5 c 128,-1,47
 392 336 392 336 392 358 c 128,-1,48
 392 380 392 380 378.5 393.5 c 128,-1,49
 365 407 365 407 343 407 c 0,50,51
 323 407 323 407 309.5 393 c 128,-1,52
 296 379 296 379 296 358 c 128,-1,53
 296 337 296 337 309.5 323 c 128,-1,54
 323 309 323 309 343 309 c 0,45,46
EndSplineSet
EndChar

StartChar: uni0E06
Encoding: 3590 3590 134
Width: 721
Flags: W
HStem: -8 54<243.085 292.459> 0 21G<533 626.556> 141 49<403 454.606> 144 54<262.375 314> 280 32<182.745 248.496> 399 34<186.384 249.372> 573 21G<238.5 288.795 706.429 786>
VStem: 137 37<318.857 391.601> 197 45<46.4504 123.808> 258 31<322.019 388.398> 409 77<413.055 547.398> 712 74<520 594>
DStem2: 271.847 -8 349.679 -8 0.267238 0.96363<50.9085 157.737 225.848 528.569> 323 515 394 524 0.802936 0.596066<0 64.6452> 544.427 -8 618.781 -8 0.267238 0.96363<88.2081 624.887>
LayerCount: 3
Fore
SplineSet
242 74 m 3x9ff0
 242 54 250 46 267 46 c 3
 280 46 289 54 293 68 c 2
 314 144 l 1
 309 144 l 2
 274 144 242 110 242 74 c 3x9ff0
197 60 m 3
 197 132 260 198 329 198 c 1x9ff0
 402 461 l 2
 407 479 409 492 409 503 c 3
 409 517 404 524 394 524 c 1
 305 452 l 1
 258 524 l 1
 227 524 197 481 186 421 c 1
 195 430 202 433 214 433 c 3
 258 433 289 402 289 357 c 3
 289 312 257 280 213 280 c 3
 165 280 137 317 137 381 c 3
 137 476 200 571 277 593 c 1
 323 515 l 1
 415 591 l 1
 460 588 486 560 486 512 c 3
 486 498 483 482 478 461 c 2
 403 190 l 1
 473 178 542 131 568 77 c 1
 712 594 l 1
 786 594 l 1
 621 0 l 1
 544 0 l 1
 522 78 458 137 391 141 c 1x6ff0
 360 23 335 -8 269 -8 c 3
 224 -8 197 18 197 60 c 3
214 312 m 3
 240 312 258 330 258 356 c 3
 258 381 239 399 214 399 c 3
 190 399 174 382 174 356 c 3
 174 331 191 312 214 312 c 3
EndSplineSet
Layer: 2
SplineSet
242 74 m 0,0,1
 242 46 242 46 267 46 c 0,2,3
 287 46 287 46 293 68 c 2,4,-1
 314 144 l 1,5,-1
 309 144 l 2,6,7
 283 144 283 144 262.5 122.5 c 128,-1,8
 242 101 242 101 242 74 c 0,0,1
197 60 m 0,9,10
 197 114 197 114 237 156 c 128,-1,11
 277 198 277 198 329 198 c 1,12,-1
 402 461 l 2,13,14
 409 486 409 486 409 503 c 0,15,16
 409 524 409 524 394 524 c 1,17,-1
 305 452 l 1,18,-1
 258 524 l 1,19,20
 235 524 235 524 214.5 495 c 128,-1,21
 194 466 194 466 186 421 c 1,22,23
 198 433 198 433 214 433 c 0,24,25
 247 433 247 433 268 412 c 128,-1,26
 289 391 289 391 289 357 c 128,-1,27
 289 323 289 323 267.5 301.5 c 128,-1,28
 246 280 246 280 213 280 c 0,29,30
 177 280 177 280 157 306.5 c 128,-1,31
 137 333 137 333 137 381 c 0,32,33
 137 452 137 452 178 514 c 128,-1,34
 219 576 219 576 277 593 c 1,35,-1
 323 515 l 1,36,-1
 415 591 l 1,37,38
 486 586 486 586 486 512 c 0,39,40
 486 495 486 495 478 461 c 2,41,-1
 403 190 l 1,42,43
 456 181 456 181 502.5 149 c 128,-1,44
 549 117 549 117 568 77 c 1,45,-1
 712 594 l 1,46,-1
 786 594 l 1,47,-1
 621 0 l 1,48,-1
 544 0 l 1,49,50
 527 59 527 59 484 98.5 c 128,-1,51
 441 138 441 138 391 141 c 1,52,53
 368 52 368 52 343 22 c 128,-1,54
 318 -8 318 -8 269 -8 c 0,55,56
 235 -8 235 -8 216 10 c 128,-1,57
 197 28 197 28 197 60 c 0,9,10
214 312 m 0,58,59
 234 312 234 312 246 324 c 128,-1,60
 258 336 258 336 258 356 c 0,61,62
 258 375 258 375 245.5 387 c 128,-1,63
 233 399 233 399 214 399 c 0,64,65
 196 399 196 399 185 387 c 128,-1,66
 174 375 174 375 174 356 c 128,-1,67
 174 337 174 337 185.5 324.5 c 128,-1,68
 197 312 197 312 214 312 c 0,58,59
EndSplineSet
EndChar

StartChar: uni0E07
Encoding: 3591 3591 135
Width: 416
Flags: W
HStem: 0 21G<234.314 325.533> 418 37<302.896 359.813> 556 38<301.738 379.959>
VStem: 256 36<466.207 544.891> 391 66<464.176 547.787>
DStem2: 243.822 0 320 0 0.267238 0.96363<101.699 437.699>
LayerCount: 3
Fore
SplineSet
320 0 m 1
 241 0 l 1
 128 338 l 1
 145 395 l 1
 271 98 l 1
 360 422 l 1
 354 419 352 418 345 418 c 3
 293 418 256 453 256 504 c 3
 256 556 297 594 353 594 c 3
 419 594 457 562 457 507 c 3
 457 499 456 492 455 488 c 2
 320 0 l 1
341 455 m 3
 370 455 391 476 391 506 c 3
 391 535 370 556 341 556 c 3
 312 556 292 535 292 506 c 3
 292 476 312 455 341 455 c 3
EndSplineSet
Layer: 2
SplineSet
320 0 m 1,0,-1
 241 0 l 1,1,-1
 128 338 l 1,2,-1
 145 395 l 1,3,-1
 271 98 l 1,4,-1
 360 422 l 1,5,6
 352 418 352 418 345 418 c 0,7,8
 306 418 306 418 281 442 c 128,-1,9
 256 466 256 466 256 504 c 0,10,11
 256 543 256 543 283.5 568.5 c 128,-1,12
 311 594 311 594 353 594 c 0,13,14
 402 594 402 594 429.5 571 c 128,-1,15
 457 548 457 548 457 507 c 0,16,17
 457 496 457 496 455 488 c 2,18,-1
 320 0 l 1,0,-1
341 455 m 128,-1,20
 363 455 363 455 377 469.5 c 128,-1,21
 391 484 391 484 391 506 c 128,-1,22
 391 528 391 528 377 542 c 128,-1,23
 363 556 363 556 341 556 c 128,-1,24
 319 556 319 556 305.5 542 c 128,-1,25
 292 528 292 528 292 506 c 0,26,27
 292 483 292 483 305.5 469 c 128,-1,19
 319 455 319 455 341 455 c 128,-1,20
EndSplineSet
EndChar

StartChar: uni0E08
Encoding: 3592 3592 136
Width: 538
Flags: W
HStem: -5 43<302.003 375.358> 276 40<234.556 280.609> 406 41<234.807 307.804> 439 21G<157 211> 544 54<305.621 454.547>
VStem: 190 38<322.545 398.852> 231 69<40.3726 155.133> 314 58<321.585 400.146> 485 80<370.789 513.716>
DStem2: 203.385 -5 277.15 -5 0.267238 0.96363<99.3671 293.449> 362.427 -5 439.385 -5 0.267238 0.96363<56.8266 476.403>
LayerCount: 3
Fore
SplineSet
190 363 m 3xdf80
 190 411 226 447 275 447 c 3xef80
 333 447 372 409 372 352 c 3
 372 343 371 334 369 326 c 2
 301 81 l 2
 300 79 300 78 300 71 c 3
 300 51 313 38 333 38 c 3
 357 38 380 56 386 80 c 2
 480 419 l 2
 483 431 485 443 485 456 c 3
 485 511 446 544 383 544 c 3
 309 544 238 507 184 439 c 1
 157 453 l 1
 223 543 314 598 398 598 c 3
 505 598 565 552 565 471 c 3
 565 453 562 434 556 413 c 2
 471 109 l 2
 452 39 394 -5 321 -5 c 3
 269 -5 231 32 231 81 c 3
 231 92 232 101 235 109 c 2
 281 278 l 1
 279 277 275 276 271 276 c 3
 224 276 190 313 190 363 c 3xdf80
271 316 m 3
 297 316 314 334 314 361 c 3
 314 388 297 406 271 406 c 3
 245 406 228 388 228 361 c 3
 228 334 245 316 271 316 c 3
EndSplineSet
Layer: 2
SplineSet
190 363 m 0,0,1
 190 399 190 399 214 423 c 128,-1,2
 238 447 238 447 275 447 c 0,3,4
 319 447 319 447 345.5 421 c 128,-1,5
 372 395 372 395 372 352 c 0,6,7
 372 338 372 338 369 326 c 2,8,-1
 301 81 l 2,9,10
 300 79 300 79 300 71 c 0,11,12
 300 56 300 56 309 47 c 128,-1,13
 318 38 318 38 333 38 c 0,14,15
 351 38 351 38 366.5 50 c 128,-1,16
 382 62 382 62 386 80 c 2,17,-1
 480 419 l 2,18,19
 485 439 485 439 485 456 c 0,20,21
 485 497 485 497 457.5 520.5 c 128,-1,22
 430 544 430 544 383 544 c 0,23,24
 267 544 267 544 184 439 c 1,25,-1
 157 453 l 1,26,27
 207 521 207 521 271 559.5 c 128,-1,28
 335 598 335 598 398 598 c 0,29,30
 478 598 478 598 521.5 565 c 128,-1,31
 565 532 565 532 565 471 c 0,32,33
 565 444 565 444 556 413 c 2,34,-1
 471 109 l 2,35,36
 457 57 457 57 416.5 26 c 128,-1,37
 376 -5 376 -5 321 -5 c 0,38,39
 282 -5 282 -5 256.5 19.5 c 128,-1,40
 231 44 231 44 231 81 c 0,41,42
 231 98 231 98 235 109 c 2,43,-1
 281 278 l 1,44,45
 277 276 277 276 271 276 c 0,46,47
 236 276 236 276 213 300.5 c 128,-1,48
 190 325 190 325 190 363 c 0,0,1
271 316 m 128,-1,50
 290 316 290 316 302 328.5 c 128,-1,51
 314 341 314 341 314 361 c 128,-1,52
 314 381 314 381 302 393.5 c 128,-1,53
 290 406 290 406 271 406 c 128,-1,54
 252 406 252 406 240 393.5 c 128,-1,55
 228 381 228 381 228 361 c 128,-1,56
 228 341 228 341 240 328.5 c 128,-1,49
 252 316 252 316 271 316 c 128,-1,50
EndSplineSet
EndChar

StartChar: uni0E09
Encoding: 3593 3593 137
Width: 586
Flags: W
HStem: -8 40<430.27 503.074> 0 21G<169 262.5> 236 36<189.796 235.303> 364 41<188.664 261.005> 439 21G<172 224.5> 544 54<332.419 492.607>
VStem: 143 38<279.869 355.137> 267 60<278.45 359.176> 386 38<38.7927 113.634> 511 43<38.7504 115.428> 532 76<365.531 505.969>
DStem2: 166.781 -8 238.545 -8 0.267238 0.96363<27.2759 79.714 121.914 257.478> 410.082 -8 483.468 -8 0.267238 0.96363<180.275 472.599>
LayerCount: 3
Fore
SplineSet
468 -8 m 3xbfc0
 426 -8 386 31 386 73 c 3
 386 91 393 115 401 123 c 1
 337 106 285 66 240 0 c 1
 169 0 l 1
 236 240 l 1
 224 237 218 236 213 236 c 3
 174 236 143 272 143 318 c 3
 143 372 180 405 239 405 c 3
 295 405 327 377 327 329 c 3
 327 316 325 304 322 292 c 2
 266 91 l 1
 273 89 l 1
 308 134 385 168 460 172 c 1
 527 415 l 2
 531 433 532 441 532 449 c 3
 532 507 484 544 408 544 c 3
 337 544 251 501 198 439 c 1
 172 453 l 1
 239 543 340 598 440 598 c 3
 541 598 608 544 608 463 c 3
 608 447 606 431 601 416 c 2
 532 167 l 2x7fa0
 530 160 523 153 514 150 c 1
 514 147 l 1
 539 134 554 108 554 77 c 3
 554 28 518 -8 468 -8 c 3xbfc0
401 123 m 1024
224 272 m 3
 249 272 267 292 267 319 c 3
 267 346 250 364 225 364 c 3
 200 364 182 345 181 317 c 3
 181 291 199 272 224 272 c 3
466 32 m 3xbfc0
 492 32 511 51 511 77 c 3
 511 103 493 121 467 121 c 3
 442 121 424 102 424 76 c 3
 424 50 441 32 466 32 c 3xbfc0
EndSplineSet
Layer: 2
SplineSet
468 -8 m 0,0,1
 436 -8 436 -8 411 17 c 128,-1,2
 386 42 386 42 386 73 c 0,3,4
 386 108 386 108 401 123 c 1,5,6
 307 98 307 98 240 0 c 1,7,-1
 169 0 l 1,8,-1
 236 240 l 1,9,10
 220 236 220 236 213 236 c 0,11,12
 184 236 184 236 163.5 260 c 128,-1,13
 143 284 143 284 143 318 c 0,14,15
 143 358 143 358 169 381.5 c 128,-1,16
 195 405 195 405 239 405 c 0,17,18
 281 405 281 405 304 385 c 128,-1,19
 327 365 327 365 327 329 c 0,20,21
 327 312 327 312 322 292 c 2,22,-1
 266 91 l 1,23,-1
 273 89 l 1,24,25
 299 123 299 123 351.5 146 c 128,-1,26
 404 169 404 169 460 172 c 1,27,-1
 527 415 l 2,28,29
 532 438 532 438 532 449 c 0,30,31
 532 493 532 493 498.5 518.5 c 128,-1,32
 465 544 465 544 408 544 c 0,33,34
 355 544 355 544 296.5 515 c 128,-1,35
 238 486 238 486 198 439 c 1,36,-1
 172 453 l 1,37,38
 222 521 222 521 293.5 559.5 c 128,-1,39
 365 598 365 598 440 598 c 0,40,41
 516 598 516 598 562 561 c 128,-1,42
 608 524 608 524 608 463 c 0,43,44
 608 437 608 437 601 416 c 2,45,-1
 532 167 l 2,46,47
 529 155 529 155 514 150 c 1,48,-1
 514 147 l 1,49,50
 554 126 554 126 554 77 c 0,51,52
 554 40 554 40 529.5 16 c 128,-1,53
 505 -8 505 -8 468 -8 c 0,0,1
401 123 m 1024,54,-1
224 272 m 128,-1,56
 243 272 243 272 255 285.5 c 128,-1,57
 267 299 267 299 267 319 c 128,-1,58
 267 339 267 339 255.5 351.5 c 128,-1,59
 244 364 244 364 225 364 c 128,-1,60
 206 364 206 364 194 351 c 128,-1,61
 182 338 182 338 181 317 c 0,62,63
 181 297 181 297 193 284.5 c 128,-1,55
 205 272 205 272 224 272 c 128,-1,56
466 32 m 0,64,65
 486 32 486 32 498.5 45 c 128,-1,66
 511 58 511 58 511 77 c 128,-1,67
 511 96 511 96 498.5 108.5 c 128,-1,68
 486 121 486 121 467 121 c 128,-1,69
 448 121 448 121 436 108.5 c 128,-1,70
 424 96 424 96 424 76 c 128,-1,71
 424 56 424 56 435.5 44 c 128,-1,72
 447 32 447 32 466 32 c 0,64,65
EndSplineSet
EndChar

StartChar: uni0E0A
Encoding: 3594 3594 138
Width: 556
Flags: W
HStem: 0 49<175 236 314 407.681> 349 33<199.46 265.477> 468 32<212.599 264.915> 547 49<244.122 345.752>
VStem: 150 40<389.026 461.635> 274 31<391.368 459.096> 354 77<429.034 538.625> 500 77<279.75 409.147>
DStem2: 222.411 0 300.411 0 0.267238 0.96363<71.694 509.648> 401.553 0 477.881 0 0.267238 0.96363<57.3994 380.471 485.773 616.61>
LayerCount: 3
Fore
SplineSet
150 435 m 3
 150 516 236 596 324 596 c 3
 393 596 431 561 431 495 c 3
 431 483 428 463 425 451 c 2
 314 49 l 1
 352 49 l 2
 393 49 422 73 434 117 c 2
 494 333 l 2
 498 346 500 358 500 368 c 3
 500 396 485 412 449 422 c 1
 457 450 l 1
 514 463 535 482 549 531 c 2
 567 594 l 1
 643 594 l 1
 605 462 593 446 529 436 c 1
 561 433 577 413 577 379 c 3
 577 364 574 346 567 321 c 2
 507 105 l 2
 490 43 437 0 378 0 c 2
 161 0 l 1
 175 49 l 1
 236 49 l 1
 348 453 l 2
 352 467 354 480 354 493 c 3
 354 529 335 547 297 547 c 3
 261 547 247 538 212 495 c 1
 219 499 223 500 233 500 c 3
 274 500 305 467 305 424 c 3
 305 380 274 349 230 349 c 3
 183 349 150 385 150 435 c 3
233 382 m 3
 257 382 274 400 274 424 c 3
 274 450 257 468 233 468 c 3
 208 468 190 451 190 426 c 3
 190 401 208 382 233 382 c 3
EndSplineSet
Layer: 2
SplineSet
150 435 m 0,0,1
 150 496 150 496 204 546 c 128,-1,2
 258 596 258 596 324 596 c 0,3,4
 376 596 376 596 403.5 570 c 128,-1,5
 431 544 431 544 431 495 c 0,6,7
 431 475 431 475 425 451 c 2,8,-1
 314 49 l 1,9,-1
 352 49 l 2,10,11
 415 49 415 49 434 117 c 2,12,-1
 494 333 l 2,13,14
 500 352 500 352 500 368 c 0,15,16
 500 408 500 408 449 422 c 1,17,-1
 457 450 l 1,18,19
 500 460 500 460 519 477 c 128,-1,20
 538 494 538 494 549 531 c 2,21,-1
 567 594 l 1,22,-1
 643 594 l 1,23,24
 615 495 615 495 596 469.5 c 128,-1,25
 577 444 577 444 529 436 c 1,26,27
 577 431 577 431 577 379 c 0,28,29
 577 357 577 357 567 321 c 2,30,-1
 507 105 l 2,31,32
 494 59 494 59 458 29.5 c 128,-1,33
 422 0 422 0 378 0 c 2,34,-1
 161 0 l 1,35,-1
 175 49 l 1,36,-1
 236 49 l 1,37,-1
 348 453 l 2,38,39
 354 474 354 474 354 493 c 0,40,41
 354 547 354 547 297 547 c 0,42,43
 270 547 270 547 254 537 c 128,-1,44
 238 527 238 527 212 495 c 1,45,46
 221 500 221 500 233 500 c 0,47,48
 264 500 264 500 284.5 478 c 128,-1,49
 305 456 305 456 305 424 c 0,50,51
 305 391 305 391 284 370 c 128,-1,52
 263 349 263 349 230 349 c 0,53,54
 195 349 195 349 172.5 373 c 128,-1,55
 150 397 150 397 150 435 c 0,0,1
233 382 m 0,56,57
 251 382 251 382 262.5 394 c 128,-1,58
 274 406 274 406 274 424 c 0,59,60
 274 443 274 443 262.5 455.5 c 128,-1,61
 251 468 251 468 233 468 c 0,62,63
 214 468 214 468 202 456.5 c 128,-1,64
 190 445 190 445 190 426 c 128,-1,65
 190 407 190 407 202 394.5 c 128,-1,66
 214 382 214 382 233 382 c 0,56,57
EndSplineSet
EndChar

